<?xml version="1.0" encoding="UTF-8"?>
<svg version="1.1" xmlns="http://www.w3.org/2000/svg" width="2119" height="1261">
<path d="M0 0 C699.27 0 1398.54 0 2119 0 C2119 416.13 2119 832.26 2119 1261 C1419.73 1261 720.46 1261 0 1261 C0 844.87 0 428.74 0 0 Z " fill="#FBFCFD" transform="translate(0,0)"/>
<path d="M0 0 C316.8 0 633.6 0 960 0 C960 87.12 960 174.24 960 264 C840.375 264.3125 840.375 264.3125 802.57177734 264.38793945 C791.41108 264.42449405 791.41108 264.42449405 780.25039673 264.4650116 C775.27065077 264.48298348 770.29096373 264.49256196 765.31118774 264.49711609 C758.96325275 264.50319418 752.61551395 264.52348452 746.2676518 264.55416143 C743.93543848 264.5629947 741.6031995 264.56679292 739.27097011 264.56503928 C736.1247003 264.56338986 732.9790414 264.58001108 729.83285522 264.60127258 C728.91676798 264.59642444 728.00068073 264.59157629 727.05683327 264.58658123 C721.99643103 264.64300118 718.29094855 265.01882193 714 268 C710.43443311 272.47041349 710.57786161 276.4787397 710.62526989 281.94094849 C710.62120916 282.84681127 710.61714844 283.75267406 710.61296466 284.68598723 C710.60297677 287.7375906 710.61447032 290.78873859 710.6257782 293.84033203 C710.62303907 296.04372919 710.61898825 298.24712505 710.61373454 300.45051765 C710.60311743 306.51805923 710.61129634 312.58545414 710.62248504 318.65298939 C710.6304008 324.52046662 710.62426119 330.38791772 710.61850847 336.255395 C710.60657333 348.99948123 710.61167331 361.74351806 710.62378674 374.48760158 C710.63431535 385.64003344 710.63886321 396.79244846 710.63749123 407.94488525 C710.6374072 408.68412511 710.63732317 409.42336497 710.63723659 410.18500604 C710.63688435 413.18568313 710.63650034 416.18636021 710.63607101 419.1870373 C710.63210431 447.34624199 710.64483159 475.50541688 710.66559757 503.66461304 C710.68396756 528.69243184 710.68978 553.72022206 710.68432617 578.74804688 C710.68397974 580.35503173 710.68363364 581.96201658 710.68328788 583.56900144 C710.68311689 584.36345721 710.68294589 585.15791298 710.68276971 585.97644316 C710.68191619 589.97547586 710.68109241 593.97450855 710.68030071 597.97354126 C710.68014363 598.76245768 710.67998655 599.55137411 710.67982471 600.36419709 C710.67583632 621.26590325 710.68130799 642.16760665 710.689812 663.06931114 C710.69071906 665.31787208 710.69162471 667.56643302 710.69252724 669.81499396 C710.69312835 671.30668346 710.69373697 672.79837295 710.69435314 674.29006244 C710.69857767 684.69750938 710.69915146 695.10495091 710.69724765 705.51239842 C710.69480673 718.92318712 710.69885991 732.33394685 710.71445765 745.74472761 C710.72171718 752.21409528 710.72576542 758.68342281 710.72121429 765.15279388 C710.71715325 771.06930672 710.72225943 776.9857365 710.73484037 782.9022367 C710.73778068 785.04818968 710.73731743 787.19415044 710.73319729 789.34010148 C710.72812168 792.24651851 710.73523665 795.15265429 710.74552441 798.05905151 C710.73892968 799.32228575 710.73892968 799.32228575 710.73220173 800.61103988 C710.76066379 804.80415991 710.88282296 808.25091718 713 812 C715.44288628 813.31068333 715.44288628 813.31068333 718 814 C718.66 814.33 719.32 814.66 720 815 C723.12428775 815.10846302 726.22689668 815.1549269 729.35183716 815.15821838 C730.33122253 815.16314804 731.31060791 815.1680777 732.31967163 815.17315674 C735.63254614 815.18861001 738.94540141 815.19691443 742.25830078 815.20532227 C744.66150014 815.21503202 747.06469777 815.22517717 749.4678936 815.23572445 C755.9237092 815.26284824 762.37953164 815.28398556 768.83537292 815.30391693 C774.88562482 815.32349328 780.93584994 815.34842295 786.98608398 815.3729248 C804.6990359 815.44151801 822.41202039 815.5014774 840.125 815.5625 C879.68375 815.706875 919.2425 815.85125 960 816 C960 902.79 960 989.58 960 1079 C848.89202166 1079.10065391 848.89202166 1079.10065391 814.52339172 1079.12825012 C813.29765116 1079.12923679 812.0719106 1079.13022346 810.80902638 1079.13124003 C769.56317296 1079.16435177 728.31731811 1079.19061353 687.07145691 1079.2117157 C685.71225583 1079.21241295 684.35305475 1079.21311021 682.99385367 1079.21380747 C654.4650649 1079.2284203 625.93627572 1079.24200394 597.4074859 1079.25439839 C583.07693734 1079.26062546 568.74638889 1079.26705033 554.41584051 1079.27366221 C552.25410558 1079.27465845 550.09237065 1079.27564904 547.93063571 1079.2766394 C514.63543164 1079.29194277 481.3402367 1079.31149331 448.04504395 1079.34332275 C447.32894362 1079.34400725 446.61284329 1079.34469174 445.87504296 1079.34539698 C434.32908302 1079.3564591 422.78312344 1079.36787704 411.2371639 1079.3793422 C377.98896912 1079.4123523 344.74078135 1079.44273957 311.49257183 1079.45569897 C310.46739839 1079.45610048 310.46739839 1079.45610048 309.42151437 1079.4565101 C294.41962598 1079.46233837 279.41773749 1079.4668129 264.41584832 1079.47000491 C258.37996642 1079.47131306 252.34408458 1079.47281615 246.30820274 1079.47438622 C245.31728961 1079.47463692 245.31728961 1079.47463692 244.30635803 1079.47489269 C222.34750624 1079.48054838 200.38872446 1079.50361361 178.42989694 1079.53416017 C157.0450393 1079.56354149 135.66023341 1079.57485371 114.27535627 1079.56750689 C101.55661442 1079.56369232 88.83806139 1079.57394633 76.11935349 1079.60398772 C67.63502648 1079.62266566 59.15082385 1079.62336905 50.66648843 1079.60915907 C45.82461818 1079.60157308 40.9831063 1079.60208418 36.14127371 1079.62441591 C31.74190773 1079.64455376 27.3431819 1079.64194399 22.94382649 1079.62069988 C21.35695054 1079.61711019 19.77002847 1079.62201826 18.18321163 1079.63617622 C16.03617801 1079.65412748 13.89144079 1079.64148329 11.74448043 1079.62099248 C9.95811233 1079.62216234 9.95811233 1079.62216234 8.13565599 1079.62335582 C3.9355361 1078.78838885 2.49525052 1077.4535318 0 1074 C-0.49065949 1071.2854335 -0.6698136 1069.19925874 -0.62099248 1066.49248809 C-0.62738291 1065.74028271 -0.63377334 1064.98807734 -0.64035742 1064.21307786 C-0.65573762 1061.67875577 -0.63532531 1059.14597623 -0.61523914 1056.61170483 C-0.61893607 1054.77424217 -0.62482764 1052.93678285 -0.63272163 1051.09933344 C-0.64811916 1046.02069765 -0.63214871 1040.94255943 -0.61133096 1035.86396057 C-0.59420527 1030.35012016 -0.60600525 1024.83633179 -0.61421841 1019.32248145 C-0.62460462 1009.64919059 -0.61633859 999.97605322 -0.59602737 990.30278015 C-0.56590888 975.91890976 -0.56433465 961.53512048 -0.56873732 947.15122656 C-0.57577845 922.95776535 -0.55860807 898.76436967 -0.52865028 874.57092857 C-0.49904876 850.60799523 -0.479777 826.64508995 -0.47438622 802.68213844 C-0.47421416 801.9382359 -0.4740421 801.19433336 -0.47386482 800.42788832 C-0.47229885 793.63359119 -0.47086039 786.83929405 -0.46957495 780.04499687 C-0.46637777 763.15432765 -0.46158103 746.2636591 -0.45569897 729.37299061 C-0.45529909 728.21918165 -0.45529909 728.21918165 -0.45489113 727.04206343 C-0.44178014 689.6148644 -0.41024096 652.18768389 -0.37719727 614.76049805 C-0.36573907 601.77069106 -0.35436231 588.78088401 -0.34332275 575.79107666 C-0.34263801 574.98545926 -0.34195326 574.17984185 -0.34124777 573.3498118 C-0.30953707 535.91024008 -0.29095642 498.47066524 -0.27565865 461.03108365 C-0.2746558 458.58178885 -0.27364431 456.13249406 -0.27262997 453.68319926 C-0.26206311 428.15832114 -0.25212766 402.63344278 -0.24246611 377.1085643 C-0.24219004 376.37933102 -0.24191397 375.65009773 -0.24162953 374.89876647 C-0.24088709 372.93608359 -0.24014609 370.97340071 -0.23940522 369.01071783 C-0.19244727 246.00711007 -0.09210073 123.0035991 0 0 Z " fill="#565BE4" transform="translate(100,107)"/>
<path d="M0 0 C1.13485804 -0.01229251 2.26971608 -0.02458501 3.43896376 -0.03725002 C4.68434321 -0.02529631 5.92972266 -0.0133426 7.21284088 -0.00102665 C8.55773023 -0.00598348 9.90261297 -0.01313255 11.24748039 -0.02227388 C14.96486687 -0.04112755 18.68160287 -0.0286541 22.39897273 -0.01132413 C26.44995044 0.0020561 30.50083223 -0.01355929 34.55180004 -0.02550837 C41.68620238 -0.04251352 48.82041403 -0.04079033 55.95482066 -0.02709065 C66.63526442 -0.0066741 77.31555271 -0.01498419 87.99599989 -0.02900386 C106.19583289 -0.05204269 124.39559614 -0.05123501 142.59543547 -0.03759947 C161.04745971 -0.02385904 179.499438 -0.02092871 197.95146498 -0.03128614 C199.1154831 -0.03193201 200.27950123 -0.03257787 201.47879262 -0.0332433 C206.21939885 -0.03590956 210.96000503 -0.03865308 215.70061116 -0.04149468 C259.8910424 -0.06796463 304.08144283 -0.06972462 348.27187857 -0.05575743 C349.58226585 -0.05534345 350.89265313 -0.05492947 352.24274911 -0.05450295 C354.21145669 -0.05388098 354.21145669 -0.05388098 356.21993615 -0.05324644 C364.20728646 -0.05072629 372.19463678 -0.04826375 380.18198714 -0.04590835 C380.84319195 -0.04571255 381.50439676 -0.04551674 382.18563808 -0.04531501 C412.80746585 -0.03631431 443.42929029 -0.03844928 474.05111894 -0.04306063 C477.3903287 -0.04355962 480.72953846 -0.04403711 484.06874822 -0.04451701 C494.13319026 -0.04596992 504.1976323 -0.04745462 514.26207432 -0.049005 C544.95396889 -0.05372798 575.64586349 -0.05672895 606.33775839 -0.05824652 C607.02117695 -0.05828086 607.70459551 -0.0583152 608.40872373 -0.05835058 C652.67805462 -0.06054476 696.94738093 -0.05503806 741.21671042 -0.04399862 C741.92358578 -0.04382303 742.63046113 -0.04364744 743.35875695 -0.04346653 C767.03661624 -0.03758454 790.71447542 -0.03130432 814.39233459 -0.02498337 C885.99822639 -0.00588073 957.60410182 0.00458708 1085.48186199 -0.02556003 C1109.15369639 -0.03187594 1132.82553081 -0.03811842 1156.49736533 -0.04399862 C1157.20404074 -0.04417484 1157.91071615 -0.04435107 1158.63880596 -0.04453263 C1202.8846437 -0.0555568 1247.13047826 -0.0604699 1291.37631735 -0.05824652 C1292.05951085 -0.05821274 1292.74270435 -0.05817895 1293.44660068 -0.05814415 C1324.12136797 -0.05661064 1354.79613493 -0.05341932 1385.47090189 -0.048694 C1395.53094482 -0.04714621 1405.59098776 -0.04567454 1415.65103071 -0.04422876 C1418.98831572 -0.0437488 1422.32560073 -0.04326203 1425.66288574 -0.04275946 C1456.28595542 -0.03817838 1486.90901998 -0.03683983 1517.53208861 -0.04590835 C1518.52326882 -0.04620064 1518.52326882 -0.04620064 1519.53447287 -0.04649884 C1528.18009083 -0.04905792 1536.82570873 -0.05177155 1545.47132664 -0.05450295 C1546.78171391 -0.05491693 1548.09210119 -0.0553309 1549.44219717 -0.05575743 C1551.40417101 -0.05637754 1551.40417101 -0.05637754 1553.40578069 -0.05701019 C1597.4656107 -0.07078381 1641.5254037 -0.06576391 1685.58522841 -0.03935371 C1690.31102249 -0.03659178 1695.03681661 -0.03390828 1699.76261076 -0.03128614 C1700.92244418 -0.03063511 1702.08227759 -0.02998407 1703.27725747 -0.02931331 C1721.68412051 -0.01942969 1740.09093773 -0.02634053 1758.49779665 -0.04013117 C1776.57256745 -0.05331851 1794.6472605 -0.04878652 1812.72202137 -0.02506073 C1823.33475559 -0.0116633 1833.94727728 -0.01208987 1844.5600016 -0.03246872 C1851.59412232 -0.04462201 1858.62807637 -0.03888282 1865.66217675 -0.01813445 C1869.65882865 -0.00685813 1873.65505512 -0.00358517 1877.65168907 -0.02221704 C1881.27341725 -0.03895653 1884.89434791 -0.03296076 1888.51602463 -0.0083435 C1890.43573156 -0.00126808 1892.35548044 -0.01882453 1894.27511198 -0.03725002 C1895.97739904 -0.01881126 1895.97739904 -0.01881126 1897.71407574 0 C1899.17916864 0.00020976 1899.17916864 0.00020976 1900.67385936 0.00042375 C1903.35703787 0.62571917 1903.35703787 0.62571917 1908.35703787 5.62571917 C1908.35703787 14.53571917 1908.35703787 23.44571917 1908.35703787 32.62571917 C1275.08703787 32.62571917 641.81703787 32.62571917 -10.64296213 32.62571917 C-10.64296213 0.00152374 -10.64296213 0.00152374 0 0 Z " fill="#E7E7E7" transform="translate(110.64296212792397,74.37428083270788)"/>
<path d="M0 0 C1.65902344 0.02900391 1.65902344 0.02900391 3.3515625 0.05859375 C17.88106296 0.70478447 29.46783572 6.73623377 41 15 C41.8559375 15.61230469 42.711875 16.22460938 43.59375 16.85546875 C61.72421446 30.42227178 71.86393764 49.1618476 75.5625 71.37890625 C78.27163818 93.80186245 71.91299278 115.40646197 58.0625 133.1875 C51.27233609 141.3842892 44.26911072 147.58481392 35 153 C34.34 153 33.68 153 33 153 C33 153.66 33 154.32 33 155 C21.28125 159.39453125 21.28125 159.39453125 19.10058594 160.19140625 C17.17238464 160.93364273 15.29296121 161.79947559 13.421875 162.67578125 C7.76917327 164.78513299 1.76660818 164.44637556 -4.18896484 164.39111328 C-6.23213613 164.37513966 -8.27329795 164.39096058 -10.31640625 164.41015625 C-21.73277225 164.4308282 -31.91619652 162.64175152 -42.0625 157.3125 C-42.73587402 156.96727295 -43.40924805 156.6220459 -44.10302734 156.26635742 C-50.16021255 153.07756764 -55.66886381 149.29405021 -61 145 C-62.485 143.824375 -62.485 143.824375 -64 142.625 C-75.52244551 132.54286018 -84.32216514 116.84960391 -88 102 C-88.20238281 101.23558594 -88.40476562 100.47117187 -88.61328125 99.68359375 C-93.35779953 78.54305313 -88.88681058 56.76488352 -77.75 38.375 C-74.02001918 32.74759415 -69.65437142 27.87202189 -65 23 C-64.44828125 22.37351562 -63.8965625 21.74703125 -63.328125 21.1015625 C-46.99567653 3.23289363 -22.90429611 -0.7885428 0 0 Z " fill="#F9AF24" transform="translate(1064,568)"/>
<path d="M0 0 C1.76644363 -0.01691895 1.76644363 -0.01691895 3.568573 -0.03417969 C4.85184479 -0.02608276 6.13511658 -0.01798584 7.45727539 -0.00964355 C8.82920067 -0.01506666 10.20112011 -0.02219039 11.57302856 -0.03088379 C15.29210348 -0.04909806 19.01073388 -0.04205776 22.72981644 -0.02936745 C26.62457718 -0.01922982 30.51930024 -0.02863524 34.4140625 -0.03491211 C40.95425235 -0.04218632 47.49426143 -0.03260686 54.03442383 -0.0135498 C61.5923114 0.00821864 69.14976734 0.0011671 76.70764446 -0.02085543 C83.20037623 -0.03901599 89.69297816 -0.04156459 96.18572712 -0.03110075 C100.06194953 -0.02486937 103.93796914 -0.02402024 107.81417847 -0.0372467 C111.4587102 -0.0488143 115.10268625 -0.04076368 118.74715805 -0.01766968 C120.72019439 -0.00987043 122.6932778 -0.02173078 124.66629028 -0.03417969 C126.43273392 -0.01726074 126.43273392 -0.01726074 128.23486328 0 C129.76682091 0.00226215 129.76682091 0.00226215 131.32972717 0.00457001 C134.863765 0.64269698 136.56103135 2.03508229 139.11743164 4.50793457 C139.75234985 6.63244629 139.75234985 6.63244629 139.7644043 8.93762207 C139.7801651 9.80532227 139.7959259 10.67302246 139.81216431 11.5670166 C139.80204315 12.49626953 139.791922 13.42552246 139.78149414 14.38293457 C139.78627777 15.34441406 139.7910614 16.30589355 139.79598999 17.29650879 C139.79938918 19.32728717 139.79018543 21.35812025 139.76928711 23.38879395 C139.74252185 26.49745681 139.76903429 29.60250902 139.80102539 32.71105957 C139.7977213 34.68502587 139.79131507 36.65898993 139.78149414 38.63293457 C139.7916153 39.5621875 139.80173645 40.49144043 139.81216431 41.44885254 C139.7885231 42.75040283 139.7885231 42.75040283 139.7644043 44.07824707 C139.76042633 44.83895508 139.75644836 45.59966309 139.75234985 46.38342285 C138.78570142 49.61794327 136.87512577 50.65616577 134.11743164 52.50793457 C131.32972717 53.01129913 131.32972717 53.01129913 128.23486328 53.01586914 C127.05723419 53.02714844 125.8796051 53.03842773 124.66629028 53.05004883 C123.38301849 53.0419519 122.0997467 53.03385498 120.77758789 53.0255127 C119.40566262 53.0309358 118.03374317 53.03805953 116.66183472 53.04675293 C112.9427598 53.0649672 109.2241294 53.0579269 105.50504684 53.04523659 C101.6102861 53.03509896 97.71556304 53.04450438 93.82080078 53.05078125 C87.28061093 53.05805546 80.74060185 53.048476 74.20043945 53.02941895 C66.64255188 53.0076505 59.08509594 53.01470204 51.52721882 53.03672457 C45.03448706 53.05488513 38.54188512 53.05743373 32.04913616 53.04696989 C28.17291376 53.04073851 24.29689414 53.03988938 20.42068481 53.05311584 C16.77615308 53.06468344 13.13217703 53.05663282 9.48770523 53.03353882 C7.51466889 53.02573957 5.54158548 53.03759992 3.568573 53.05004883 C2.39094391 53.03876953 1.21331482 53.02749023 0 53.01586914 C-1.53195763 53.01360699 -1.53195763 53.01360699 -3.09486389 53.01129913 C-6.62890172 52.37317216 -8.32616807 50.98078685 -10.88256836 48.50793457 C-11.51748657 46.38342285 -11.51748657 46.38342285 -11.52954102 44.07824707 C-11.54530182 43.21054687 -11.56106262 42.34284668 -11.57730103 41.44885254 C-11.56211929 40.05497314 -11.56211929 40.05497314 -11.54663086 38.63293457 C-11.55141449 37.67145508 -11.55619812 36.70997559 -11.56112671 35.71936035 C-11.5645259 33.68858197 -11.55532215 31.65774889 -11.53442383 29.6270752 C-11.50765857 26.51841233 -11.53417101 23.41336012 -11.56616211 20.30480957 C-11.56285801 18.33084327 -11.55645179 16.35687921 -11.54663086 14.38293457 C-11.55675201 13.45368164 -11.56687317 12.52442871 -11.57730103 11.5670166 C-11.56154022 10.69931641 -11.54577942 9.83161621 -11.52954102 8.93762207 C-11.52556305 8.17691406 -11.52158508 7.41620605 -11.51748657 6.63244629 C-9.90064313 1.22229618 -5.08600448 0.00751021 0 0 Z " fill="#474FE0" transform="translate(883.882568359375,807.4920654296875)"/>
<path d="M0 0 C1.2114267 -0.00845947 2.42285339 -0.01691895 3.67098999 -0.02563477 C5.01544323 -0.01980171 6.35989516 -0.01365719 7.7043457 -0.00723267 C9.11862595 -0.01129724 10.53290303 -0.01663849 11.94717407 -0.02316284 C15.79012949 -0.03685594 19.63284367 -0.03152968 23.47580338 -0.02202559 C27.49429228 -0.01443926 31.5127603 -0.02147173 35.53125 -0.02618408 C42.28006709 -0.03164464 49.02878574 -0.02444218 55.77758789 -0.01016235 C63.58420672 0.00616478 71.39059051 0.00087648 79.19720364 -0.01564157 C85.89536523 -0.02924792 92.59345599 -0.03118029 99.29162693 -0.02332556 C103.29409705 -0.01864434 107.29645663 -0.01803646 111.29891968 -0.02793503 C115.06151731 -0.0365901 118.82381141 -0.03060983 122.58637619 -0.01325226 C123.96868765 -0.00927956 125.35102457 -0.01043485 126.73332596 -0.01704025 C128.61729277 -0.02521405 130.50131529 -0.01315567 132.38525391 0 C133.44049759 0.00113108 134.49574127 0.00226215 135.58296204 0.00342751 C138.19262695 0.38095093 138.19262695 0.38095093 140.03177834 1.77907372 C141.54338369 3.86496685 141.57282038 5.14884749 141.58081055 7.71298218 C141.59026703 8.5839856 141.59972351 9.45498901 141.60946655 10.35238647 C141.60035751 11.75871338 141.60035751 11.75871338 141.59106445 13.19345093 C141.59536972 14.6413501 141.59536972 14.6413501 141.59976196 16.11849976 C141.60180356 18.15943997 141.59626702 20.2003997 141.58374023 22.24130249 C141.56768816 25.36902533 141.58358591 28.49545588 141.6027832 31.62313843 C141.60080079 33.60491212 141.59695715 35.58668501 141.59106445 37.56845093 C141.59713715 38.5060022 141.60320984 39.44355347 141.60946655 40.40951538 C141.59528183 41.71602051 141.59528183 41.71602051 141.58081055 43.04891968 C141.57842377 43.8148645 141.57603699 44.58080933 141.57357788 45.3699646 C141.0718728 48.01839511 140.33389987 48.75315536 138.19262695 50.38095093 C135.58296204 50.75847435 135.58296204 50.75847435 132.38525391 50.76190186 C131.17382721 50.77036133 129.96240051 50.7788208 128.71426392 50.78753662 C127.36981067 50.78170357 126.02535875 50.77555905 124.6809082 50.76913452 C123.26662795 50.7731991 121.85235088 50.77854034 120.43807983 50.7850647 C116.59512442 50.7987578 112.75241024 50.79343154 108.90945053 50.78392744 C104.89096163 50.77634112 100.87249361 50.78337359 96.85400391 50.78808594 C90.10518682 50.7935465 83.35646816 50.78634404 76.60766602 50.77206421 C68.80104719 50.75573707 60.9946634 50.76102537 53.18805027 50.77754343 C46.48988868 50.79114977 39.79179792 50.79308214 33.09362698 50.78522742 C29.09115686 50.78054619 25.08879728 50.77993831 21.08633423 50.78983688 C17.3237366 50.79849196 13.5614425 50.79251169 9.79887772 50.77515411 C8.41656626 50.77118141 7.03422933 50.77233671 5.65192795 50.77894211 C3.76796113 50.7871159 1.88393861 50.77505752 0 50.76190186 C-1.58286552 50.76020524 -1.58286552 50.76020524 -3.19770813 50.75847435 C-5.80737305 50.38095093 -5.80737305 50.38095093 -7.64652443 48.98282814 C-9.15812978 46.896935 -9.18756648 45.61305437 -9.19555664 43.04891968 C-9.20501312 42.17791626 -9.2144696 41.30691284 -9.22421265 40.40951538 C-9.21813995 39.47196411 -9.21206726 38.53441284 -9.20581055 37.56845093 C-9.20868073 36.60318481 -9.2115509 35.6379187 -9.21450806 34.6434021 C-9.21654966 32.60246189 -9.21101312 30.56150215 -9.19848633 28.52059937 C-9.18243425 25.39287653 -9.198332 22.26644597 -9.2175293 19.13876343 C-9.21554688 17.15698974 -9.21170324 15.17521685 -9.20581055 13.19345093 C-9.21188324 12.25589966 -9.21795593 11.31834839 -9.22421265 10.35238647 C-9.21475616 9.48138306 -9.20529968 8.61037964 -9.19555664 7.71298218 C-9.19316986 6.94703735 -9.19078308 6.18109253 -9.18832397 5.39193726 C-8.21269999 0.24175558 -4.63032601 0.00496308 0 0 Z " fill="#FAFAFE" transform="translate(1106.807373046875,808.6190490722656)"/>
<path d="M0 0 C8.73638168 3.97056986 13.71966613 16.92826764 16.97265625 25.58984375 C22.23096633 43.02786742 19.57721105 62.13600397 11.38549805 78.11450195 C1.83689361 95.69150326 -12.86824864 104.95418489 -31 112 C-31.98226563 112.38800781 -32.96453125 112.77601563 -33.9765625 113.17578125 C-37.66402546 114.18101986 -41.14676499 114.29962037 -44.9375 114.25 C-45.67460205 114.24468262 -46.4117041 114.23936523 -47.17114258 114.23388672 C-56.62820838 114.07402619 -66.0576508 113.22955859 -75 110 C-75 109.34 -75 108.68 -75 108 C-75.87269531 107.90460938 -76.74539063 107.80921875 -77.64453125 107.7109375 C-81.31969161 106.93226557 -83.56712818 105.68783995 -86.6875 103.625 C-87.61949219 103.01914062 -88.55148437 102.41328125 -89.51171875 101.7890625 C-91.57469033 100.30579565 -93.28946569 98.86499728 -95 97 C-93.63772278 93.94827123 -92.10436994 91.86290906 -89.73120117 89.52001953 C-89.06678513 88.85898224 -88.40236908 88.19794495 -87.71781921 87.51687622 C-87.00011856 86.81263519 -86.28241791 86.10839417 -85.54296875 85.3828125 C-84.43300285 84.28064896 -84.43300285 84.28064896 -83.3006134 83.15621948 C-80.93427288 80.807682 -78.56137083 78.46592379 -76.1875 76.125 C-73.82518599 73.79039288 -71.464374 71.45431718 -69.10652161 69.11520386 C-67.64014764 67.66098631 -66.17110864 66.20944961 -64.69902039 64.76101685 C-56.94373217 57.28350507 -56.94373217 57.28350507 -51.875 47.9375 C-50.54900109 44.36377122 -49.12639665 41.18959498 -47 38 C-46.49617455 40.01080335 -45.99458108 42.02205668 -45.5 44.03515625 C-45.2525 45.03869141 -45.2525 45.03869141 -45 46.0625 C-44.7525 47.06990234 -44.7525 47.06990234 -44.5 48.09765625 C-44.06559822 49.75041926 -43.54040082 51.37879754 -43 53 C-45.31 53 -47.62 53 -50 53 C-49.67 51.68 -49.34 50.36 -49 49 C-49.25394531 49.56589844 -49.50789063 50.13179687 -49.76953125 50.71484375 C-50.11371094 51.44832031 -50.45789062 52.18179688 -50.8125 52.9375 C-51.14894531 53.66839844 -51.48539063 54.39929688 -51.83203125 55.15234375 C-53 57 -53 57 -56 58 C-56 58.66 -56 59.32 -56 60 C-53.69 60 -51.38 60 -49 60 C-49 59.34 -49 58.68 -49 58 C-49.99 57.67 -50.98 57.34 -52 57 C-51.505 56.01 -51.505 56.01 -51 55 C-48.03 55 -45.06 55 -42 55 C-41.67 55.99 -41.34 56.98 -41 58 C-41.66 58 -42.32 58 -43 58 C-43 58.66 -43 59.32 -43 60 C-39.7 60 -36.4 60 -33 60 C-33 59.34 -33 58.68 -33 58 C-33.99 57.67 -34.98 57.34 -36 57 C-37.640625 54.41796875 -37.640625 54.41796875 -39.25 51.1875 C-39.79140625 50.12917969 -40.3328125 49.07085938 -40.890625 47.98046875 C-42.08924451 44.76023393 -42.20500383 44.08403776 -41 41 C-39.32322693 38.96246338 -39.32322693 38.96246338 -37.12280273 36.78222656 C-35.89163979 35.5514035 -35.89163979 35.5514035 -34.63560486 34.29571533 C-33.74394119 33.41953552 -32.85227753 32.54335571 -31.93359375 31.640625 C-31.02497086 30.73624695 -30.11634796 29.8318689 -29.18019104 28.90008545 C-26.76846236 26.49979247 -24.34785998 24.10864631 -21.92529297 21.71929932 C-19.45323168 19.27796639 -16.98967695 16.82808261 -14.52539062 14.37890625 C-9.69188105 9.57753826 -4.84894227 4.78578051 0 0 Z " fill="#F8A201" transform="translate(1106,604)"/>
<path d="M0 0 C1.65902344 0.02900391 1.65902344 0.02900391 3.3515625 0.05859375 C17.88106296 0.70478447 29.46783572 6.73623377 41 15 C41.8559375 15.61230469 42.711875 16.22460938 43.59375 16.85546875 C61.72421446 30.42227178 71.86393764 49.1618476 75.5625 71.37890625 C78.27163818 93.80186245 71.91299278 115.40646197 58.0625 133.1875 C51.27233609 141.3842892 44.26911072 147.58481392 35 153 C34.34 153 33.68 153 33 153 C33 153.66 33 154.32 33 155 C21.28125 159.39453125 21.28125 159.39453125 19.10058594 160.19140625 C17.17238464 160.93364273 15.29296121 161.79947559 13.421875 162.67578125 C7.76917327 164.78513299 1.76660818 164.44637556 -4.18896484 164.39111328 C-6.23213613 164.37513966 -8.27329795 164.39096058 -10.31640625 164.41015625 C-21.73277225 164.4308282 -31.91619652 162.64175152 -42.0625 157.3125 C-42.73587402 156.96727295 -43.40924805 156.6220459 -44.10302734 156.26635742 C-50.16021255 153.07756764 -55.66886381 149.29405021 -61 145 C-62.485 143.824375 -62.485 143.824375 -64 142.625 C-75.52244551 132.54286018 -84.32216514 116.84960391 -88 102 C-88.20238281 101.23558594 -88.40476562 100.47117187 -88.61328125 99.68359375 C-93.35779953 78.54305313 -88.88681058 56.76488352 -77.75 38.375 C-74.02001918 32.74759415 -69.65437142 27.87202189 -65 23 C-64.44828125 22.37351562 -63.8965625 21.74703125 -63.328125 21.1015625 C-46.99567653 3.23289363 -22.90429611 -0.7885428 0 0 Z M-20 14 C-20 14.66 -20 15.32 -20 16 C-21.134375 16.103125 -22.26875 16.20625 -23.4375 16.3125 C-39.09399527 18.34866986 -51.36391587 28.0512667 -61.36328125 39.76953125 C-70.68444308 52.03976123 -75.6015241 65.77297757 -75.5 81.1875 C-75.49572998 82.18418701 -75.49145996 83.18087402 -75.48706055 84.20776367 C-75.28266117 93.18472445 -73.44944568 100.75754003 -70 109 C-69.61585938 109.93972656 -69.23171875 110.87945313 -68.8359375 111.84765625 C-65.88844716 118.3341401 -61.67654895 123.66567056 -57 129 C-56.44441406 129.639375 -55.88882813 130.27875 -55.31640625 130.9375 C-49.29761488 137.4037315 -41.9188585 142.97845674 -33 144 C-33 144.66 -33 145.32 -33 146 C-23.398077 149.46776582 -13.20545403 150.17556956 -3.0625 150.3125 C-2.37760498 150.33006348 -1.69270996 150.34762695 -0.98706055 150.36572266 C4.28828554 150.35932907 8.24772032 149.03232917 13 147 C14.27420435 146.50772693 15.54894103 146.01682943 16.82421875 145.52734375 C35.52780124 137.97793254 48.59913879 125.96897163 56.86499023 107.43554688 C63.37950737 91.86631097 63.20237616 72.64077467 57 57 C50.93019867 42.41811042 41.00782346 30.61242876 27 23 C26.34 23 25.68 23 25 23 C25 22.34 25 21.68 25 21 C22.10538781 20.0170943 19.20941921 19.03856299 16.3125 18.0625 C15.49587891 17.78470703 14.67925781 17.50691406 13.83789062 17.22070312 C13.04189453 16.95322266 12.24589844 16.68574219 11.42578125 16.41015625 C10.33390503 16.04096069 10.33390503 16.04096069 9.2199707 15.66430664 C4.99244514 14.39925693 1.10957878 13.87655217 -3.30078125 13.90234375 C-4.27724609 13.90556641 -5.25371094 13.90878906 -6.25976562 13.91210938 C-7.77086914 13.92467773 -7.77086914 13.92467773 -9.3125 13.9375 C-10.33923828 13.94201172 -11.36597656 13.94652344 -12.42382812 13.95117188 C-14.94927882 13.96291816 -17.47460905 13.97934435 -20 14 Z " fill="#FEE167" transform="translate(1064,568)"/>
<path d="M0 0 C7.72177705 2.98738434 12.85030514 13.19429785 16.3125 20.3125 C26.24940216 43.25018248 26.00059875 65.53354711 17.375 88.71484375 C10.56618563 104.98249399 -1.89836017 118.17734244 -17 127 C-17.66 127 -18.32 127 -19 127 C-19 127.66 -19 128.32 -19 129 C-30.71875 133.39453125 -30.71875 133.39453125 -32.89941406 134.19140625 C-34.82761536 134.93364273 -36.70703879 135.79947559 -38.578125 136.67578125 C-44.23082673 138.78513299 -50.23339182 138.44637556 -56.18896484 138.39111328 C-58.23213613 138.37513966 -60.27329795 138.39096058 -62.31640625 138.41015625 C-73.7320252 138.43082685 -83.91713398 136.64271313 -94.0625 131.3125 C-94.73297363 130.96799805 -95.40344727 130.62349609 -96.09423828 130.26855469 C-112.29152215 121.72654937 -112.29152215 121.72654937 -115 115 C-114.51789062 114.52949219 -114.03578125 114.05898438 -113.5390625 113.57421875 C-112.59160156 112.64029297 -112.59160156 112.64029297 -111.625 111.6875 C-110.68527344 110.76517578 -110.68527344 110.76517578 -109.7265625 109.82421875 C-107.81913393 107.91187472 -107.81913393 107.91187472 -106 105 C-105.52691406 105.44730469 -105.05382812 105.89460937 -104.56640625 106.35546875 C-98.83289376 111.59721798 -92.74716929 116.35983353 -85 118 C-85 118.66 -85 119.32 -85 120 C-61.71800419 124.35386057 -61.71800419 124.35386057 -39 120 C-37.72561505 119.50819465 -36.45087818 119.01730019 -35.17578125 118.52734375 C-16.8965446 111.14781827 -4.38036647 99.72387951 3.81420898 81.48632812 C10.39544849 65.93391391 10.21596513 46.64575742 4 31 C0.67872593 23.14188469 -3.46527486 16.48447087 -9 10 C-8.06409496 8.8944811 -7.12620142 7.79064547 -6.1875 6.6875 C-5.66542969 6.07261719 -5.14335938 5.45773437 -4.60546875 4.82421875 C-3.12827531 3.14575321 -1.59960869 1.56117966 0 0 Z " fill="#FEDD52" transform="translate(1116,594)"/>
<path d="M0 0 C7.53010559 2.8999969 11.64653923 13.48760444 14.93359375 20.44140625 C21.20658949 35.49200042 21.32574552 54.75861488 15.23388672 69.90478516 C6.90919834 89.40443723 -6.40026451 101.74965322 -25.90625 110.00390625 C-28.83376561 110.94647756 -30.95622837 111.22146846 -34 111 C-31.46798464 108.46798464 -28.89289529 107.53774191 -25.625 106.0625 C-10.09113163 98.63964502 0.83301388 84.91082419 7 69 C13.01533398 48.87828424 10.28772055 30.19120309 0.68359375 11.98828125 C-0.83323943 9.29599034 -2.39008741 6.63751638 -4 4 C-2.68 2.68 -1.36 1.36 0 0 Z " fill="#F69001" transform="translate(1106,604)"/>
<path d="M0 0 C1.2114267 -0.00845947 2.42285339 -0.01691895 3.67098999 -0.02563477 C5.01544323 -0.01980171 6.35989516 -0.01365719 7.7043457 -0.00723267 C9.11862595 -0.01129724 10.53290303 -0.01663849 11.94717407 -0.02316284 C15.79012949 -0.03685594 19.63284367 -0.03152968 23.47580338 -0.02202559 C27.49429228 -0.01443926 31.5127603 -0.02147173 35.53125 -0.02618408 C42.28006709 -0.03164464 49.02878574 -0.02444218 55.77758789 -0.01016235 C63.58420672 0.00616478 71.39059051 0.00087648 79.19720364 -0.01564157 C85.89536523 -0.02924792 92.59345599 -0.03118029 99.29162693 -0.02332556 C103.29409705 -0.01864434 107.29645663 -0.01803646 111.29891968 -0.02793503 C115.06151731 -0.0365901 118.82381141 -0.03060983 122.58637619 -0.01325226 C123.96868765 -0.00927956 125.35102457 -0.01043485 126.73332596 -0.01704025 C128.61729277 -0.02521405 130.50131529 -0.01315567 132.38525391 0 C133.44049759 0.00113108 134.49574127 0.00226215 135.58296204 0.00342751 C138.19262695 0.38095093 138.19262695 0.38095093 140.03177834 1.77907372 C141.54338369 3.86496685 141.57282038 5.14884749 141.58081055 7.71298218 C141.59026703 8.5839856 141.59972351 9.45498901 141.60946655 10.35238647 C141.60035751 11.75871338 141.60035751 11.75871338 141.59106445 13.19345093 C141.59536972 14.6413501 141.59536972 14.6413501 141.59976196 16.11849976 C141.60180356 18.15943997 141.59626702 20.2003997 141.58374023 22.24130249 C141.56768816 25.36902533 141.58358591 28.49545588 141.6027832 31.62313843 C141.60080079 33.60491212 141.59695715 35.58668501 141.59106445 37.56845093 C141.59713715 38.5060022 141.60320984 39.44355347 141.60946655 40.40951538 C141.59528183 41.71602051 141.59528183 41.71602051 141.58081055 43.04891968 C141.57842377 43.8148645 141.57603699 44.58080933 141.57357788 45.3699646 C141.0718728 48.01839511 140.33389987 48.75315536 138.19262695 50.38095093 C135.58296204 50.75847435 135.58296204 50.75847435 132.38525391 50.76190186 C131.17382721 50.77036133 129.96240051 50.7788208 128.71426392 50.78753662 C127.36981067 50.78170357 126.02535875 50.77555905 124.6809082 50.76913452 C123.26662795 50.7731991 121.85235088 50.77854034 120.43807983 50.7850647 C116.59512442 50.7987578 112.75241024 50.79343154 108.90945053 50.78392744 C104.89096163 50.77634112 100.87249361 50.78337359 96.85400391 50.78808594 C90.10518682 50.7935465 83.35646816 50.78634404 76.60766602 50.77206421 C68.80104719 50.75573707 60.9946634 50.76102537 53.18805027 50.77754343 C46.48988868 50.79114977 39.79179792 50.79308214 33.09362698 50.78522742 C29.09115686 50.78054619 25.08879728 50.77993831 21.08633423 50.78983688 C17.3237366 50.79849196 13.5614425 50.79251169 9.79887772 50.77515411 C8.41656626 50.77118141 7.03422933 50.77233671 5.65192795 50.77894211 C3.76796113 50.7871159 1.88393861 50.77505752 0 50.76190186 C-1.58286552 50.76020524 -1.58286552 50.76020524 -3.19770813 50.75847435 C-5.80737305 50.38095093 -5.80737305 50.38095093 -7.64652443 48.98282814 C-9.15812978 46.896935 -9.18756648 45.61305437 -9.19555664 43.04891968 C-9.20501312 42.17791626 -9.2144696 41.30691284 -9.22421265 40.40951538 C-9.21813995 39.47196411 -9.21206726 38.53441284 -9.20581055 37.56845093 C-9.20868073 36.60318481 -9.2115509 35.6379187 -9.21450806 34.6434021 C-9.21654966 32.60246189 -9.21101312 30.56150215 -9.19848633 28.52059937 C-9.18243425 25.39287653 -9.198332 22.26644597 -9.2175293 19.13876343 C-9.21554688 17.15698974 -9.21170324 15.17521685 -9.20581055 13.19345093 C-9.21188324 12.25589966 -9.21795593 11.31834839 -9.22421265 10.35238647 C-9.21475616 9.48138306 -9.20529968 8.61037964 -9.19555664 7.71298218 C-9.19316986 6.94703735 -9.19078308 6.18109253 -9.18832397 5.39193726 C-8.21269999 0.24175558 -4.63032601 0.00496308 0 0 Z M-5.80737305 4.38095093 C-6.11198333 6.26394216 -6.11198333 6.26394216 -6.06616211 8.43173218 C-6.07246643 9.26599731 -6.07877075 10.10026245 -6.08526611 10.95980835 C-6.08121765 11.8619104 -6.07716919 12.76401245 -6.07299805 13.69345093 C-6.0749115 14.61811157 -6.07682495 15.54277222 -6.07879639 16.49545288 C-6.08015871 18.45240552 -6.07645901 20.40936717 -6.06811523 22.36630249 C-6.05741639 25.36878682 -6.06800896 28.37067279 -6.08081055 31.37313843 C-6.07948896 33.27157725 -6.07692659 35.17001571 -6.07299805 37.06845093 C-6.07704651 37.97055298 -6.08109497 38.87265503 -6.08526611 39.80209351 C-6.07896179 40.63635864 -6.07265747 41.47062378 -6.06616211 42.33016968 C-6.06457092 43.06582153 -6.06297974 43.80147339 -6.06134033 44.55941772 C-5.95902335 46.63109307 -5.95902335 46.63109307 -3.80737305 48.38095093 C-1.27068543 48.68588802 -1.27068543 48.68588802 1.73461914 48.63491821 C2.91245972 48.64055786 4.09030029 48.64619751 5.30383301 48.65200806 C7.25198914 48.64593536 7.25198914 48.64593536 9.23950195 48.63973999 C10.61584661 48.6424489 11.99218982 48.64600927 13.36853027 48.65036011 C17.11226437 48.65949829 20.85588855 48.65593402 24.59962463 48.64960194 C28.51181339 48.64454931 32.42399253 48.64923133 36.33618164 48.65237427 C42.9068369 48.65601607 49.47744725 48.65120921 56.0480957 48.64169312 C63.65188064 48.63080814 71.25555833 48.63433357 78.85934067 48.64534593 C85.37996211 48.65441272 91.90055121 48.65570707 98.42117691 48.65046859 C102.31909188 48.64734553 106.2169564 48.64694871 110.11486816 48.65354156 C113.77889544 48.65930559 117.44278402 48.65533558 121.10679626 48.64375305 C123.09833585 48.63983331 125.08988713 48.64580015 127.0814209 48.65200806 C128.84818176 48.64354858 128.84818176 48.64354858 130.65063477 48.63491821 C132.19258514 48.63378714 132.19258514 48.63378714 133.76568604 48.63263321 C136.3739653 48.61987699 136.3739653 48.61987699 138.19262695 46.38095093 C138.49723724 44.4979597 138.49723724 44.4979597 138.45141602 42.33016968 C138.4608725 41.07877197 138.4608725 41.07877197 138.47052002 39.80209351 C138.46647156 38.89999146 138.4624231 37.9978894 138.45825195 37.06845093 C138.46112213 35.68145996 138.46112213 35.68145996 138.46405029 34.26644897 C138.46541261 32.30949634 138.46171291 30.35253469 138.45336914 28.39559937 C138.4426703 25.39311503 138.45326286 22.39122906 138.46606445 19.38876343 C138.46474287 17.4903246 138.46218049 15.59188615 138.45825195 13.69345093 C138.46432465 12.34029785 138.46432465 12.34029785 138.47052002 10.95980835 C138.4642157 10.12554321 138.45791138 9.29127808 138.45141602 8.43173218 C138.44982483 7.69608032 138.44823364 6.96042847 138.44659424 6.20248413 C138.34427726 4.13080879 138.34427726 4.13080879 136.19262695 2.38095093 C133.65593934 2.07601384 133.65593934 2.07601384 130.65063477 2.12698364 C129.47279419 2.12134399 128.29495361 2.11570435 127.0814209 2.1098938 C125.78265015 2.11394226 124.48387939 2.11799072 123.14575195 2.12216187 C121.76940729 2.11945295 120.39306408 2.11589258 119.01672363 2.11154175 C115.27298954 2.10240357 111.52936535 2.10596784 107.78562927 2.11229992 C103.87344052 2.11735255 99.96126137 2.11267053 96.04907227 2.10952759 C89.478417 2.10588578 82.90780665 2.11069264 76.3371582 2.12020874 C68.73337327 2.13109372 61.12969557 2.12756829 53.52591324 2.11655593 C47.0052918 2.10748914 40.4847027 2.10619479 33.964077 2.11143327 C30.06616202 2.11455633 26.1682975 2.11495314 22.27038574 2.10836029 C18.60635847 2.10259626 14.94246988 2.10656627 11.27845764 2.1181488 C9.28691805 2.12206854 7.29536678 2.11610171 5.30383301 2.1098938 C3.53707214 2.11835327 3.53707214 2.11835327 1.73461914 2.12698364 C0.19266876 2.12811472 0.19266876 2.12811472 -1.38043213 2.12926865 C-3.9887114 2.14202486 -3.9887114 2.14202486 -5.80737305 4.38095093 Z " fill="#434BE0" transform="translate(1106.807373046875,808.6190490722656)"/>
<path d="M0 0 C1.58206057 0.00667536 3.16410534 0.0186375 4.74609375 0.03515625 C5.55240234 0.03966797 6.35871094 0.04417969 7.18945312 0.04882812 C9.18753131 0.06065107 11.18557158 0.07858711 13.18359375 0.09765625 C13.18359375 2.40765625 13.18359375 4.71765625 13.18359375 7.09765625 C12.52359375 6.43765625 11.86359375 5.77765625 11.18359375 5.09765625 C11.18359375 4.10765625 11.18359375 3.11765625 11.18359375 2.09765625 C8.87359375 2.09765625 6.56359375 2.09765625 4.18359375 2.09765625 C4.18359375 8.03765625 4.18359375 13.97765625 4.18359375 20.09765625 C6.82359375 20.09765625 9.46359375 20.09765625 12.18359375 20.09765625 C12.84359375 18.44765625 13.50359375 16.79765625 14.18359375 15.09765625 C15.1178302 18.10797369 15.22809286 18.96415893 14.18359375 22.09765625 C8.24359375 22.09765625 2.30359375 22.09765625 -3.81640625 22.09765625 C-3.81640625 21.43765625 -3.81640625 20.77765625 -3.81640625 20.09765625 C-2.82640625 20.09765625 -1.83640625 20.09765625 -0.81640625 20.09765625 C-0.81640625 14.15765625 -0.81640625 8.21765625 -0.81640625 2.09765625 C-1.47640625 2.09765625 -2.13640625 2.09765625 -2.81640625 2.09765625 C-2.79320312 3.20625 -2.77 4.31484375 -2.74609375 5.45703125 C-2.72733048 6.92056617 -2.70913088 8.38410839 -2.69140625 9.84765625 C-2.67464844 10.57726562 -2.65789062 11.306875 -2.640625 12.05859375 C-2.60267703 16.23287023 -2.90125898 18.26736171 -4.81640625 22.09765625 C-8.44640625 22.09765625 -12.07640625 22.09765625 -15.81640625 22.09765625 C-15.81640625 21.43765625 -15.81640625 20.77765625 -15.81640625 20.09765625 C-14.82640625 20.09765625 -13.83640625 20.09765625 -12.81640625 20.09765625 C-13.14640625 13.82765625 -13.47640625 7.55765625 -13.81640625 1.09765625 C-10.84640625 1.09765625 -7.87640625 1.09765625 -4.81640625 1.09765625 C-3.81640625 0.09765625 -3.81640625 0.09765625 0 0 Z " fill="#F5B231" transform="translate(1031.81640625,641.90234375)"/>
<path d="M0 0 C5.6666765 -0.29785422 10.08825729 0.68918591 15.4375 2.5 C16.16904297 2.73847656 16.90058594 2.97695313 17.65429688 3.22265625 C19.4392116 3.80596172 21.22005557 4.40169935 23 5 C23 5.66 23 6.32 23 7 C24.06154297 7.37318359 24.06154297 7.37318359 25.14453125 7.75390625 C28.33724066 9.14716795 30.87912892 10.88007126 33.6875 12.9375 C34.64011719 13.62714844 35.59273437 14.31679688 36.57421875 15.02734375 C39 17 39 17 41 20 C39.68 21.32 38.36 22.64 37 24 C33.57719483 22.53417985 31.43519517 20.61937745 28.875 17.9375 C26.22095 15.08428067 26.22095 15.08428067 23 13 C23 12.34 23 11.68 23 11 C22.154375 10.7525 21.30875 10.505 20.4375 10.25 C17.34395796 9.12507562 14.82001466 7.7045088 12.01171875 6.01953125 C8.21797511 4.09687671 4.09664638 3.0880429 0 2 C0 1.34 0 0.68 0 0 Z " fill="#F7A025" transform="translate(1066,584)"/>
<path d="M0 0 C2.68211992 2.33923527 3.77605138 4.49253938 5 7.8125 C7.19025706 14.95977333 7.19025706 14.95977333 12 20 C12 20.66 12 21.32 12 22 C8.7 22 5.4 22 2 22 C2.33 20.35 2.66 18.7 3 17 C0.03 17 -2.94 17 -6 17 C-6 17.66 -6 18.32 -6 19 C-5.34 19.33 -4.68 19.66 -4 20 C-4 20.66 -4 21.32 -4 22 C-6.31 22 -8.62 22 -11 22 C-11 21.34 -11 20.68 -11 20 C-10.4225 19.484375 -9.845 18.96875 -9.25 18.4375 C-6.13282398 15.06055932 -4.69842305 11.22798928 -3 7 C-2.67 7.66 -2.34 8.32 -2 9 C-2.9375 11.625 -2.9375 11.625 -4 14 C-2.35 14 -0.7 14 1 14 C0.46375 12.80375 -0.0725 11.6075 -0.625 10.375 C-1.90207943 7.03677378 -2.03501798 6.15084669 -1.1875 2.5 C-0.5996875 1.2625 -0.5996875 1.2625 0 0 Z " fill="#FCDF82" transform="translate(1061,642)"/>
<path d="M0 0 C0 2.31 0 4.62 0 7 C-0.66 6.34 -1.32 5.68 -2 5 C-2 4.01 -2 3.02 -2 2 C-4.31 2 -6.62 2 -9 2 C-9 7.94 -9 13.88 -9 20 C-6.36 20 -3.72 20 -1 20 C-0.34 18.35 0.32 16.7 1 15 C1.93423645 18.01031744 2.04449911 18.86650268 1 22 C-4.94 22 -10.88 22 -17 22 C-17 21.34 -17 20.68 -17 20 C-16.01 20 -15.02 20 -14 20 C-14.33 13.73 -14.66 7.46 -15 1 C-2.25 0 -2.25 0 0 0 Z " fill="#FFEA94" transform="translate(1045,642)"/>
<path d="M0 0 C1.33804687 0.17982422 1.33804687 0.17982422 2.703125 0.36328125 C3.37859375 0.47027344 4.0540625 0.57726562 4.75 0.6875 C4.75 2.6675 4.75 4.6475 4.75 6.6875 C4.028125 6.0275 3.30625 5.3675 2.5625 4.6875 C-0.46597933 2.5339147 -1.64703406 2.27573246 -5.25 2.6875 C-5.04905284 4.63139713 -5.04905284 4.63139713 -4.25 6.6875 C-2.47531753 7.9604239 -2.47531753 7.9604239 -0.3125 8.8125 C2.28209987 9.95205203 3.71549847 10.65299847 5.75 12.6875 C5.55792087 15.69673963 5.30162866 17.89791388 3.5546875 20.3984375 C0.94262831 22.26419407 -0.80828342 21.77995744 -3.9375 21.375 C-4.93136719 21.25511719 -5.92523437 21.13523437 -6.94921875 21.01171875 C-7.70847656 20.90472656 -8.46773437 20.79773438 -9.25 20.6875 C-9.25 18.3775 -9.25 16.0675 -9.25 13.6875 C-8.92 14.326875 -8.59 14.96625 -8.25 15.625 C-5.22670168 18.7427764 -2.51343276 18.40793064 1.75 18.6875 C1.59329655 16.74682374 1.59329655 16.74682374 0.75 14.6875 C-1.30082951 13.37384526 -1.30082951 13.37384526 -3.75 12.375 C-6.21484375 11.125 -6.21484375 11.125 -8.25 9.6875 C-9.3125 5.875 -9.3125 5.875 -9.25 2.6875 C-6.03037108 -0.23875152 -4.27288159 -0.61844339 0 0 Z " fill="#FEE892" transform="translate(1109.25,642.3125)"/>
<path d="M0 0 C1.99825961 2.99738941 2.27550398 3.63347508 2.25 7 C2.25515625 7.680625 2.2603125 8.36125 2.265625 9.0625 C2 11 2 11 0 14 C-3.06997072 14.39191116 -5.11365285 14.47271848 -7.875 13 C-9.68523932 9.78179676 -9.53967465 6.59783102 -9 3 C-6.89759348 -0.73761159 -4.00053818 -0.510707 0 0 Z " fill="#101020" transform="translate(1245,473)"/>
<path d="M0 0 C1.99825961 2.99738941 2.27550398 3.63347508 2.25 7 C2.25515625 7.680625 2.2603125 8.36125 2.265625 9.0625 C2 11 2 11 0 14 C-3.06997072 14.39191116 -5.11365285 14.47271848 -7.875 13 C-9.68523932 9.78179676 -9.53967465 6.59783102 -9 3 C-6.89759348 -0.73761159 -4.00053818 -0.510707 0 0 Z " fill="#101020" transform="translate(1245,442)"/>
<path d="M0 0 C7.59 0 15.18 0 23 0 C23 0.66 23 1.32 23 2 C20.36 2 17.72 2 15 2 C15 4.64 15 7.28 15 10 C12.69 10 10.38 10 8 10 C8 7.36 8 4.72 8 2 C6.35 2 4.7 2 3 2 C3 7.94 3 13.88 3 20 C1.35 20.33 -0.3 20.66 -2 21 C-2 20.34 -2 19.68 -2 19 C-1.34 18.67 -0.68 18.34 0 18 C0 12.06 0 6.12 0 0 Z " fill="#E5A32C" transform="translate(1004,642)"/>
<path d="M0 0 C1.875 1.125 1.875 1.125 3 3 C3.39365568 6.14924548 3.52854531 8.11909116 1.875 10.875 C-0.88090884 12.52854531 -2.85075452 12.39365568 -6 12 C-7.875 10.875 -7.875 10.875 -9 9 C-9.39365568 5.85075452 -9.52854531 3.88090884 -7.875 1.125 C-5.11909116 -0.52854531 -3.14924548 -0.39365568 0 0 Z " fill="#26C342" transform="translate(163,86)"/>
<path d="M0 0 C1.875 1.125 1.875 1.125 3 3 C3.39365568 6.14924548 3.52854531 8.11909116 1.875 10.875 C-0.88090884 12.52854531 -2.85075452 12.39365568 -6 12 C-7.875 10.875 -7.875 10.875 -9 9 C-9.39365568 5.85075452 -9.52854531 3.88090884 -7.875 1.125 C-5.11909116 -0.52854531 -3.14924548 -0.39365568 0 0 Z " fill="#FAB734" transform="translate(143,86)"/>
<path d="M0 0 C1.875 1.125 1.875 1.125 3 3 C3.39365568 6.14924548 3.52854531 8.11909116 1.875 10.875 C-0.88090884 12.52854531 -2.85075452 12.39365568 -6 12 C-7.875 10.875 -7.875 10.875 -9 9 C-9.39365568 5.85075452 -9.52854531 3.88090884 -7.875 1.125 C-5.11909116 -0.52854531 -3.14924548 -0.39365568 0 0 Z " fill="#FB5C55" transform="translate(123,86)"/>
<path d="M0 0 C0.99 0 1.98 0 3 0 C3 4.62 3 9.24 3 14 C-3.0546875 14.1953125 -3.0546875 14.1953125 -5 14 C-7 12 -7 12 -7.3125 9.0625 C-7 6 -7 6 -5.75 4.0625 C-4 3 -4 3 -1.8125 3.3125 C-1.214375 3.539375 -0.61625 3.76625 0 4 C0 2.68 0 1.36 0 0 Z " fill="#101020" transform="translate(1210,442)"/>
<path d="M0 0 C2.31 0 4.62 0 7 0 C7 6.6 7 13.2 7 20 C4.69 20 2.38 20 0 20 C0 13.4 0 6.8 0 0 Z " fill="#FFEA94" transform="translate(1018,643)"/>
<path d="M0 0 C2.31 0 4.62 0 7 0 C7 6.6 7 13.2 7 20 C4.69 20 2.38 20 0 20 C0 13.4 0 6.8 0 0 Z " fill="#FFEA94" transform="translate(1006,643)"/>
<path d="M0 0 C1.98 0 3.96 0 6 0 C6 6.6 6 13.2 6 20 C4.02 20 2.04 20 0 20 C0 13.4 0 6.8 0 0 Z " fill="#FFEA94" transform="translate(1077,643)"/>
<path d="M0 0 C4.31566167 0.47951796 6.2019941 1.70235018 9 5 C10.41000664 7.82001327 10.24548451 9.87007255 10 13 C8.875 15.75 8.875 15.75 7 18 C3.8125 19.3125 3.8125 19.3125 1 20 C1.33 19.38125 1.66 18.7625 2 18.125 C3.67853621 12.87957435 3.74448199 7.23344596 2 2 C1.34 1.34 0.68 0.68 0 0 Z " fill="#FFEA94" transform="translate(1086,643)"/>
<path d="M0 0 C4.62 0 9.24 0 14 0 C13.67 1.98 13.34 3.96 13 6 C13.00489981 7.35479868 13.04169953 8.71025575 13.125 10.0625 C12.99622628 14.11887231 12.53075772 15.88522127 10 19 C9.34 19 8.68 19 8 19 C8 13.06 8 7.12 8 1 C5.36 1.33 2.72 1.66 0 2 C0 1.34 0 0.68 0 0 Z " fill="#F5A610" transform="translate(1075,642)"/>
<path d="M0 0 C0.66 0 1.32 0 2 0 C2 1.98 2 3.96 2 6 C3.98 6 5.96 6 8 6 C8 4.02 8 2.04 8 0 C8.99 0 9.98 0 11 0 C11 4.62 11 9.24 11 14 C10.01 14 9.02 14 8 14 C8 12.02 8 10.04 8 8 C6.02 8 4.04 8 2 8 C2 9.98 2 11.96 2 14 C1.34 14 0.68 14 0 14 C0 9.38 0 4.76 0 0 Z " fill="#101020" transform="translate(1166,442)"/>
<path d="M0 0 C6.75 -0.125 6.75 -0.125 9 1 C9.125 5.75 9.125 5.75 8 8 C8.39938767 10.09821215 8.39938767 10.09821215 9 12 C8.401875 11.360625 7.80375 10.72125 7.1875 10.0625 C5.09189663 7.79689611 5.09189663 7.79689611 2 7 C2 8.65 2 10.3 2 12 C1.34 12 0.68 12 0 12 C0 8.04 0 4.08 0 0 Z " fill="#424AE0" transform="translate(1150,829)"/>
<path d="M0 0 C0.50382545 2.01080335 1.00541892 4.02205668 1.5 6.03515625 C1.665 6.70417969 1.83 7.37320313 2 8.0625 C2.165 8.73410156 2.33 9.40570312 2.5 10.09765625 C2.93440178 11.75041926 3.45959918 13.37879754 4 15 C1.69 15 -0.62 15 -3 15 C-2.67 13.68 -2.34 12.36 -2 11 C-2.23074219 11.55429687 -2.46148438 12.10859375 -2.69921875 12.6796875 C-5.39622642 18.67066895 -5.39622642 18.67066895 -8.75 20.5 C-9.86375 20.7475 -9.86375 20.7475 -11 21 C-11 20.34 -11 19.68 -11 19 C-10.4225 18.505 -9.845 18.01 -9.25 17.5 C-6.45418669 14.39354076 -5.39885407 11.29703244 -3.94921875 7.41796875 C-2.90065343 4.74693199 -1.59087102 2.38630653 0 0 Z " fill="#D38913" transform="translate(1059,642)"/>
<path d="M0 0 C2.3125 1.5 2.3125 1.5 3.125 4.125 C3.186875 4.90875 3.24875 5.6925 3.3125 6.5 C1.0025 6.5 -1.3075 6.5 -3.6875 6.5 C-3.6875 7.16 -3.6875 7.82 -3.6875 8.5 C-1.7075 8.17 0.2725 7.84 2.3125 7.5 C1.9825 8.49 1.6525 9.48 1.3125 10.5 C-1.5625 10.625 -1.5625 10.625 -4.6875 10.5 C-6.6875 8.5 -6.6875 8.5 -7.0625 5.5625 C-6.6875 2.5 -6.6875 2.5 -5 0.5 C-2.6875 -0.5 -2.6875 -0.5 0 0 Z " fill="#2F2F3C" transform="translate(1186.6875,445.5)"/>
<path d="M0 0 C2.33294775 -0.04241723 4.66702567 -0.04092937 7 0 C8 1 8 1 8.125 4.5 C8 8 8 8 7 9 C5.33382885 9.04063832 3.66611905 9.042721 2 9 C2 9.99 2 10.98 2 12 C1.34 12 0.68 12 0 12 C0 8.04 0 4.08 0 0 Z " fill="#FFFFFF" transform="translate(933,832)"/>
<path d="M0 0 C2.375 0.75 2.375 0.75 3.375 1.75 C3.44679964 3.26928038 3.45892007 4.79167482 3.4375 6.3125 C3.42847656 7.13878906 3.41945313 7.96507812 3.41015625 8.81640625 C3.39855469 9.45449219 3.38695312 10.09257812 3.375 10.75 C0.735 10.75 -1.905 10.75 -4.625 10.75 C-5.00718767 9.09385343 -5.33895102 7.42542976 -5.625 5.75 C-4.625 4.75 -4.625 4.75 -2.0625 4.6875 C-0.8559375 4.7184375 -0.8559375 4.7184375 0.375 4.75 C0.375 3.76 0.375 2.77 0.375 1.75 C-0.615 1.75 -1.605 1.75 -2.625 1.75 C-2.625 2.41 -2.625 3.07 -2.625 3.75 C-3.615 3.42 -4.605 3.09 -5.625 2.75 C-3.73358522 0.26129634 -3.21105313 -0.30581458 0 0 Z " fill="#333340" transform="translate(1199.625,476.25)"/>
<path d="M0 0 C2.375 0.75 2.375 0.75 3.375 1.75 C3.44679964 3.26928038 3.45892007 4.79167482 3.4375 6.3125 C3.42847656 7.13878906 3.41945313 7.96507812 3.41015625 8.81640625 C3.39855469 9.45449219 3.38695312 10.09257812 3.375 10.75 C0.735 10.75 -1.905 10.75 -4.625 10.75 C-5.00718767 9.09385343 -5.33895102 7.42542976 -5.625 5.75 C-4.625 4.75 -4.625 4.75 -2.0625 4.6875 C-0.8559375 4.7184375 -0.8559375 4.7184375 0.375 4.75 C0.375 3.76 0.375 2.77 0.375 1.75 C-0.615 1.75 -1.605 1.75 -2.625 1.75 C-2.625 2.41 -2.625 3.07 -2.625 3.75 C-3.615 3.42 -4.605 3.09 -5.625 2.75 C-3.73358522 0.26129634 -3.21105313 -0.30581458 0 0 Z " fill="#333340" transform="translate(1197.625,445.25)"/>
<path d="M0 0 C2.31 0 4.62 0 7 0 C7 0.66 7 1.32 7 2 C6.34 2 5.68 2 5 2 C5.04125 2.9075 5.0825 3.815 5.125 4.75 C5 8 5 8 3 12 C-0.63 12 -4.26 12 -8 12 C-8 11.34 -8 10.68 -8 10 C-5.36 10 -2.72 10 0 10 C0 6.7 0 3.4 0 0 Z " fill="#F5B63A" transform="translate(1012,652)"/>
<path d="M0 0 C4.55555556 0.55555556 4.55555556 0.55555556 6 2 C6.1875 4.4375 6.1875 4.4375 6 7 C4 9 4 9 1.375 9.125 C0.59125 9.08375 -0.1925 9.0425 -1 9 C-1.625 5.625 -1.625 5.625 -2 2 C-1.34 1.34 -0.68 0.68 0 0 Z " fill="#FFFFFF" transform="translate(960,832)"/>
<path d="M0 0 C3.1875 0.875 3.1875 0.875 6 2 C2.25 3.125 2.25 3.125 0 2 C1.37691962 4.75383923 3.36720042 5.51483101 6 7 C5.34 8.32 4.68 9.64 4 11 C2.02 11 0.04 11 -2 11 C-2.33 10.01 -2.66 9.02 -3 8 C-0.03 8.495 -0.03 8.495 3 9 C3 8.34 3 7.68 3 7 C1.35 6.67 -0.3 6.34 -2 6 C-2.33 4.68 -2.66 3.36 -3 2 C-2.01 1.34 -1.02 0.68 0 0 Z " fill="#101020" transform="translate(1218,476)"/>
<path d="M0 0 C3.1875 0.875 3.1875 0.875 6 2 C2.25 3.125 2.25 3.125 0 2 C1.37691962 4.75383923 3.36720042 5.51483101 6 7 C5.34 8.32 4.68 9.64 4 11 C2.02 11 0.04 11 -2 11 C-2.33 10.01 -2.66 9.02 -3 8 C-0.03 8.495 -0.03 8.495 3 9 C3 8.34 3 7.68 3 7 C1.35 6.67 -0.3 6.34 -2 6 C-2.33 4.68 -2.66 3.36 -3 2 C-2.01 1.34 -1.02 0.68 0 0 Z " fill="#101020" transform="translate(1218,445)"/>
<path d="M0 0 C0.33 0.66 0.66 1.32 1 2 C0.0625 4.625 0.0625 4.625 -1 7 C1.31 7.66 3.62 8.32 6 9 C6 9.33 6 9.66 6 10 C3.03 10 0.06 10 -3 10 C-3 10.66 -3 11.32 -3 12 C-2.34 12.33 -1.68 12.66 -1 13 C-1 13.66 -1 14.32 -1 15 C-3.31 15 -5.62 15 -8 15 C-8 14.34 -8 13.68 -8 13 C-7.4225 12.484375 -6.845 11.96875 -6.25 11.4375 C-3.13282398 8.06055932 -1.69842305 4.22798928 0 0 Z " fill="#F4C85D" transform="translate(1058,649)"/>
<path d="M0 0 C3.96 0 7.92 0 12 0 C12 0.66 12 1.32 12 2 C10.35 2 8.7 2 7 2 C7 5.96 7 9.92 7 14 C6.34 14 5.68 14 5 14 C5 10.04 5 6.08 5 2 C3.35 2 1.7 2 0 2 C0 1.34 0 0.68 0 0 Z " fill="#101020" transform="translate(1183,473)"/>
<path d="M0 0 C2.625 0.375 2.625 0.375 5 1 C5.33 2.32 5.66 3.64 6 5 C4.02 5.33 2.04 5.66 0 6 C0.99 6.33 1.98 6.66 3 7 C3.99 7.33 4.98 7.66 6 8 C3.69 8.33 1.38 8.66 -1 9 C-1.625 5.625 -1.625 5.625 -2 2 C-1.34 1.34 -0.68 0.68 0 0 Z " fill="#6F75E7" transform="translate(1182,832)"/>
<path d="M0 0 C2.625 0.375 2.625 0.375 5 1 C5.33 2.32 5.66 3.64 6 5 C4.02 5.33 2.04 5.66 0 6 C0.99 6.33 1.98 6.66 3 7 C3.99 7.33 4.98 7.66 6 8 C3.69 8.33 1.38 8.66 -1 9 C-1.625 5.625 -1.625 5.625 -2 2 C-1.34 1.34 -0.68 0.68 0 0 Z " fill="#6F75E7" transform="translate(1163,832)"/>
<path d="M0 0 C3.625 0.375 3.625 0.375 7 1 C7.33 1.99 7.66 2.98 8 4 C7.05125 3.67 6.1025 3.34 5.125 3 C2.22937548 1.89840809 2.22937548 1.89840809 0 2 C0.33 4.64 0.66 7.28 1 10 C1.598125 9.835 2.19625 9.67 2.8125 9.5 C5 9 5 9 8 9 C7.01 10.485 7.01 10.485 6 12 C3 12.3125 3 12.3125 0 12 C-2 10 -2 10 -2.265625 8.125 C-2.26046875 7.42375 -2.2553125 6.7225 -2.25 6 C-2.25515625 5.29875 -2.2603125 4.5975 -2.265625 3.875 C-2 2 -2 2 0 0 Z " fill="#FFFFFF" transform="translate(949,829)"/>
<path d="M0 0 C2.0625 0.4375 2.0625 0.4375 4 1 C4 3.64 4 6.28 4 9 C2.0625 9.5625 2.0625 9.5625 0 10 C-1 9 -1 9 -1.1328125 7.1875 C-1.13023438 6.465625 -1.12765625 5.74375 -1.125 5 C-1.12757812 4.278125 -1.13015625 3.55625 -1.1328125 2.8125 C-1 1 -1 1 0 0 Z " fill="#FFFFFF" transform="translate(1240,475)"/>
<path d="M0 0 C2.0625 0.4375 2.0625 0.4375 4 1 C4 3.64 4 6.28 4 9 C2.0625 9.5625 2.0625 9.5625 0 10 C-1 9 -1 9 -1.1328125 7.1875 C-1.13023438 6.465625 -1.12765625 5.74375 -1.125 5 C-1.12757812 4.278125 -1.13015625 3.55625 -1.1328125 2.8125 C-1 1 -1 1 0 0 Z " fill="#FFFFFF" transform="translate(1240,444)"/>
<path d="M0 0 C2.31 0 4.62 0 7 0 C6.84660156 0.54140625 6.69320313 1.0828125 6.53515625 1.640625 C5.92128392 4.34704023 5.66791243 6.9850509 5.4375 9.75 C5.35371094 10.73484375 5.26992187 11.7196875 5.18359375 12.734375 C5.12300781 13.48203125 5.06242187 14.2296875 5 15 C3.23899242 11.59538535 2 8.90650339 2 5 C1.01 5.495 1.01 5.495 0 6 C0 4.02 0 2.04 0 0 Z " fill="#F8B12A" transform="translate(1036,644)"/>
<path d="M0 0 C3.2799508 3.2799508 2.55749446 7.52890366 2.75 12 C2.80542969 12.928125 2.86085938 13.85625 2.91796875 14.8125 C2.96050781 15.699375 3.00304687 16.58625 3.046875 17.5 C3.08651367 18.3146875 3.12615234 19.129375 3.16699219 19.96875 C3 22 3 22 1 24 C-0.29235715 19.08497242 -0.11135517 14.22709898 -0.0625 9.1875 C-0.05798828 8.30384766 -0.05347656 7.42019531 -0.04882812 6.50976562 C-0.03709866 4.33981441 -0.01916495 2.16989828 0 0 Z " fill="#FFE575" transform="translate(974,640)"/>
<path d="M0 0 C2.64 0 5.28 0 8 0 C8 0.66 8 1.32 8 2 C6.02 2 4.04 2 2 2 C2 3.32 2 4.64 2 6 C3.98 6 5.96 6 8 6 C8 6.33 8 6.66 8 7 C6.02 7 4.04 7 2 7 C2 8.65 2 10.3 2 12 C1.34 12 0.68 12 0 12 C0 8.04 0 4.08 0 0 Z " fill="#FFFFFF" transform="translate(915,829)"/>
<path d="M0 0 C0.66 0 1.32 0 2 0 C2.9702889 2.91086669 3.16467847 4.90223685 3.1875 7.9375 C3.20167969 8.79214844 3.21585938 9.64679687 3.23046875 10.52734375 C2.98703556 13.13909303 2.3178268 14.75500652 1 17 C-0.65 17 -2.3 17 -4 17 C-3.525625 16.566875 -3.05125 16.13375 -2.5625 15.6875 C0.35218595 12.53963918 0.11044732 9.38802213 0.0625 5.3125 C0.05347656 4.31863281 0.04445313 3.32476563 0.03515625 2.30078125 C0.02355469 1.54152344 0.01195312 0.78226563 0 0 Z " fill="#C17608" transform="translate(1087,645)"/>
<path d="M0 0 C0.66 0 1.32 0 2 0 C2 5.94 2 11.88 2 18 C0.35 18.33 -1.3 18.66 -3 19 C-3 18.34 -3 17.68 -3 17 C-2.34 16.67 -1.68 16.34 -1 16 C-0.68758545 13.28553021 -0.48663408 10.66090639 -0.375 7.9375 C-0.33632813 7.17888672 -0.29765625 6.42027344 -0.2578125 5.63867188 C-0.16326438 3.75952805 -0.08053244 1.87979664 0 0 Z " fill="#BE7205" transform="translate(1005,644)"/>
<path d="M0 0 C0.99 0 1.98 0 3 0 C3 4.62 3 9.24 3 14 C2.01 14 1.02 14 0 14 C0 9.38 0 4.76 0 0 Z " fill="#101020" transform="translate(1210,473)"/>
<path d="M0 0 C0.66 0 1.32 0 2 0 C2 5.94 2 11.88 2 18 C0.68 18.33 -0.64 18.66 -2 19 C-2.33 18.34 -2.66 17.68 -3 17 C-2.34 16.67 -1.68 16.34 -1 16 C-0.68758545 13.28553021 -0.48663408 10.66090639 -0.375 7.9375 C-0.33632812 7.17888672 -0.29765625 6.42027344 -0.2578125 5.63867188 C-0.16326438 3.75952805 -0.08053244 1.87979664 0 0 Z " fill="#BD7105" transform="translate(1029,644)"/>
<path d="M0 0 C0.93423645 3.01031744 1.04449911 3.86650268 0 7 C-5.94 7 -11.88 7 -18 7 C-18 6.34 -18 5.68 -18 5 C-12.72 5 -7.44 5 -2 5 C-1.34 3.35 -0.68 1.7 0 0 Z " fill="#F6CE68" transform="translate(1046,657)"/>
<path d="M0 0 C0.38800781 0.63421875 0.77601562 1.2684375 1.17578125 1.921875 C3.44725997 4.50951242 4.83151881 4.72698995 8.1875 5.25 C9.08855469 5.39953125 9.98960938 5.5490625 10.91796875 5.703125 C11.60503906 5.80109375 12.29210938 5.8990625 13 6 C12.34 6.66 11.68 7.32 11 8 C8.3984375 7.9765625 8.3984375 7.9765625 5.375 7.625 C4.37210938 7.51414062 3.36921875 7.40328125 2.3359375 7.2890625 C1.56507812 7.19367187 0.79421875 7.09828125 0 7 C0 4.69 0 2.38 0 0 Z " fill="#FAD46C" transform="translate(1100,656)"/>
<path d="M0 0 C2.97 0.495 2.97 0.495 6 1 C5.01 1.33 4.02 1.66 3 2 C2.34 1.67 1.68 1.34 1 1 C1 1.99 1 2.98 1 4 C2.65 4.33 4.3 4.66 6 5 C5.67 6.32 5.34 7.64 5 9 C3.35 9 1.7 9 0 9 C-0.33 8.34 -0.66 7.68 -1 7 C1.475 7.495 1.475 7.495 4 8 C2.74458443 5.48916886 1.49936512 5.12874554 -1 4 C-0.67 2.68 -0.34 1.36 0 0 Z " fill="#424AE0" transform="translate(1172,832)"/>
<path d="M0 0 C0.66 0 1.32 0 2 0 C2 0.99 2 1.98 2 3 C2.66 3 3.32 3 4 3 C4 3.66 4 4.32 4 5 C3.34 5 2.68 5 2 5 C2 6.98 2 8.96 2 11 C2.66 11.33 3.32 11.66 4 12 C2.68 11.67 1.36 11.34 0 11 C-0.66 8.36 -1.32 5.72 -2 3 C-1.34 3 -0.68 3 0 3 C0 2.01 0 1.02 0 0 Z " fill="#424AE0" transform="translate(1191,829)"/>
<path d="M0 0 C0.91007812 0.10183594 1.82015625 0.20367188 2.7578125 0.30859375 C3.45648437 0.39238281 4.15515625 0.47617187 4.875 0.5625 C4.875 2.5425 4.875 4.5225 4.875 6.5625 C4.17375 5.9025 3.4725 5.2425 2.75 4.5625 C-0.55960229 2.26016797 -2.18725823 2.19619844 -6.125 2.5625 C-6.455 1.9025 -6.785 1.2425 -7.125 0.5625 C-4.50184968 -0.74907516 -2.89466564 -0.33399988 0 0 Z " fill="#F4CC66" transform="translate(1109.125,642.4375)"/>
<path d="M0 0 C0.99 0 1.98 0 3 0 C3 3.3 3 6.6 3 10 C2.01 10 1.02 10 0 10 C0 6.7 0 3.4 0 0 Z " fill="#101020" transform="translate(1205,477)"/>
<path d="M0 0 C1.32 0.66 2.64 1.32 4 2 C3.67 3.65 3.34 5.3 3 7 C1.68 6.67 0.36 6.34 -1 6 C-1.042721 4.33388095 -1.04063832 2.66617115 -1 1 C-0.67 0.67 -0.34 0.34 0 0 Z " fill="#424AE0" transform="translate(936,833)"/>
<path d="M0 0 C1.77706209 2.66559313 2.87548273 5.0280615 4 8 C1.69 8 -0.62 8 -3 8 C-2.01 5.36 -1.02 2.72 0 0 Z " fill="#DB8901" transform="translate(1059,649)"/>
<path d="M0 0 C0.99 0.33 1.98 0.66 3 1 C3 2.65 3 4.3 3 6 C1.68 6 0.36 6 -1 6 C-1.042721 4.33388095 -1.04063832 2.66617115 -1 1 C-0.67 0.67 -0.34 0.34 0 0 Z " fill="#424AE0" transform="translate(961,833)"/>
<path d="M0 0 C1.32 0 2.64 0 4 0 C4 1.65 4 3.3 4 5 C2.68 5.33 1.36 5.66 0 6 C0 4.02 0 2.04 0 0 Z " fill="#FFFFFF" transform="translate(1206,448)"/>
<path d="M0 0 C2.475 0.495 2.475 0.495 5 1 C5 3.64 5 6.28 5 9 C4.34 9 3.68 9 3 9 C2.87625 7.88625 2.7525 6.7725 2.625 5.625 C2.3534187 1.96896323 2.3534187 1.96896323 0 0 Z " fill="#FFFFFF" transform="translate(975,832)"/>
<path d="M0 0 C0.66 0 1.32 0 2 0 C2 2.64 2 5.28 2 8 C0.68 8.33 -0.64 8.66 -2 9 C-2.33 8.34 -2.66 7.68 -3 7 C-2.34 6.67 -1.68 6.34 -1 6 C-0.34227572 2.97065509 -0.34227572 2.97065509 0 0 Z " fill="#C07406" transform="translate(1017,654)"/>
<path d="M0 0 C0.99 0.33 1.98 0.66 3 1 C2.67 3.64 2.34 6.28 2 9 C1.34 9 0.68 9 0 9 C0 6.03 0 3.06 0 0 Z " fill="#FFFFFF" transform="translate(972,832)"/>
<path d="M0 0 C1.65 0 3.3 0 5 0 C4.67 1.32 4.34 2.64 4 4 C2.68 4 1.36 4 0 4 C0 2.68 0 1.36 0 0 Z " fill="#FFFFFF" transform="translate(1152,831)"/>
<path d="M0 0 C0 2.31 0 4.62 0 7 C-0.66 6.34 -1.32 5.68 -2 5 C-2 4.01 -2 3.02 -2 2 C-4.31 2 -6.62 2 -9 2 C-9 1.67 -9 1.34 -9 1 C-2.25 0 -2.25 0 0 0 Z " fill="#FDDC79" transform="translate(1045,642)"/>
<path d="M0 0 C0.75 1.75 0.75 1.75 1 4 C-0.8125 6.25 -0.8125 6.25 -3 8 C-3.66 8 -4.32 8 -5 8 C-5 6 -5 6 -3.0625 4 C-2.381875 3.34 -1.70125 2.68 -1 2 C-0.67 1.34 -0.34 0.68 0 0 Z " fill="#CD7D02" transform="translate(1053,655)"/>
<path d="M0 0 C0.33 0 0.66 0 1 0 C1 3.63 1 7.26 1 11 C-1 7 -1 7 -1 3 C-0.67 2.01 -0.34 1.02 0 0 Z " fill="#FEE890" transform="translate(1040,648)"/>
</svg>
