<?xml version="1.0" encoding="UTF-8"?>
<svg version="1.1" xmlns="http://www.w3.org/2000/svg" width="2116" height="1050">
<path d="M0 0 C698.28 0 1396.56 0 2116 0 C2116 346.5 2116 693 2116 1050 C1417.72 1050 719.44 1050 0 1050 C0 703.5 0 357 0 0 Z " fill="#FEFEFE" transform="translate(0,0)"/>
<path d="M0 0 C1.13309227 -0.01229251 2.26618453 -0.02458501 3.43361293 -0.03725002 C4.67701462 -0.02529631 5.92041631 -0.0133426 7.20149684 -0.00102665 C8.54428188 -0.0059835 9.8870603 -0.01313257 11.22982337 -0.02227388 C14.94135747 -0.04112738 18.65224004 -0.0286542 22.36375748 -0.01132413 C26.40837069 0.00205619 30.45288783 -0.01355933 34.49749112 -0.02550837 C41.62067238 -0.04251346 48.74366267 -0.04079038 55.86684823 -0.02709065 C66.53049352 -0.00667403 77.1939831 -0.01498422 87.85763181 -0.02900386 C106.0288428 -0.05204265 124.19998394 -0.05123503 142.37120128 -0.03759947 C160.7941995 -0.02385902 179.21715171 -0.02092872 197.64015269 -0.03128614 C198.80234099 -0.03193201 199.96452929 -0.03257787 201.16193542 -0.0332433 C205.8950897 -0.03590956 210.62824392 -0.03865308 215.3613981 -0.04149468 C259.48233514 -0.06796461 303.60324131 -0.06972463 347.72418284 -0.05575743 C349.68667153 -0.05513646 349.68667153 -0.05513646 351.68880644 -0.05450295 C353.65441689 -0.05388098 353.65441689 -0.05388098 355.65973663 -0.05324644 C363.6345217 -0.05072629 371.60930678 -0.04826817 379.5840919 -0.04590835 C380.57433891 -0.04561465 380.57433891 -0.04561465 381.5845909 -0.04531501 C412.82423758 -0.03611824 444.06388107 -0.03866597 475.30352855 -0.04335966 C477.97151606 -0.04374706 480.63950358 -0.04413297 483.30749109 -0.04451701 C493.35611075 -0.04596992 503.40473041 -0.04745462 513.45335005 -0.049005 C544.0969926 -0.05372798 574.74063518 -0.05672895 605.38427806 -0.05824652 C606.06662215 -0.05828086 606.74896625 -0.0583152 607.45198743 -0.05835058 C651.65170968 -0.06054476 695.85142733 -0.05503806 740.05114818 -0.04399862 C740.75691191 -0.04382303 741.46267564 -0.04364744 742.18982616 -0.04346653 C765.83044904 -0.03758454 789.47107181 -0.03130432 813.11169458 -0.02498337 C884.60497406 -0.00588073 956.09823713 0.00458708 1083.77488898 -0.02556003 C1107.40949649 -0.03187594 1131.04410402 -0.03811842 1154.67871165 -0.04399862 C1155.38427576 -0.04417484 1156.08983986 -0.04435107 1156.81678469 -0.04453263 C1200.993051 -0.0555568 1245.16931411 -0.06046989 1289.34558177 -0.05824652 C1290.36876085 -0.05819584 1290.36876085 -0.05819584 1291.4126102 -0.05814415 C1322.03915248 -0.05661064 1352.66569443 -0.05341932 1383.29223637 -0.048694 C1393.3364638 -0.04714621 1403.38069124 -0.04567454 1413.42491869 -0.04422876 C1416.75695703 -0.0437488 1420.08899536 -0.0432601 1423.4210337 -0.04275946 C1453.99594702 -0.03817838 1484.57085559 -0.03683983 1515.14576793 -0.04590835 C1516.46491825 -0.0462987 1517.78406858 -0.04668905 1519.14319316 -0.04709123 C1527.10914659 -0.04948048 1535.07509999 -0.05198231 1543.04105338 -0.05450295 C1544.34937917 -0.05491693 1545.65770496 -0.0553309 1547.00567698 -0.05575743 C1548.31160183 -0.05617084 1549.61752668 -0.05658425 1550.963025 -0.05701019 C1594.95356783 -0.07078382 1638.94407357 -0.06576389 1682.93461108 -0.03935371 C1687.65297639 -0.03659178 1692.37134174 -0.03390828 1697.08970714 -0.03128614 C1698.8267224 -0.03030959 1698.8267224 -0.03030959 1700.59882888 -0.02931331 C1718.97673457 -0.0194297 1737.35459436 -0.02634052 1755.73249591 -0.04013117 C1773.7788448 -0.05331853 1791.82511581 -0.04878649 1809.87145476 -0.02506073 C1820.46749218 -0.01166333 1831.06331672 -0.01208981 1841.65934423 -0.03246872 C1848.68240828 -0.04462206 1855.70530541 -0.03888275 1862.7283491 -0.01813445 C1866.71871273 -0.00685819 1870.70865024 -0.00358504 1874.69899589 -0.02221704 C1878.31503534 -0.03895669 1881.93027603 -0.03296055 1885.54626395 -0.0083435 C1887.46293609 -0.00126817 1889.37965026 -0.0188244 1891.2962469 -0.03725002 C1892.42933917 -0.02495751 1893.56243143 -0.01266501 1894.72985983 0 C1896.19264848 0.00020976 1896.19264848 0.00020976 1897.68498842 0.00042375 C1900.36492991 0.62571917 1900.36492991 0.62571917 1905.36492991 5.62571917 C1905.36492991 15.85571917 1905.36492991 26.08571917 1905.36492991 36.62571917 C1273.08492991 36.62571917 640.80492991 36.62571917 -10.63507009 36.62571917 C-10.63507009 0.00152501 -10.63507009 0.00152501 0 0 Z " fill="#E7E7E7" transform="translate(110.63507008552551,74.37428083270788)"/>
<path d="M0 0 C63.36 0 126.72 0 192 0 C192 14.19 192 28.38 192 43 C128.64 43 65.28 43 0 43 C0 28.81 0 14.62 0 0 Z " fill="#B36D3B" transform="translate(1150,383)"/>
<path d="M0 0 C632.28 0 1264.56 0 1916 0 C1916 1.32 1916 2.64 1916 4 C1283.72 4 651.44 4 0 4 C0 2.68 0 1.36 0 0 Z " fill="#3E3E3E" transform="translate(100,107)"/>
<path d="M0 0 C41.25 0 82.5 0 125 0 C125 15.18 125 30.36 125 46 C83.75 46 42.5 46 0 46 C0 30.82 0 15.64 0 0 Z " fill="#FC1212" transform="translate(970,383)"/>
<path d="M0 0 C16.83 0 33.66 0 51 0 C51 13.86 51 27.72 51 42 C34.17 42 17.34 42 0 42 C0 28.14 0 14.28 0 0 Z " fill="#FFFFFF" transform="translate(894,385)"/>
<path d="M0 0 C16.83 0 33.66 0 51 0 C51 13.86 51 27.72 51 42 C34.17 42 17.34 42 0 42 C0 28.14 0 14.28 0 0 Z " fill="#FFFFFF" transform="translate(779,385)"/>
<path d="M0 0 C16.5 0 33 0 50 0 C50 13.86 50 27.72 50 42 C33.5 42 17 42 0 42 C0 28.14 0 14.28 0 0 Z " fill="#FFFFFF" transform="translate(837,385)"/>
<path d="M0 0 C63.36 0 126.72 0 192 0 C192 0.99 192 1.98 192 3 C128.64 3 65.28 3 0 3 C0 2.01 0 1.02 0 0 Z " fill="#000000" transform="translate(1150,423)"/>
<path d="M0 0 C6.8359375 -0.1953125 6.8359375 -0.1953125 9 0 C11 2 11 2 11.0625 5.3125 C11.041875 6.529375 11.02125 7.74625 11 9 C11.226875 9.9075 11.45375 10.815 11.6875 11.75 C12 14 12 14 10.8125 15.62890625 C8.48913413 17.38645241 7.18999356 17.31260842 4.3125 17.1875 C2.889375 17.125625 1.46625 17.06375 0 17 C0 11.39 0 5.78 0 0 Z " fill="#757575" transform="translate(914,396)"/>
<path d="M0 0 C8.3984375 -0.1953125 8.3984375 -0.1953125 11 0 C13 2 13 2 13.3125 4.4375 C12.95209822 7.39279457 12.28773145 8.18887927 10 10 C11.32 12.31 12.64 14.62 14 17 C12.25 16.875 12.25 16.875 10 16 C8.66666667 14 7.33333333 12 6 10 C3.87880872 9.04768403 3.87880872 9.04768403 2 9 C2 11.64 2 14.28 2 17 C1.34 17 0.68 17 0 17 C0 11.39 0 5.78 0 0 Z " fill="#757575" transform="translate(798,396)"/>
<path d="M0 0 C1.875 1.125 1.875 1.125 3 3 C3.39365568 6.14924548 3.52854531 8.11909116 1.875 10.875 C-0.88090884 12.52854531 -2.85075452 12.39365568 -6 12 C-7.875 10.875 -7.875 10.875 -9 9 C-9.39365568 5.85075452 -9.52854531 3.88090884 -7.875 1.125 C-5.11909116 -0.52854531 -3.14924548 -0.39365568 0 0 Z " fill="#26C342" transform="translate(163,86)"/>
<path d="M0 0 C1.875 1.125 1.875 1.125 3 3 C3.39365568 6.14924548 3.52854531 8.11909116 1.875 10.875 C-0.88090884 12.52854531 -2.85075452 12.39365568 -6 12 C-7.875 10.875 -7.875 10.875 -9 9 C-9.39365568 5.85075452 -9.52854531 3.88090884 -7.875 1.125 C-5.11909116 -0.52854531 -3.14924548 -0.39365568 0 0 Z " fill="#FAB734" transform="translate(143,86)"/>
<path d="M0 0 C1.875 1.125 1.875 1.125 3 3 C3.39365568 6.14924548 3.52854531 8.11909116 1.875 10.875 C-0.88090884 12.52854531 -2.85075452 12.39365568 -6 12 C-7.875 10.875 -7.875 10.875 -9 9 C-9.39365568 5.85075452 -9.52854531 3.88090884 -7.875 1.125 C-5.11909116 -0.52854531 -3.14924548 -0.39365568 0 0 Z " fill="#FB5C55" transform="translate(123,86)"/>
<path d="M0 0 C1.8125 1.0625 1.8125 1.0625 3 3 C3.6384 8.9584 3.6384 8.9584 1.8125 11.9375 C-0.66049093 13.38718434 -2.17884512 13.42317323 -5 13 C-6.8125 11.9375 -6.8125 11.9375 -8 10 C-8.6384 4.0416 -8.6384 4.0416 -6.8125 1.0625 C-4.33950907 -0.38718434 -2.82115488 -0.42317323 0 0 Z " fill="#FFFFFF" transform="translate(1018,400)"/>
<path d="M0 0 C2.4375 2 2.4375 2 4 4 C1 4 1 4 -2.5 3.3125 C-5.84737659 2.70494465 -5.84737659 2.70494465 -8 4 C-9.58777289 7.17554578 -8.80754931 9.6455644 -8 13 C-5.71294169 14.14352916 -4.40735238 14.10334439 -1.875 14.0625 C-0.59625 14.041875 0.6825 14.02125 2 14 C2 12.68 2 11.36 2 10 C0.35 10 -1.3 10 -3 10 C-3 9.34 -3 8.68 -3 8 C-0.69 8 1.62 8 4 8 C4 10.31 4 12.62 4 15 C-0.43110183 17.60415552 -4.12255187 17.2563124 -9 16 C-11.91100766 13.70647881 -11.96570977 12.23574532 -12.5 8.5625 C-12 5 -12 5 -9.9375 2.0625 C-6.25937488 -0.52001338 -4.40768137 -0.72125695 0 0 Z " fill="#757575" transform="translate(866,396)"/>
<path d="M0 0 C1.8125 1.25 1.8125 1.25 3 3 C3 4.32 3 5.64 3 7 C0.03 7 -2.94 7 -6 7 C-5.01 8.485 -5.01 8.485 -4 10 C-0.535 9.505 -0.535 9.505 3 9 C2.67 9.99 2.34 10.98 2 12 C-4.37426409 13.32296047 -4.37426409 13.32296047 -6.9375 12 C-8.58367385 8.90131981 -8.36841966 6.43858351 -8 3 C-5.95177941 -0.34183359 -3.7548828 -0.56323242 0 0 Z " fill="#FFFFFF" transform="translate(1054,400)"/>
<path d="M0 0 C0.33 1.32 0.66 2.64 1 4 C1.66 4 2.32 4 3 4 C3 4.66 3 5.32 3 6 C2.34 6 1.68 6 1 6 C1 8.97 1 11.94 1 15 C1.66 15 2.32 15 3 15 C3 15.66 3 16.32 3 17 C1.68 16.67 0.36 16.34 -1 16 C-1 12.7 -1 9.4 -1 6 C-2.98 6.33 -4.96 6.66 -7 7 C-7.33 10.3 -7.66 13.6 -8 17 C-8.66 17 -9.32 17 -10 17 C-10 12.71 -10 8.42 -10 4 C-7.03 4 -4.06 4 -1 4 C-0.67 2.68 -0.34 1.36 0 0 Z " fill="#FFFFFF" transform="translate(1069,396)"/>
<path d="M0 0 C3.5149153 0.67306889 4.71363628 1.82543696 6.9375 4.5625 C5.9475 4.5625 4.9575 4.5625 3.9375 4.5625 C3.6075 4.2325 3.2775 3.9025 2.9375 3.5625 C-0.02067107 3.31244614 -0.02067107 3.31244614 -3.0625 3.5625 C-5.44244368 5.50582332 -5.44244368 5.50582332 -5.3125 9.0625 C-5.44244368 12.61917668 -5.44244368 12.61917668 -3.0625 14.5625 C-0.0625 14.97916667 -0.0625 14.97916667 2.9375 14.5625 C3.5975 13.5725 4.2575 12.5825 4.9375 11.5625 C5.5975 11.5625 6.2575 11.5625 6.9375 11.5625 C5.1875 16.4375 5.1875 16.4375 2.9375 17.5625 C-1.0755324 18.09757099 -2.60178033 17.89301628 -5.9375 15.5 C-8.0625 12.5625 -8.0625 12.5625 -8.6875 9.0625 C-7.73242364 3.7140724 -5.41870341 0.99527205 0 0 Z " fill="#FFFFFF" transform="translate(1001.0625,395.4375)"/>
<path d="M0 0 C3.28453 0 5.84698314 0.23304995 9 1 C10 2 10 2 10.09765625 4.50390625 C10.08605469 5.51324219 10.07445312 6.52257812 10.0625 7.5625 C10.05347656 8.57441406 10.04445313 9.58632813 10.03515625 10.62890625 C10.02355469 11.41136719 10.01195312 12.19382812 10 13 C9.34 13 8.68 13 8 13 C7.67 9.7 7.34 6.4 7 3 C5.68 3.33 4.36 3.66 3 4 C2.67 6.97 2.34 9.94 2 13 C1.34 13 0.68 13 0 13 C0 8.71 0 4.42 0 0 Z " fill="#FFFFFF" transform="translate(1023,400)"/>
<path d="M0 0 C3.53571429 0.53571429 3.53571429 0.53571429 5 2 C5.1875 4.4375 5.1875 4.4375 5 7 C4.34 7.66 3.68 8.32 3 9 C-0.53571429 8.46428571 -0.53571429 8.46428571 -2 7 C-2.1875 4.5625 -2.1875 4.5625 -2 2 C-1.34 1.34 -0.68 0.68 0 0 Z " fill="#FC1212" transform="translate(1014,402)"/>
<path d="M0 0 C0.66 0 1.32 0 2 0 C2.99 2.31 3.98 4.62 5 7 C7.22189824 4.77810176 7.92598892 2.91517292 9 0 C9.66 0 10.32 0 11 0 C10.57476184 1.60746056 10.13429874 3.21089836 9.6875 4.8125 C9.44386719 5.70582031 9.20023438 6.59914063 8.94921875 7.51953125 C7.9799181 10.05247738 7.04990396 11.2716496 5 13 C0.59225513 4.738041 0.59225513 4.738041 0 0 Z " fill="#FFFFFF" transform="translate(1034,400)"/>
<path d="M0 0 C5.75 -0.125 5.75 -0.125 8 1 C7.67 2.65 7.34 4.3 7 6 C4.69 6 2.38 6 0 6 C0 4.02 0 2.04 0 0 Z " fill="#FFFFFF" transform="translate(916,405)"/>
<path d="M0 0 C2.64 0 5.28 0 8 0 C8.5625 1.9375 8.5625 1.9375 9 4 C8 5 8 5 6.15234375 5.09765625 C4.1015625 5.06510417 2.05078125 5.03255208 0 5 C0 3.35 0 1.7 0 0 Z " fill="#FFFFFF" transform="translate(800,398)"/>
<path d="M0 0 C1.98 0 3.96 0 6 0 C6.5625 1.9375 6.5625 1.9375 7 4 C6 5 6 5 2.9375 5.0625 C1.4834375 5.0315625 1.4834375 5.0315625 0 5 C0 3.35 0 1.7 0 0 Z " fill="#FFFFFF" transform="translate(916,398)"/>
<path d="M0 0 C0 0.66 0 1.32 0 2 C-2.31 2 -4.62 2 -7 2 C-7 1.34 -7 0.68 -7 0 C-4.3333581 -1.33332095 -2.83319697 -0.67102033 0 0 Z " fill="#FC1212" transform="translate(1055,403)"/>
</svg>
