<?xml version="1.0" encoding="UTF-8"?>
<svg version="1.1" xmlns="http://www.w3.org/2000/svg" width="2115" height="1261">
<path d="M0 0 C697.95 0 1395.9 0 2115 0 C2115 416.13 2115 832.26 2115 1261 C1417.05 1261 719.1 1261 0 1261 C0 844.87 0 428.74 0 0 Z " fill="#012B39" transform="translate(0,0)"/>
<path d="M0 0 C697.95 0 1395.9 0 2115 0 C2115 416.13 2115 832.26 2115 1261 C1417.05 1261 719.1 1261 0 1261 C0 844.87 0 428.74 0 0 Z M100 107 C99.896875 284.106875 99.79375 461.21375 99.6875 643.6875 C99.64197998 699.71233154 99.59645996 755.73716309 99.54956055 813.4597168 C99.53284354 863.46231765 99.53284354 863.46231765 99.52278137 913.46492004 C99.51794842 936.56121936 99.49804897 959.65744104 99.46937273 982.75371889 C99.43924778 1007.08778204 99.42518162 1031.42180141 99.43218883 1055.7558836 C99.4331601 1059.14488485 99.43395293 1062.53388612 99.43463862 1065.92288744 C99.43477952 1066.58710945 99.43492042 1067.25133146 99.43506559 1067.93568141 C99.43693122 1079.01084443 99.41920633 1090.0859043 99.39596202 1101.16103895 C99.37731472 1110.68825651 99.37657731 1120.21536313 99.3908233 1129.7425881 C99.39842924 1135.1792004 99.39787832 1140.61549324 99.37558711 1146.05207217 C99.35545543 1151.00046147 99.35805148 1155.94828157 99.37930081 1160.89666143 C99.38289181 1162.68230735 99.37797465 1164.46799421 99.36382359 1166.25358766 C99.34589544 1168.66725902 99.35850127 1171.07888255 99.37900752 1173.49248809 C99.36646314 1174.18797711 99.35391875 1174.88346613 99.34099424 1175.60003057 C99.40268826 1178.9767888 100.01116521 1181.01883475 101.73692735 1183.93004788 C106.87887018 1187.19187396 111.86123034 1186.68415981 117.8301549 1186.62674582 C119.1722385 1186.63170267 120.51431547 1186.63885175 121.8563771 1186.64799305 C125.5659604 1186.66684649 129.27489184 1186.6543734 132.98445847 1186.6370433 C137.02695018 1186.62366295 141.06934577 1186.6392785 145.11182755 1186.65122753 C152.23126846 1186.66823261 159.35051828 1186.66650956 166.46996349 1186.65280981 C177.1280093 1186.63239318 187.7858993 1186.6407034 198.44394853 1186.65472302 C216.60561885 1186.67776181 234.76721928 1186.6769542 252.92889595 1186.66331863 C271.34221884 1186.64957819 289.75549569 1186.64664789 308.16882133 1186.65700531 C309.33039969 1186.65765117 310.49197805 1186.65829704 311.68875576 1186.65896247 C316.41942605 1186.66162872 321.15009629 1186.66437225 325.88076649 1186.66721385 C369.97853878 1186.69368377 414.07628021 1186.6954438 458.17405701 1186.68147659 C459.48169563 1186.68106262 460.78933426 1186.68064864 462.13659829 1186.68022212 C463.446317 1186.67980747 464.75603571 1186.67939282 466.10544287 1186.67896561 C505.96577135 1186.66636252 545.82608582 1186.66308676 585.68641663 1186.66907883 C588.35300379 1186.66946622 591.01959096 1186.66985214 593.68617812 1186.67023618 C603.72952365 1186.67168909 613.77286918 1186.67317379 623.8162147 1186.67472417 C654.44377324 1186.67944715 685.07133181 1186.68244812 715.69889069 1186.68396568 C716.38087662 1186.68400003 717.06286256 1186.68403437 717.76551474 1186.68406975 C761.9420341 1186.68626393 806.11854887 1186.68075723 850.29506683 1186.66971779 C851.00046003 1186.6695422 851.70585322 1186.66936661 852.43262196 1186.66918569 C876.06083271 1186.66330371 899.68904335 1186.65702348 923.31725399 1186.65070254 C994.77299602 1186.6315999 1066.22872163 1186.62113209 1193.83833738 1186.6512792 C1217.46053593 1186.65759511 1241.0827345 1186.66383759 1264.70493317 1186.66971779 C1265.41012683 1186.66989401 1266.1153205 1186.67007024 1266.84188367 1186.6702518 C1310.9949595 1186.68127597 1355.14803213 1186.68618906 1399.30110931 1186.68396568 C1399.98287066 1186.6839319 1400.664632 1186.68389812 1401.36705278 1186.68386332 C1431.97752006 1186.6823298 1462.587987 1186.67913849 1493.19845394 1186.67441317 C1503.23740953 1186.67286538 1513.27636514 1186.67139371 1523.31532075 1186.66994793 C1526.6456102 1186.66946796 1529.97589964 1186.66897926 1533.30618909 1186.66847863 C1573.15859993 1186.66250435 1613.01099333 1186.66760512 1652.86340171 1186.68022212 C1654.82485964 1186.68084308 1654.82485964 1186.68084308 1656.82594299 1186.68147659 C1658.13118194 1186.68189 1659.43642088 1186.68230342 1660.78121251 1186.68272936 C1704.7486596 1186.69650299 1748.7160696 1186.69148306 1792.68351138 1186.66507287 C1797.39940043 1186.66231095 1802.11528953 1186.65962745 1806.83117867 1186.65700531 C1807.9885811 1186.65635428 1809.14598353 1186.65570324 1810.33845876 1186.65503248 C1828.70671199 1186.64514887 1847.0749193 1186.65205968 1865.4431684 1186.66585034 C1883.48004332 1186.67903771 1901.51684032 1186.67450564 1919.5537053 1186.6507799 C1930.14417711 1186.63738251 1940.73443594 1186.63780896 1951.32489784 1186.65818789 C1958.34427634 1186.67034124 1965.36348783 1186.66460189 1972.38284596 1186.64385362 C1976.37111349 1186.63257737 1980.35895469 1186.62930416 1984.34720423 1186.6479362 C1987.96134744 1186.66467591 1991.57469147 1186.65867965 1995.18878312 1186.63406267 C1997.10444367 1186.62698737 1999.02014628 1186.64454353 2000.93573128 1186.66296919 C2007.45735299 1186.61674769 2007.45735299 1186.61674769 2013.26307265 1183.93004788 C2015.3804503 1180.35821289 2015.69389243 1177.53422632 2015.62099248 1173.49248809 C2015.62738294 1172.74032427 2015.63377341 1171.98816045 2015.64035752 1171.21320379 C2015.65573867 1168.67883978 2015.63532391 1166.1460182 2015.61523914 1163.61170483 C2015.61893569 1161.77357052 2015.62482687 1159.93543954 2015.63272012 1158.09731846 C2015.64811275 1153.01836547 2015.63215346 1147.9399101 2015.61132874 1142.86099408 C2015.5942276 1137.35888876 2015.60601528 1131.85683624 2015.61424255 1126.35472107 C2015.62465538 1116.69217667 2015.6163552 1107.02978603 2015.59607565 1097.36725938 C2015.57414927 1086.88578694 2015.56313795 1076.404383 2015.56536138 1065.92288744 C2015.56549627 1065.25621632 2015.56563115 1064.58954519 2015.56577013 1063.90267191 C2015.56650802 1060.50297924 2015.56742318 1057.10328665 2015.56840215 1053.70359405 C2015.57507279 1029.31545469 2015.55815799 1004.92737996 2015.52787781 980.53926086 C2015.48702172 947.56313513 2015.47736646 914.58713943 2015.47302246 881.61096191 C2015.44674254 802.30312758 2015.37693738 722.99531251 2015.3125 643.6875 C2015.209375 466.580625 2015.10625 289.47375 2015 107 C1383.05 107 751.1 107 100 107 Z " fill="#FEFEFE" transform="translate(0,0)"/>
<path d="M0 0 C0.87882869 -0.00436032 1.75765737 -0.00872064 2.66311723 -0.0132131 C5.63477953 -0.02424062 8.60598473 -0.01371254 11.57764435 -0.00342751 C13.71886926 -0.0068811 15.86009239 -0.01164365 18.00131178 -0.01760924 C23.90620664 -0.03018979 29.81095696 -0.02391691 35.7158525 -0.01465058 C42.07584497 -0.00788919 48.43581181 -0.01832681 54.79579926 -0.02659035 C66.54189693 -0.03918742 78.28794288 -0.03805623 90.03404309 -0.02985594 C100.88406664 -0.02231815 111.73407319 -0.02033502 122.58409882 -0.02392387 C123.3029712 -0.02415303 124.02184359 -0.02438218 124.76249998 -0.02461828 C127.68041798 -0.02555225 130.59833597 -0.02650745 133.51625395 -0.02749758 C160.90527622 -0.03668075 188.29426895 -0.02834441 215.68328666 -0.01220688 C240.03273193 0.00203062 264.38213015 0.00075676 288.73157501 -0.01358986 C316.06954499 -0.02964335 343.40748886 -0.03602956 370.74546289 -0.02675307 C373.65815639 -0.02579087 376.57084989 -0.02485235 379.4835434 -0.02392387 C380.20075673 -0.02368664 380.91797005 -0.02344941 381.65691712 -0.02320499 C392.50183282 -0.01978827 403.34672967 -0.02379139 414.19164276 -0.03136253 C426.51911093 -0.03992562 438.84651559 -0.03753738 451.17397821 -0.0215203 C457.46893113 -0.01361203 463.76378831 -0.01058933 470.05874062 -0.02046776 C475.81366045 -0.02936244 481.56839516 -0.02456866 487.32329804 -0.0085351 C489.41274807 -0.00516501 491.50221353 -0.00693083 493.59165376 -0.01416247 C496.41721019 -0.02319679 499.24212039 -0.01401887 502.06764221 0 C502.89155891 -0.0070235 503.71547561 -0.014047 504.56435949 -0.02128333 C510.03096461 0.03346574 510.03096461 0.03346574 512.53936207 1.74972761 C513.9862373 4.11806794 513.91153727 5.96451778 513.91477203 8.72933006 C513.92746124 10.39501534 513.92746124 10.39501534 513.9404068 12.09435081 C513.93433411 13.31314934 513.92826141 14.53194786 513.9220047 15.78767967 C513.92726166 17.07077019 513.93251862 18.3538607 513.93793488 19.67583275 C513.95162388 23.19649166 513.94630346 26.71688715 513.93679762 30.23755074 C513.92920915 33.91971364 513.93624436 37.60185379 513.94095612 41.28401756 C513.94641606 47.4678967 513.93921586 53.6516684 513.92493439 59.83553123 C513.90860734 66.98777851 513.91389568 74.13976925 513.9304136 81.29201031 C513.94402174 87.42966885 513.94595145 93.56725011 513.9380976 99.70491886 C513.93341735 103.37204443 513.93280579 107.03904937 513.94270706 110.70616722 C513.95297151 114.79338877 513.93875039 118.88016713 513.9220047 122.96736717 C513.92807739 124.1861657 513.93415009 125.40496422 513.9404068 126.66069603 C513.93194733 127.77115288 513.92348785 128.88160973 513.91477203 130.02571678 C513.91364096 130.99246834 513.91250988 131.95921989 513.91134453 132.95526695 C513.53382111 135.37752342 513.53382111 135.37752342 512.53936207 137.00531924 C509.32225437 139.20648527 505.83250809 138.78714054 502.06764221 138.75504684 C501.18881353 138.75940717 500.30998484 138.76376749 499.40452498 138.76825994 C496.43286268 138.77928747 493.46165748 138.76875939 490.48999786 138.75847435 C488.34877295 138.76192795 486.20754982 138.7666905 484.06633043 138.77265608 C478.16143557 138.78523663 472.25668525 138.77896375 466.35178971 138.76969743 C459.99179725 138.76293604 453.6318304 138.77337366 447.27184296 138.78163719 C435.52574528 138.79423426 423.77969934 138.79310307 412.03359912 138.78490279 C401.18357558 138.77736499 390.33356902 138.77538186 379.4835434 138.77897072 C378.76467101 138.77919987 378.04579862 138.77942903 377.30514223 138.77966513 C374.38722423 138.7805991 371.46930624 138.78155429 368.55138827 138.78254442 C341.162366 138.79172759 313.77337326 138.78339126 286.38435555 138.76725373 C262.03491028 138.75301623 237.68551206 138.75429008 213.3360672 138.7686367 C185.99809722 138.7846902 158.66015335 138.79107641 131.32217932 138.78179991 C128.40948582 138.78083772 125.49679232 138.7798992 122.58409882 138.77897072 C121.86688549 138.77873349 121.14967216 138.77849625 120.41072509 138.77825183 C109.5658094 138.77483511 98.72091254 138.77883824 87.87599945 138.78640938 C75.54853128 138.79497246 63.22112662 138.79258422 50.893664 138.77656715 C44.59871108 138.76865888 38.30385391 138.76563618 32.0089016 138.7755146 C26.25398176 138.78440928 20.49924705 138.7796155 14.74434417 138.76358195 C12.65489414 138.76021186 10.56542868 138.76197767 8.47598845 138.76920931 C5.65043202 138.77824364 2.82552182 138.76906572 0 138.75504684 C-0.8239167 138.76207034 -1.6478334 138.76909384 -2.49671727 138.77633017 C-7.9633224 138.72158111 -7.9633224 138.72158111 -10.47171986 137.00531924 C-11.91859508 134.63697891 -11.84389506 132.79052906 -11.84712982 130.02571678 C-11.85558929 128.91525993 -11.86404877 127.80480309 -11.87276459 126.66069603 C-11.86669189 125.44189751 -11.8606192 124.22309898 -11.85436249 122.96736717 C-11.85961945 121.68427666 -11.8648764 120.40118614 -11.87029266 119.0792141 C-11.88398167 115.55855518 -11.87866125 112.03815969 -11.86915541 108.51749611 C-11.86156694 104.83533321 -11.86860215 101.15319306 -11.8733139 97.47102928 C-11.87877384 91.28715014 -11.87157365 85.10337844 -11.85729218 78.91951561 C-11.84096513 71.76726833 -11.84625347 64.6152776 -11.86277139 57.46303654 C-11.87637953 51.32537799 -11.87830924 45.18779674 -11.87045538 39.05012798 C-11.86577513 35.38300241 -11.86516358 31.71599747 -11.87506485 28.04887962 C-11.88532929 23.96165808 -11.87110818 19.87487972 -11.85436249 15.78767967 C-11.86043518 14.56888115 -11.86650787 13.35008263 -11.87276459 12.09435081 C-11.86007538 10.42866554 -11.86007538 10.42866554 -11.84712982 8.72933006 C-11.84599874 7.76257851 -11.84486767 6.79582695 -11.84370232 5.79977989 C-11.46617889 3.37752342 -11.46617889 3.37752342 -10.47171986 1.74972761 C-7.25461216 -0.45143842 -3.76486587 -0.03209369 0 0 Z " fill="#012B39" transform="translate(805.466178894043,279.6224765777588)"/>
<path d="M0 0 C1.13250367 -0.01229251 2.26500735 -0.02458501 3.43182932 -0.03725002 C5.29594297 -0.01931945 5.29594297 -0.01931945 7.19771549 -0.00102665 C8.53979909 -0.0059835 9.88187607 -0.01313258 11.22393769 -0.02227388 C14.933521 -0.04112732 18.64245243 -0.02865424 22.35201907 -0.01132413 C26.39451077 0.00205622 30.43690637 -0.01355934 34.47938815 -0.02550837 C41.59882905 -0.04251344 48.71807888 -0.04079039 55.83752409 -0.02709065 C66.49556989 -0.00667401 77.15345989 -0.01498423 87.81150912 -0.02900386 C105.97317944 -0.05204264 124.13477987 -0.05123503 142.29645655 -0.03759947 C160.70977944 -0.02385902 179.12305629 -0.02092872 197.53638193 -0.03128614 C198.69796029 -0.03193201 199.85953865 -0.03257787 201.05631635 -0.0332433 C205.78698665 -0.03590956 210.51765689 -0.03865308 215.24832708 -0.04149468 C259.34609938 -0.0679646 303.4438408 -0.06972463 347.5416176 -0.05575743 C349.50307554 -0.05513646 349.50307554 -0.05513646 351.50415889 -0.05450295 C353.46873695 -0.05388098 353.46873695 -0.05388098 355.47300346 -0.05324644 C395.33333194 -0.04064335 435.19364642 -0.03736759 475.05397722 -0.04335966 C477.72056439 -0.04374706 480.38715155 -0.04413297 483.05373872 -0.04451701 C493.09708425 -0.04596992 503.14042978 -0.04745462 513.18377529 -0.049005 C543.81133384 -0.05372798 574.43889241 -0.05672895 605.06645128 -0.05824652 C605.74843722 -0.05828086 606.43042316 -0.0583152 607.13307533 -0.05835058 C651.3095947 -0.06054476 695.48610947 -0.05503806 739.66262743 -0.04399862 C740.36802062 -0.04382303 741.07341381 -0.04364744 741.80018256 -0.04346653 C765.42839331 -0.03758454 789.05660395 -0.03130432 812.68481458 -0.02498337 C884.14055662 -0.00588073 955.59628223 0.00458708 1083.20589797 -0.02556003 C1106.82809653 -0.03187594 1130.4502951 -0.03811842 1154.07249376 -0.04399862 C1154.77768743 -0.04417484 1155.4828811 -0.04435107 1156.20944427 -0.04453263 C1200.36252009 -0.0555568 1244.51559273 -0.06046989 1288.66866991 -0.05824652 C1289.69131193 -0.05819584 1289.69131193 -0.05819584 1290.73461338 -0.05814415 C1321.34508065 -0.05661064 1351.95554759 -0.05341932 1382.56601453 -0.048694 C1392.60497013 -0.04714621 1402.64392574 -0.04567454 1412.68288135 -0.04422876 C1416.01317079 -0.0437488 1419.34346024 -0.0432601 1422.67374968 -0.04275946 C1462.52616053 -0.03678519 1502.37855393 -0.04188595 1542.2309623 -0.05450295 C1543.53860093 -0.05491693 1544.84623955 -0.0553309 1546.19350359 -0.05575743 C1548.151362 -0.05637754 1548.151362 -0.05637754 1550.14877311 -0.05701019 C1594.1162202 -0.07078382 1638.0836302 -0.06576389 1682.05107197 -0.03935371 C1686.76696103 -0.03659178 1691.48285012 -0.03390828 1696.19873926 -0.03128614 C1697.35614169 -0.03063511 1698.51354412 -0.02998407 1699.70601935 -0.02931331 C1718.07427259 -0.01942971 1736.4424799 -0.02634051 1754.810729 -0.04013117 C1772.84760391 -0.05331854 1790.88440092 -0.04878647 1808.92126589 -0.02506073 C1819.51173771 -0.01166334 1830.10199654 -0.01208979 1840.69245843 -0.03246872 C1847.71183694 -0.04462207 1854.73104843 -0.03888272 1861.75040656 -0.01813445 C1865.73867408 -0.00685821 1869.72651528 -0.003585 1873.71476483 -0.02221704 C1877.32890803 -0.03895675 1880.94225207 -0.03296048 1884.55634372 -0.0083435 C1886.47200427 -0.00126821 1888.38770687 -0.01882436 1890.30329187 -0.03725002 C1892.00204739 -0.01881126 1892.00204739 -0.01881126 1893.73512119 0 C1895.19714177 0.00020976 1895.19714177 0.00020976 1896.68869811 0.00042375 C1899.3675606 0.62571917 1899.3675606 0.62571917 1904.3675606 5.62571917 C1904.3675606 14.53571917 1904.3675606 23.44571917 1904.3675606 32.62571917 C1272.4175606 32.62571917 640.4675606 32.62571917 -10.6324394 32.62571917 C-10.6324394 0.00152544 -10.6324394 0.00152544 0 0 Z " fill="#E7E7E7" transform="translate(110.63243940472603,74.37428083270788)"/>
<path d="M0 0 C0.87882869 -0.00436032 1.75765737 -0.00872064 2.66311723 -0.0132131 C5.63477953 -0.02424062 8.60598473 -0.01371254 11.57764435 -0.00342751 C13.71886926 -0.0068811 15.86009239 -0.01164365 18.00131178 -0.01760924 C23.90620664 -0.03018979 29.81095696 -0.02391691 35.7158525 -0.01465058 C42.07584497 -0.00788919 48.43581181 -0.01832681 54.79579926 -0.02659035 C66.54189693 -0.03918742 78.28794288 -0.03805623 90.03404309 -0.02985594 C100.88406664 -0.02231815 111.73407319 -0.02033502 122.58409882 -0.02392387 C123.3029712 -0.02415303 124.02184359 -0.02438218 124.76249998 -0.02461828 C127.68041798 -0.02555225 130.59833597 -0.02650745 133.51625395 -0.02749758 C160.90527622 -0.03668075 188.29426895 -0.02834441 215.68328666 -0.01220688 C240.03273193 0.00203062 264.38213015 0.00075676 288.73157501 -0.01358986 C316.06954499 -0.02964335 343.40748886 -0.03602956 370.74546289 -0.02675307 C373.65815639 -0.02579087 376.57084989 -0.02485235 379.4835434 -0.02392387 C380.20075673 -0.02368664 380.91797005 -0.02344941 381.65691712 -0.02320499 C392.50183282 -0.01978827 403.34672967 -0.02379139 414.19164276 -0.03136253 C426.51911093 -0.03992562 438.84651559 -0.03753738 451.17397821 -0.0215203 C457.46893113 -0.01361203 463.76378831 -0.01058933 470.05874062 -0.02046776 C475.81366045 -0.02936244 481.56839516 -0.02456866 487.32329804 -0.0085351 C489.41274807 -0.00516501 491.50221353 -0.00693083 493.59165376 -0.01416247 C496.41721019 -0.02319679 499.24212039 -0.01401887 502.06764221 0 C502.89155891 -0.0070235 503.71547561 -0.014047 504.56435949 -0.02128333 C510.03096461 0.03346574 510.03096461 0.03346574 512.53936207 1.74972761 C513.9862373 4.11806794 513.91153727 5.96451778 513.91477203 8.72933006 C513.92746124 10.39501534 513.92746124 10.39501534 513.9404068 12.09435081 C513.93433411 13.31314934 513.92826141 14.53194786 513.9220047 15.78767967 C513.92726166 17.07077019 513.93251862 18.3538607 513.93793488 19.67583275 C513.95162388 23.19649166 513.94630346 26.71688715 513.93679762 30.23755074 C513.92920915 33.91971364 513.93624436 37.60185379 513.94095612 41.28401756 C513.94641606 47.4678967 513.93921586 53.6516684 513.92493439 59.83553123 C513.90860734 66.98777851 513.91389568 74.13976925 513.9304136 81.29201031 C513.94402174 87.42966885 513.94595145 93.56725011 513.9380976 99.70491886 C513.93341735 103.37204443 513.93280579 107.03904937 513.94270706 110.70616722 C513.95297151 114.79338877 513.93875039 118.88016713 513.9220047 122.96736717 C513.92807739 124.1861657 513.93415009 125.40496422 513.9404068 126.66069603 C513.93194733 127.77115288 513.92348785 128.88160973 513.91477203 130.02571678 C513.91364096 130.99246834 513.91250988 131.95921989 513.91134453 132.95526695 C513.53382111 135.37752342 513.53382111 135.37752342 512.53936207 137.00531924 C509.32225437 139.20648527 505.83250809 138.78714054 502.06764221 138.75504684 C501.18881353 138.75940717 500.30998484 138.76376749 499.40452498 138.76825994 C496.43286268 138.77928747 493.46165748 138.76875939 490.48999786 138.75847435 C488.34877295 138.76192795 486.20754982 138.7666905 484.06633043 138.77265608 C478.16143557 138.78523663 472.25668525 138.77896375 466.35178971 138.76969743 C459.99179725 138.76293604 453.6318304 138.77337366 447.27184296 138.78163719 C435.52574528 138.79423426 423.77969934 138.79310307 412.03359912 138.78490279 C401.18357558 138.77736499 390.33356902 138.77538186 379.4835434 138.77897072 C378.76467101 138.77919987 378.04579862 138.77942903 377.30514223 138.77966513 C374.38722423 138.7805991 371.46930624 138.78155429 368.55138827 138.78254442 C341.162366 138.79172759 313.77337326 138.78339126 286.38435555 138.76725373 C262.03491028 138.75301623 237.68551206 138.75429008 213.3360672 138.7686367 C185.99809722 138.7846902 158.66015335 138.79107641 131.32217932 138.78179991 C128.40948582 138.78083772 125.49679232 138.7798992 122.58409882 138.77897072 C121.86688549 138.77873349 121.14967216 138.77849625 120.41072509 138.77825183 C109.5658094 138.77483511 98.72091254 138.77883824 87.87599945 138.78640938 C75.54853128 138.79497246 63.22112662 138.79258422 50.893664 138.77656715 C44.59871108 138.76865888 38.30385391 138.76563618 32.0089016 138.7755146 C26.25398176 138.78440928 20.49924705 138.7796155 14.74434417 138.76358195 C12.65489414 138.76021186 10.56542868 138.76197767 8.47598845 138.76920931 C5.65043202 138.77824364 2.82552182 138.76906572 0 138.75504684 C-0.8239167 138.76207034 -1.6478334 138.76909384 -2.49671727 138.77633017 C-7.9633224 138.72158111 -7.9633224 138.72158111 -10.47171986 137.00531924 C-11.91859508 134.63697891 -11.84389506 132.79052906 -11.84712982 130.02571678 C-11.85558929 128.91525993 -11.86404877 127.80480309 -11.87276459 126.66069603 C-11.86669189 125.44189751 -11.8606192 124.22309898 -11.85436249 122.96736717 C-11.85961945 121.68427666 -11.8648764 120.40118614 -11.87029266 119.0792141 C-11.88398167 115.55855518 -11.87866125 112.03815969 -11.86915541 108.51749611 C-11.86156694 104.83533321 -11.86860215 101.15319306 -11.8733139 97.47102928 C-11.87877384 91.28715014 -11.87157365 85.10337844 -11.85729218 78.91951561 C-11.84096513 71.76726833 -11.84625347 64.6152776 -11.86277139 57.46303654 C-11.87637953 51.32537799 -11.87830924 45.18779674 -11.87045538 39.05012798 C-11.86577513 35.38300241 -11.86516358 31.71599747 -11.87506485 28.04887962 C-11.88532929 23.96165808 -11.87110818 19.87487972 -11.85436249 15.78767967 C-11.86043518 14.56888115 -11.86650787 13.35008263 -11.87276459 12.09435081 C-11.86007538 10.42866554 -11.86007538 10.42866554 -11.84712982 8.72933006 C-11.84599874 7.76257851 -11.84486767 6.79582695 -11.84370232 5.79977989 C-11.46617889 3.37752342 -11.46617889 3.37752342 -10.47171986 1.74972761 C-7.25461216 -0.45143842 -3.76486587 -0.03209369 0 0 Z M-2.46617889 10.37752342 C-2.46617889 49.64752342 -2.46617889 88.91752342 -2.46617889 129.37752342 C164.51382111 129.37752342 331.49382111 129.37752342 503.53382111 129.37752342 C503.53382111 90.10752342 503.53382111 50.83752342 503.53382111 10.37752342 C336.55382111 10.37752342 169.57382111 10.37752342 -2.46617889 10.37752342 Z " fill="#C2B38B" transform="translate(805.466178894043,279.6224765777588)"/>
<path d="M0 0 C2.28198242 0.0456543 2.28198242 0.0456543 5 1 C6.44529167 3.46563459 7.47159817 5.63041038 8.48828125 8.26953125 C8.79295319 9.01412094 9.09762512 9.75871063 9.41152954 10.52586365 C10.39726905 12.94763562 11.35495746 15.37945831 12.3125 17.8125 C12.97881698 19.46456727 13.64686846 21.11593602 14.31665039 22.76660156 C15.94234613 26.78498949 17.54652335 30.81152014 19.14294434 34.84161377 C20.33588759 37.84589039 21.54619817 40.84305621 22.7578125 43.83984375 C24.52515085 48.21888619 26.27193925 52.60531515 28 57 C26.35 57 24.7 57 23 57 C20.69 51.39 18.38 45.78 16 40 C6.76 40 -2.48 40 -12 40 C-14.31 45.61 -16.62 51.22 -19 57 C-20.32 57 -21.64 57 -23 57 C-21.08124923 51.04149834 -18.9643998 45.20996576 -16.6015625 39.4140625 C-16.1263063 38.24041641 -16.1263063 38.24041641 -15.64144897 37.0430603 C-14.97553567 35.40055329 -14.3082526 33.758601 -13.63964844 32.1171875 C-12.63092746 29.63955908 -11.62765216 27.15977711 -10.625 24.6796875 C-7.25569142 16.37047631 -3.82472271 8.11311671 0 0 Z " fill="#FFFFFF" transform="translate(1186,328)"/>
<path d="M0 0 C5 1 5 1 6.92529297 3.4934082 C7.52486816 4.58484131 8.12444336 5.67627441 8.7421875 6.80078125 C9.07364777 7.39239548 9.40510803 7.9840097 9.74661255 8.59355164 C10.80546155 10.49147414 11.84054329 12.40119279 12.875 14.3125 C13.56222469 15.55621145 14.25101312 16.7990602 14.94140625 18.04101562 C15.96484201 19.88398319 16.98643374 21.72780058 18.00091553 23.57571411 C21.22503606 29.4484368 24.59252901 35.23160977 28 41 C32.28242434 34.31682263 36.15502792 27.44231071 40 20.5 C42.31393523 16.3220614 44.6456961 12.15531815 47 8 C47.46535156 7.154375 47.93070313 6.30875 48.41015625 5.4375 C49.6875 3.21875 49.6875 3.21875 52 0 C53.32 0 54.64 0 56 0 C56 18.81 56 37.62 56 57 C54.68 57 53.36 57 52 57 C51.67 41.16 51.34 25.32 51 9 C49.02 12.67125 47.04 16.3425 45 20.125 C40.11929993 29.15481507 35.16817225 38.13135396 30 47 C28.21630859 46.85327148 28.21630859 46.85327148 26 46 C24.26416016 43.56665039 24.26416016 43.56665039 22.5390625 40.34765625 C22.22601166 39.77349472 21.91296082 39.19933319 21.59042358 38.60777283 C20.5893282 36.76585012 19.60672526 34.91480726 18.625 33.0625 C17.64668794 31.24455914 16.66459601 29.42871889 15.68099976 27.6136322 C14.77923509 25.94511528 13.886642 24.27165093 12.99462891 22.59790039 C10.44523672 17.99932112 7.70520732 13.50867887 5 9 C4.67 24.84 4.34 40.68 4 57 C2.68 57 1.36 57 0 57 C0 38.19 0 19.38 0 0 Z " fill="#FFFFFF" transform="translate(1223,328)"/>
<path d="M0 0 C3.28654328 2.53304312 5.33475441 4.9299799 6.1640625 8.984375 C6.22079114 13.4254171 5.73514616 16.93358106 3.6015625 20.859375 C-0.14467559 24.12532616 -3.94997735 25.85150391 -8.95703125 26.08203125 C-13.69177316 25.71506638 -16.55857615 24.35812933 -19.8359375 20.984375 C-22.5522996 16.49855168 -22.47268664 12.08642825 -21.8359375 6.984375 C-19.97610524 2.89274402 -18.47932862 1.37545588 -14.6484375 -0.953125 C-9.48026035 -2.39343666 -4.82324246 -2.66817668 0 0 Z " fill="#012B39" transform="translate(1017.8359375,332.015625)"/>
<path d="M0 0 C3.61659531 2.67562594 5.33554275 6.10428449 6.7265625 10.27734375 C8.15399869 21.93083917 1.61676786 30.37011743 -4.7734375 39.52734375 C-5.43730469 40.49414062 -6.10117187 41.4609375 -6.78515625 42.45703125 C-8.59495076 45.07960772 -10.40626814 47.69528579 -12.2734375 50.27734375 C-12.90314453 51.20514648 -13.53285156 52.13294922 -14.18164062 53.08886719 C-16.2734375 55.27734375 -16.2734375 55.27734375 -19.0234375 55.58984375 C-19.7659375 55.48671875 -20.5084375 55.38359375 -21.2734375 55.27734375 C-17.1376467 48.97181866 -12.83463772 42.81210989 -8.3984375 36.71484375 C-7.80546875 35.89693359 -7.2125 35.07902344 -6.6015625 34.23632812 C-5.16037701 32.24888684 -3.71765563 30.26258178 -2.2734375 28.27734375 C-2.87454346 28.49463135 -3.47564941 28.71191895 -4.0949707 28.93579102 C-5.29126099 29.35429321 -5.29126099 29.35429321 -6.51171875 29.78125 C-7.29844971 30.0604126 -8.08518066 30.3395752 -8.89575195 30.62719727 C-13.92159196 32.00144636 -17.87105595 30.97853453 -22.5234375 28.65234375 C-26.40310392 25.30172275 -28.8355389 22.10154373 -29.62109375 17.03515625 C-29.81323695 12.07284937 -29.12603541 8.46115401 -26.2734375 4.27734375 C-18.4646015 -3.19197764 -9.70544596 -5.43272971 0 0 Z M-24.2734375 6.40234375 C-26.2421199 12.06230565 -26.19185882 17.25681686 -23.7109375 22.71484375 C-20.37202158 26.22498613 -17.20043689 28.14146757 -12.25390625 28.37109375 C-7.3799115 27.99832169 -4.02919121 26.5090388 -0.2734375 23.27734375 C2.8223031 18.98325196 3.15531598 15.54093955 2.3671875 10.4609375 C1.04615664 5.95815547 -1.61246477 3.21430272 -5.7109375 0.90234375 C-12.98747487 -0.87242146 -19.12813981 0.93546496 -24.2734375 6.40234375 Z " fill="#FDFEFE" transform="translate(1021.2734375,329.72265625)"/>
<path d="M0 0 C3.64885907 2.78400534 5.26970476 5.95944558 6.140625 10.421875 C6.63912896 17.65657345 3.47228377 23.99833344 -1.06713867 29.49829102 C-3.04008768 31.54505531 -5.06569254 33.50635827 -7.14453125 35.4453125 C-8.51941289 36.75781765 -9.89182352 38.07291625 -11.26171875 39.390625 C-11.8635498 39.95539551 -12.46538086 40.52016602 -13.08544922 41.10205078 C-16.29852452 44.36540895 -19.25379873 47.87376105 -22.26953125 51.3203125 C-12.69953125 51.6503125 -3.12953125 51.9803125 6.73046875 52.3203125 C6.73046875 53.3103125 6.73046875 54.3003125 6.73046875 55.3203125 C-5.47953125 55.3203125 -17.68953125 55.3203125 -30.26953125 55.3203125 C-28.37314985 50.57935899 -26.56957631 48.28018637 -23 44.93359375 C-21.93527808 43.90197006 -20.87083393 42.87005962 -19.80664062 41.83789062 C-18.13923153 40.23835966 -16.46799104 38.6431974 -14.79077148 37.05395508 C-3.38532604 26.43974364 -3.38532604 26.43974364 1.23046875 12.0078125 C0.71441667 8.20192843 0.2129341 6.23078912 -2.26953125 3.3203125 C-6.28111592 0.9133617 -10.69917799 0.61994402 -15.26953125 1.3203125 C-20.99085788 3.96092479 -22.96777573 7.74194031 -25.26953125 13.3203125 C-26.25953125 12.9903125 -27.24953125 12.6603125 -28.26953125 12.3203125 C-28.01999851 7.20489133 -26.3193311 4.4352339 -22.93359375 0.80078125 C-16.70193793 -4.74334446 -6.85138092 -3.91116755 0 0 Z " fill="#FFFFFF" transform="translate(973.26953125,329.6796875)"/>
<path d="M0 0 C2.00686881 3.01030321 3.24228622 5.81669269 4.6015625 9.1640625 C5.09140625 10.36804688 5.58125 11.57203125 6.0859375 12.8125 C6.33827148 13.43769531 6.59060547 14.06289063 6.85058594 14.70703125 C7.62565013 16.62661016 8.40615987 18.54390575 9.1875 20.4609375 C13 29.86106978 13 29.86106978 13 31 C4.42 31 -4.16 31 -13 31 C-11.39903532 26.95703854 -9.79436064 22.91561758 -8.1875 18.875 C-7.73568359 17.73289062 -7.28386719 16.59078125 -6.81835938 15.4140625 C-6.37685547 14.30546875 -5.93535156 13.196875 -5.48046875 12.0546875 C-5.07723389 11.03874512 -4.67399902 10.02280273 -4.25854492 8.97607422 C-2.96284407 5.91213757 -1.51816749 2.95917272 0 0 Z " fill="#012B39" transform="translate(1188,333)"/>
<path d="M0 0 C0 18.15 0 36.3 0 55 C4.29 55 8.58 55 13 55 C13 55.99 13 56.98 13 58 C3.1 58 -6.8 58 -17 58 C-17 57.01 -17 56.02 -17 55 C-12.71 55 -8.42 55 -4 55 C-4.33 39.16 -4.66 23.32 -5 7 C-7.64 9.31 -10.28 11.62 -13 14 C-17 17 -17 17 -19 17 C-19.33 16.01 -19.66 15.02 -20 14 C-18.10118353 12.33853559 -16.20154172 10.67820114 -14.296875 9.0234375 C-12.78894331 7.69502149 -11.29849426 6.34643889 -9.828125 4.9765625 C-9.14234375 4.34492188 -8.4565625 3.71328125 -7.75 3.0625 C-7.12609375 2.47597656 -6.5021875 1.88945312 -5.859375 1.28515625 C-4 0 -4 0 0 0 Z " fill="#FFFFFF" transform="translate(1129,327)"/>
<path d="M0 0 C0 18.15 0 36.3 0 55 C4.29 55 8.58 55 13 55 C13 55.99 13 56.98 13 58 C3.1 58 -6.8 58 -17 58 C-17 57.01 -17 56.02 -17 55 C-12.71 55 -8.42 55 -4 55 C-4.33 39.16 -4.66 23.32 -5 7 C-7.64 9.31 -10.28 11.62 -13 14 C-17 17 -17 17 -19 17 C-19.33 16.01 -19.66 15.02 -20 14 C-18.10118353 12.33853559 -16.20154172 10.67820114 -14.296875 9.0234375 C-12.78894331 7.69502149 -11.29849426 6.34643889 -9.828125 4.9765625 C-9.14234375 4.34492188 -8.4565625 3.71328125 -7.75 3.0625 C-7.12609375 2.47597656 -6.5021875 1.88945312 -5.859375 1.28515625 C-4 0 -4 0 0 0 Z " fill="#FFFFFF" transform="translate(1082,327)"/>
<path d="M0 0 C0 18.15 0 36.3 0 55 C4.29 55 8.58 55 13 55 C13 55.99 13 56.98 13 58 C3.1 58 -6.8 58 -17 58 C-17 57.01 -17 56.02 -17 55 C-12.71 55 -8.42 55 -4 55 C-4.33 39.16 -4.66 23.32 -5 7 C-7.64 9.31 -10.28 11.62 -13 14 C-17 17 -17 17 -19 17 C-19.33 16.01 -19.66 15.02 -20 14 C-18.10118353 12.33853559 -16.20154172 10.67820114 -14.296875 9.0234375 C-12.78894331 7.69502149 -11.29849426 6.34643889 -9.828125 4.9765625 C-9.14234375 4.34492188 -8.4565625 3.71328125 -7.75 3.0625 C-7.12609375 2.47597656 -6.5021875 1.88945312 -5.859375 1.28515625 C-4 0 -4 0 0 0 Z " fill="#FFFFFF" transform="translate(902,327)"/>
<path d="M0 0 C0 18.15 0 36.3 0 55 C4.29 55 8.58 55 13 55 C13 55.99 13 56.98 13 58 C3.1 58 -6.8 58 -17 58 C-17 57.01 -17 56.02 -17 55 C-12.71 55 -8.42 55 -4 55 C-4.33 39.16 -4.66 23.32 -5 7 C-7.64 9.31 -10.28 11.62 -13 14 C-17 17 -17 17 -19 17 C-19.33 16.01 -19.66 15.02 -20 14 C-18.10118353 12.33853559 -16.20154172 10.67820114 -14.296875 9.0234375 C-12.78894331 7.69502149 -11.29849426 6.34643889 -9.828125 4.9765625 C-9.14234375 4.34492188 -8.4565625 3.71328125 -7.75 3.0625 C-7.12609375 2.47597656 -6.5021875 1.88945312 -5.859375 1.28515625 C-4 0 -4 0 0 0 Z " fill="#FFFFFF" transform="translate(855,327)"/>
<path d="M0 0 C1.875 1.125 1.875 1.125 3 3 C3.39365568 6.14924548 3.52854531 8.11909116 1.875 10.875 C-0.88090884 12.52854531 -2.85075452 12.39365568 -6 12 C-7.875 10.875 -7.875 10.875 -9 9 C-9.39365568 5.85075452 -9.52854531 3.88090884 -7.875 1.125 C-5.11909116 -0.52854531 -3.14924548 -0.39365568 0 0 Z " fill="#26C342" transform="translate(163,86)"/>
<path d="M0 0 C1.875 1.125 1.875 1.125 3 3 C3.39365568 6.14924548 3.52854531 8.11909116 1.875 10.875 C-0.88090884 12.52854531 -2.85075452 12.39365568 -6 12 C-7.875 10.875 -7.875 10.875 -9 9 C-9.39365568 5.85075452 -9.52854531 3.88090884 -7.875 1.125 C-5.11909116 -0.52854531 -3.14924548 -0.39365568 0 0 Z " fill="#FAB734" transform="translate(143,86)"/>
<path d="M0 0 C1.875 1.125 1.875 1.125 3 3 C3.39365568 6.14924548 3.52854531 8.11909116 1.875 10.875 C-0.88090884 12.52854531 -2.85075452 12.39365568 -6 12 C-7.875 10.875 -7.875 10.875 -9 9 C-9.39365568 5.85075452 -9.52854531 3.88090884 -7.875 1.125 C-5.11909116 -0.52854531 -3.14924548 -0.39365568 0 0 Z " fill="#FB5C55" transform="translate(123,86)"/>
<path d="M0 0 C2.125 0.375 2.125 0.375 4 1 C4.625 3.375 4.625 3.375 5 6 C4.34 6.66 3.68 7.32 3 8 C0.875 7.625 0.875 7.625 -1 7 C-1.625 4.625 -1.625 4.625 -2 2 C-1.34 1.34 -0.68 0.68 0 0 Z " fill="#FFFFFF" transform="translate(1041,378)"/>
<path d="M0 0 C2.125 0.375 2.125 0.375 4 1 C4.625 3.375 4.625 3.375 5 6 C4.34 6.66 3.68 7.32 3 8 C0.875 7.625 0.875 7.625 -1 7 C-1.625 4.625 -1.625 4.625 -2 2 C-1.34 1.34 -0.68 0.68 0 0 Z " fill="#FFFFFF" transform="translate(927,378)"/>
<path d="M0 0 C2.125 0.375 2.125 0.375 4 1 C4.625 2.875 4.625 2.875 5 5 C4.34 5.66 3.68 6.32 3 7 C0.875 6.625 0.875 6.625 -1 6 C-1.625 4.125 -1.625 4.125 -2 2 C-1.34 1.34 -0.68 0.68 0 0 Z " fill="#FFFFFF" transform="translate(1041,346)"/>
<path d="M0 0 C2.125 0.375 2.125 0.375 4 1 C4.625 2.875 4.625 2.875 5 5 C4.34 5.66 3.68 6.32 3 7 C0.875 6.625 0.875 6.625 -1 6 C-1.625 4.125 -1.625 4.125 -2 2 C-1.34 1.34 -0.68 0.68 0 0 Z " fill="#FFFFFF" transform="translate(927,346)"/>
</svg>
