<?xml version="1.0" encoding="UTF-8"?>
<svg version="1.1" xmlns="http://www.w3.org/2000/svg" width="2119" height="1261">
<path d="M0 0 C699.27 0 1398.54 0 2119 0 C2119 416.13 2119 832.26 2119 1261 C1419.73 1261 720.46 1261 0 1261 C0 844.87 0 428.74 0 0 Z " fill="#DDD590" transform="translate(0,0)"/>
<path d="M0 0 C699.27 0 1398.54 0 2119 0 C2119 416.13 2119 832.26 2119 1261 C1419.73 1261 720.46 1261 0 1261 C0 844.87 0 428.74 0 0 Z M100 107 C99.896875 284.106875 99.79375 461.21375 99.6875 643.6875 C99.64197998 699.71233154 99.59645996 755.73716309 99.54956055 813.4597168 C99.53284354 863.46231765 99.53284354 863.46231765 99.52278137 913.46492004 C99.51794842 936.56121936 99.49804897 959.65744104 99.46937273 982.75371889 C99.43924778 1007.08778204 99.42518162 1031.42180141 99.43218883 1055.7558836 C99.4331601 1059.14488485 99.43395293 1062.53388612 99.43463862 1065.92288744 C99.43477952 1066.58710945 99.43492042 1067.25133146 99.43506559 1067.93568141 C99.43693122 1079.01084443 99.41920633 1090.0859043 99.39596202 1101.16103895 C99.37731472 1110.68825651 99.37657731 1120.21536313 99.3908233 1129.7425881 C99.39842924 1135.1792004 99.39787832 1140.61549324 99.37558711 1146.05207217 C99.35545543 1151.00046147 99.35805148 1155.94828157 99.37930081 1160.89666143 C99.38289181 1162.68230735 99.37797465 1164.46799421 99.36382359 1166.25358766 C99.34589544 1168.66725902 99.35850127 1171.07888255 99.37900752 1173.49248809 C99.36646314 1174.18797711 99.35391875 1174.88346613 99.34099424 1175.60003057 C99.40266954 1178.97576426 100.01130322 1181.01908518 101.73532434 1183.93004788 C106.88417532 1187.19465242 111.87975355 1186.68410662 117.85580301 1186.62674582 C119.20069236 1186.63170265 120.5455751 1186.63885172 121.89044251 1186.64799305 C125.607829 1186.66684672 129.324565 1186.65437326 133.04193486 1186.6370433 C137.09291257 1186.62366307 141.14379436 1186.63927846 145.19476217 1186.65122753 C152.32916451 1186.66823269 159.46337616 1186.6665095 166.59778279 1186.65280981 C177.27822655 1186.63239326 187.95851484 1186.64070336 198.63896201 1186.65472302 C216.83879501 1186.67776186 235.03855826 1186.67695418 253.2383976 1186.66331863 C271.69042184 1186.6495782 290.14240013 1186.64664788 308.59442711 1186.65700531 C309.75844523 1186.65765117 310.92246335 1186.65829704 312.12175475 1186.65896247 C316.86236098 1186.66162872 321.60296716 1186.66437225 326.34357329 1186.66721385 C370.53400453 1186.6936838 414.72440496 1186.69544378 458.9148407 1186.68147659 C460.22522798 1186.68106262 461.53561525 1186.68064864 462.88571124 1186.68022212 C464.19818296 1186.67980747 465.51065468 1186.67939282 466.86289828 1186.67896561 C474.85024858 1186.67644545 482.83759891 1186.67398292 490.82494926 1186.67162752 C491.81675648 1186.67133381 491.81675648 1186.67133381 492.82860021 1186.67103417 C523.45042797 1186.66203347 554.07225242 1186.66416845 584.69408107 1186.6687798 C588.03329083 1186.66927879 591.37250059 1186.66975628 594.71171035 1186.67023618 C604.77615239 1186.67168909 614.84059443 1186.67317379 624.90503645 1186.67472417 C655.59693102 1186.67944715 686.28882562 1186.68244812 716.98072052 1186.68396568 C717.66413908 1186.68400003 718.34755764 1186.68403437 719.05168585 1186.68406975 C763.32101675 1186.68626393 807.59034305 1186.68075723 851.85967255 1186.66971779 C852.5665479 1186.6695422 853.27342326 1186.66936661 854.00171908 1186.66918569 C877.67957836 1186.6633037 901.35743754 1186.65702348 925.03529671 1186.65070254 C996.64118852 1186.63159989 1068.24706395 1186.62113209 1196.12482412 1186.6512792 C1219.79665852 1186.65759511 1243.46849294 1186.66383759 1267.14032745 1186.66971779 C1267.84700286 1186.66989401 1268.55367827 1186.67007024 1269.28176809 1186.6702518 C1313.52760583 1186.68127597 1357.77344039 1186.68618906 1402.01927948 1186.68396568 C1402.70247298 1186.6839319 1403.38566648 1186.68389812 1404.08956281 1186.68386332 C1434.7643301 1186.6823298 1465.43909706 1186.67913849 1496.11386402 1186.67441317 C1506.17390695 1186.67286538 1516.23394989 1186.67139371 1526.29399284 1186.66994793 C1529.63127785 1186.66946796 1532.96856286 1186.66898119 1536.30584787 1186.66847863 C1566.92891755 1186.66389755 1597.55198211 1186.662559 1628.17505074 1186.67162752 C1628.83583754 1186.67182238 1629.49662435 1186.67201724 1630.177435 1186.67221801 C1638.82305295 1186.67477709 1647.46867086 1186.67749071 1656.11428876 1186.68022212 C1657.42467604 1186.68063609 1658.73506332 1186.68105007 1660.0851593 1186.68147659 C1661.39314186 1186.68189 1662.70112442 1186.68230342 1664.04874281 1186.68272936 C1708.10857283 1186.69650297 1752.16836583 1186.69148308 1796.22819054 1186.66507287 C1800.95398462 1186.66231095 1805.67977873 1186.65962745 1810.40557289 1186.65700531 C1811.5654063 1186.65635428 1812.72523971 1186.65570324 1813.92021959 1186.65503248 C1832.32708264 1186.64514886 1850.73389986 1186.6520597 1869.14075878 1186.66585034 C1887.21552958 1186.67903768 1905.29022262 1186.67450569 1923.3649835 1186.6507799 C1933.97771772 1186.63738247 1944.59023941 1186.63780903 1955.20296373 1186.65818789 C1962.23708445 1186.67034118 1969.2710385 1186.66460199 1976.30513888 1186.64385362 C1980.30179078 1186.6325773 1984.29801725 1186.62930433 1988.2946512 1186.6479362 C1991.91637938 1186.6646757 1995.53731004 1186.65867993 1999.15898676 1186.63406267 C2001.07869369 1186.62698724 2002.99844257 1186.6445437 2004.91807411 1186.66296919 C2011.449485 1186.6177444 2011.449485 1186.6177444 2017.26467566 1183.93004788 C2019.38011418 1180.35818756 2019.69387838 1177.53344735 2019.62099248 1173.49248809 C2019.62738294 1172.74032427 2019.63377341 1171.98816045 2019.64035752 1171.21320379 C2019.65573867 1168.67883978 2019.63532391 1166.1460182 2019.61523914 1163.61170483 C2019.61893569 1161.77357052 2019.62482687 1159.93543954 2019.63272012 1158.09731846 C2019.64811275 1153.01836547 2019.63215346 1147.9399101 2019.61132874 1142.86099408 C2019.5942276 1137.35888876 2019.60601528 1131.85683624 2019.61424255 1126.35472107 C2019.62465538 1116.69217667 2019.6163552 1107.02978603 2019.59607565 1097.36725938 C2019.57414927 1086.88578694 2019.56313795 1076.404383 2019.56536138 1065.92288744 C2019.56549627 1065.25621632 2019.56563115 1064.58954519 2019.56577013 1063.90267191 C2019.56650802 1060.50297924 2019.56742318 1057.10328665 2019.56840215 1053.70359405 C2019.57507279 1029.31545469 2019.55815799 1004.92737996 2019.52787781 980.53926086 C2019.48702172 947.56313513 2019.47736646 914.58713943 2019.47302246 881.61096191 C2019.44674254 802.30312758 2019.37693738 722.99531251 2019.3125 643.6875 C2019.209375 466.580625 2019.10625 289.47375 2019 107 C1385.73 107 752.46 107 100 107 Z " fill="#FEFEFE" transform="translate(0,0)"/>
<path d="M0 0 C0.79859646 -0.00380567 1.59719291 -0.00761134 2.41998926 -0.01153234 C5.10664042 -0.0218714 7.79308121 -0.01793768 10.47974682 -0.01409245 C12.42114363 -0.01854358 14.36253862 -0.02385722 16.30393094 -0.02996117 C21.64734449 -0.04416634 26.99069995 -0.04580398 32.33412969 -0.04536426 C38.09363378 -0.04701023 43.85311378 -0.06007256 49.61260509 -0.07155704 C62.20955152 -0.09442236 74.80648112 -0.10232916 87.40344548 -0.10738349 C95.2662759 -0.11063842 103.12910141 -0.11715963 110.99192905 -0.12438488 C132.75455423 -0.14395202 154.51717367 -0.16043712 176.27980804 -0.16326141 C176.9759034 -0.16335547 177.67199875 -0.16344954 178.38918791 -0.16354645 C181.21017874 -0.16392493 184.03116958 -0.16428893 186.85216042 -0.16464943 C188.97543364 -0.16492115 191.09870687 -0.16519782 193.22198009 -0.16547489 C194.2743957 -0.16560693 194.2743957 -0.16560693 195.34807223 -0.16574163 C217.39527365 -0.16864736 239.44238742 -0.19074598 261.48955822 -0.22699833 C286.25553018 -0.26772012 311.02144012 -0.29140035 335.78744763 -0.29172093 C348.90202302 -0.29230613 362.01648559 -0.30083885 375.13103199 -0.32971859 C386.29635028 -0.35419257 397.46151459 -0.3615422 408.62685243 -0.34647106 C414.32506574 -0.33928617 420.02297473 -0.34022787 425.72115421 -0.36288166 C430.93666371 -0.38341821 436.1516339 -0.38092091 441.36713722 -0.36000682 C443.25473938 -0.35650176 445.14238004 -0.3614647 447.0299317 -0.37571125 C464.09431631 -0.49621489 464.09431631 -0.49621489 469.66962403 3.8949551 C470.12558561 4.34544045 470.5815472 4.7959258 471.0513258 5.26006222 C471.78510054 5.93655191 471.78510054 5.93655191 472.53369902 6.62670806 C477.78587791 12.27939443 477.47973702 20.07088071 477.43164253 27.27968502 C477.43630245 28.37383166 477.44096237 29.46797829 477.4457635 30.59528089 C477.45773423 34.26930757 477.4483097 37.94296589 477.43900585 41.61699581 C477.44317784 44.27458149 477.44853263 46.93214099 477.45532566 49.58971882 C477.46769512 55.37177178 477.46890381 61.1537436 477.46277523 66.93580532 C477.45368617 75.53390895 477.46171454 84.1319375 477.47306647 92.73003536 C477.49274015 108.08605504 477.4950795 123.44204098 477.48987127 138.79807025 C477.48531568 152.2363129 477.48591131 165.67454217 477.49171162 179.11278439 C477.49246848 180.91474291 477.49322446 182.71670143 477.49397956 184.51865995 C477.49512474 187.23397244 477.49627462 189.94928493 477.4974388 192.66459741 C477.50814488 217.91111121 477.51286787 243.15762055 477.50496864 268.4041357 C477.50467147 269.35596784 477.5043743 270.30779997 477.50406812 271.2884755 C477.50161913 279.01824687 477.49900757 286.74801818 477.49638398 294.47778949 C477.48627966 324.63505258 477.49464005 354.79226001 477.51787853 384.94951534 C477.5439398 418.8248492 477.55680223 452.70014955 477.54969078 486.57549381 C477.54897471 490.18610922 477.54830032 493.79672463 477.54765034 497.40734005 C477.54748053 498.29637757 477.54731072 499.18541509 477.54713576 500.10139315 C477.54483112 513.53179797 477.55281759 526.9621717 477.56594181 540.39256954 C477.58083668 555.66223865 477.58171812 570.93183481 477.5638709 586.20150232 C477.55429191 594.74935012 477.55577531 603.29702789 477.57310559 611.84486442 C477.58357129 617.55255437 477.57952835 623.26011441 477.56362555 628.96779151 C477.55496863 632.22116956 477.55482518 635.47414651 477.56789487 638.72751975 C477.58097635 642.23214248 477.56955908 645.73585648 477.55189705 649.24043941 C477.56154756 650.25033499 477.57119807 651.26023057 477.58114102 652.30072904 C477.51072407 659.07732417 476.36720304 664.68346982 471.6394628 669.78293478 C466.15664644 674.6421945 461.22248055 675.55691305 454.1026516 675.52012444 C453.30405514 675.52393011 452.50545869 675.52773578 451.68266234 675.53165677 C448.99601118 675.54199584 446.30957039 675.53806212 443.62290478 675.53421688 C441.68150797 675.53866802 439.74011297 675.54398165 437.79872066 675.5500856 C432.4553071 675.56429077 427.11195164 675.56592842 421.7685219 675.5654887 C416.00901781 675.56713467 410.24953782 675.58019699 404.4900465 675.59168148 C391.89310007 675.6145468 379.29617048 675.62245359 366.69920611 675.62750793 C358.8363757 675.63076286 350.97355019 675.63728406 343.11072254 675.64450932 C321.34809737 675.66407645 299.58547792 675.68056155 277.82284355 675.68338585 C277.1267482 675.68347991 276.43065284 675.68357397 275.71346369 675.68367088 C272.89247285 675.68404936 270.07148202 675.68441336 267.25049118 675.68477386 C265.12721795 675.68504558 263.00394473 675.68532226 260.8806715 675.68559933 C260.1790611 675.68568735 259.47745069 675.68577537 258.75457937 675.68586606 C236.70737794 675.68877179 214.66026417 675.71087042 192.61309338 675.74712276 C167.84712142 675.78784456 143.08121148 675.81152478 118.31520396 675.81184536 C105.20062857 675.81243056 92.08616601 675.82096329 78.97161961 675.84984303 C67.80630131 675.87431701 56.64113701 675.88166663 45.47579917 675.8665955 C39.77758586 675.85941061 34.07967686 675.8603523 28.38149738 675.8830061 C23.16598788 675.90354265 17.9510177 675.90104534 12.73551438 675.88013125 C10.84791221 675.87662619 8.96027155 675.88158914 7.07271989 675.89583569 C-9.97217878 676.01620172 -9.97217878 676.01620172 -15.57307595 671.68620449 C-20.13116825 666.96063282 -23.07130706 662.46030068 -23.07747537 655.76091319 C-23.08074756 654.83166702 -23.08401976 653.90242085 -23.08739111 652.9450157 C-23.08590748 651.92038071 -23.08442386 650.89574572 -23.08289528 649.84006119 C-23.08524751 648.7499954 -23.08759974 647.65992961 -23.09002325 646.53683153 C-23.09673447 642.84669032 -23.09625439 639.15658415 -23.09584522 635.46643734 C-23.09914252 632.80905195 -23.10282987 630.15166968 -23.1069867 627.49428576 C-23.11632467 620.93276357 -23.12023676 614.37124814 -23.12250567 607.80972013 C-23.12546461 599.95355793 -23.13416018 592.09740471 -23.14291995 584.24124721 C-23.16377754 565.25104648 -23.17423604 546.26084418 -23.18304956 527.27063467 C-23.18725401 518.29002613 -23.19247626 509.30941826 -23.19773408 500.32881028 C-23.21562502 469.59770647 -23.23062201 438.86660247 -23.23805428 408.13549423 C-23.23852904 406.20570494 -23.23900492 404.27591565 -23.23948194 402.34612636 C-23.23971831 401.38910829 -23.23995469 400.43209022 -23.24019823 399.4460716 C-23.24139945 394.59720324 -23.24261489 389.74833488 -23.24384022 384.89946651 C-23.24408037 383.93718771 -23.24432052 382.9749089 -23.24456794 381.98347013 C-23.25246296 350.77575224 -23.27589859 319.56807233 -23.30839616 288.36037103 C-23.34267786 255.37925107 -23.36240386 222.39815333 -23.36569852 189.41701525 C-23.36611607 185.7978965 -23.36659563 182.17877775 -23.3671217 178.559659 C-23.36724489 177.66850583 -23.36736808 176.77735265 -23.367495 175.85919484 C-23.36982906 161.50522604 -23.38550041 147.15130128 -23.40596354 132.79734819 C-23.42619846 118.37489108 -23.43170991 103.95248698 -23.42219291 89.53001831 C-23.4169689 80.95774974 -23.42289774 72.3856574 -23.44472758 63.81341412 C-23.45820503 58.08928062 -23.45718582 52.36526884 -23.44432562 46.64113421 C-23.43740848 43.37826637 -23.43902944 40.11580469 -23.45388571 36.85295341 C-23.46890234 33.33808639 -23.45940188 29.82411312 -23.44365883 26.30926895 C-23.45388104 25.29633979 -23.46410324 24.28341064 -23.47463521 23.23978665 C-23.40801198 16.4533457 -22.2719763 10.84433585 -17.53678938 5.73730521 C-12.05422157 0.87778098 -7.11973341 -0.03678812 0 0 Z " fill="#F0E7A3" transform="translate(832.9486742019653,309.7399377822876)"/>
<path d="M0 0 C1.13485804 -0.01229251 2.26971608 -0.02458501 3.43896376 -0.03725002 C4.68434321 -0.02529631 5.92972266 -0.0133426 7.21284088 -0.00102665 C8.55773023 -0.00598348 9.90261297 -0.01313255 11.24748039 -0.02227388 C14.96486687 -0.04112755 18.68160287 -0.0286541 22.39897273 -0.01132413 C26.44995044 0.0020561 30.50083223 -0.01355929 34.55180004 -0.02550837 C41.68620238 -0.04251352 48.82041403 -0.04079033 55.95482066 -0.02709065 C66.63526442 -0.0066741 77.31555271 -0.01498419 87.99599989 -0.02900386 C106.19583289 -0.05204269 124.39559614 -0.05123501 142.59543547 -0.03759947 C161.04745971 -0.02385904 179.499438 -0.02092871 197.95146498 -0.03128614 C199.1154831 -0.03193201 200.27950123 -0.03257787 201.47879262 -0.0332433 C206.21939885 -0.03590956 210.96000503 -0.03865308 215.70061116 -0.04149468 C259.8910424 -0.06796463 304.08144283 -0.06972462 348.27187857 -0.05575743 C349.58226585 -0.05534345 350.89265313 -0.05492947 352.24274911 -0.05450295 C354.21145669 -0.05388098 354.21145669 -0.05388098 356.21993615 -0.05324644 C364.20728646 -0.05072629 372.19463678 -0.04826375 380.18198714 -0.04590835 C380.84319195 -0.04571255 381.50439676 -0.04551674 382.18563808 -0.04531501 C412.80746585 -0.03631431 443.42929029 -0.03844928 474.05111894 -0.04306063 C477.3903287 -0.04355962 480.72953846 -0.04403711 484.06874822 -0.04451701 C494.13319026 -0.04596992 504.1976323 -0.04745462 514.26207432 -0.049005 C544.95396889 -0.05372798 575.64586349 -0.05672895 606.33775839 -0.05824652 C607.02117695 -0.05828086 607.70459551 -0.0583152 608.40872373 -0.05835058 C652.67805462 -0.06054476 696.94738093 -0.05503806 741.21671042 -0.04399862 C741.92358578 -0.04382303 742.63046113 -0.04364744 743.35875695 -0.04346653 C767.03661624 -0.03758454 790.71447542 -0.03130432 814.39233459 -0.02498337 C885.99822639 -0.00588073 957.60410182 0.00458708 1085.48186199 -0.02556003 C1109.15369639 -0.03187594 1132.82553081 -0.03811842 1156.49736533 -0.04399862 C1157.20404074 -0.04417484 1157.91071615 -0.04435107 1158.63880596 -0.04453263 C1202.8846437 -0.0555568 1247.13047826 -0.0604699 1291.37631735 -0.05824652 C1292.05951085 -0.05821274 1292.74270435 -0.05817895 1293.44660068 -0.05814415 C1324.12136797 -0.05661064 1354.79613493 -0.05341932 1385.47090189 -0.048694 C1395.53094482 -0.04714621 1405.59098776 -0.04567454 1415.65103071 -0.04422876 C1418.98831572 -0.0437488 1422.32560073 -0.04326203 1425.66288574 -0.04275946 C1456.28595542 -0.03817838 1486.90901998 -0.03683983 1517.53208861 -0.04590835 C1518.52326882 -0.04620064 1518.52326882 -0.04620064 1519.53447287 -0.04649884 C1528.18009083 -0.04905792 1536.82570873 -0.05177155 1545.47132664 -0.05450295 C1546.78171391 -0.05491693 1548.09210119 -0.0553309 1549.44219717 -0.05575743 C1551.40417101 -0.05637754 1551.40417101 -0.05637754 1553.40578069 -0.05701019 C1597.4656107 -0.07078381 1641.5254037 -0.06576391 1685.58522841 -0.03935371 C1690.31102249 -0.03659178 1695.03681661 -0.03390828 1699.76261076 -0.03128614 C1700.92244418 -0.03063511 1702.08227759 -0.02998407 1703.27725747 -0.02931331 C1721.68412051 -0.01942969 1740.09093773 -0.02634053 1758.49779665 -0.04013117 C1776.57256745 -0.05331851 1794.6472605 -0.04878652 1812.72202137 -0.02506073 C1823.33475559 -0.0116633 1833.94727728 -0.01208987 1844.5600016 -0.03246872 C1851.59412232 -0.04462201 1858.62807637 -0.03888282 1865.66217675 -0.01813445 C1869.65882865 -0.00685813 1873.65505512 -0.00358517 1877.65168907 -0.02221704 C1881.27341725 -0.03895653 1884.89434791 -0.03296076 1888.51602463 -0.0083435 C1890.43573156 -0.00126808 1892.35548044 -0.01882453 1894.27511198 -0.03725002 C1895.97739904 -0.01881126 1895.97739904 -0.01881126 1897.71407574 0 C1899.17916864 0.00020976 1899.17916864 0.00020976 1900.67385936 0.00042375 C1903.35703787 0.62571917 1903.35703787 0.62571917 1908.35703787 5.62571917 C1908.35703787 14.53571917 1908.35703787 23.44571917 1908.35703787 32.62571917 C1275.08703787 32.62571917 641.81703787 32.62571917 -10.64296213 32.62571917 C-10.64296213 0.00152374 -10.64296213 0.00152374 0 0 Z " fill="#E7E7E7" transform="translate(110.64296212792397,74.37428083270788)"/>
<path d="M0 0 C1.31328604 -0.00583219 2.62657208 -0.01166439 3.97965467 -0.01767331 C5.43033353 -0.0140404 6.88101192 -0.01021604 8.33168983 -0.00622082 C9.87796864 -0.00924194 11.42424595 -0.01313123 12.97052062 -0.01781338 C17.21713554 -0.02810721 21.46366617 -0.02590804 25.71028805 -0.02163279 C30.29116479 -0.01916808 34.87202111 -0.02817657 39.4528904 -0.03567028 C48.42642297 -0.04842646 57.39992564 -0.05020982 66.37346576 -0.04787002 C73.6668317 -0.0460877 80.96018854 -0.04783464 88.25355339 -0.05209446 C89.29119113 -0.05268965 90.32882887 -0.05328484 91.39791019 -0.05389806 C93.50581013 -0.0551098 95.61371008 -0.05632394 97.72161002 -0.05754044 C117.49434514 -0.06841955 137.26706321 -0.06625175 157.03979929 -0.06015559 C175.1306091 -0.05498627 193.22136507 -0.06624162 211.31216423 -0.08525381 C229.88528173 -0.10462333 248.45837375 -0.11288976 267.03150141 -0.10913056 C277.45989416 -0.10721715 287.88824108 -0.1097197 298.3166256 -0.1238451 C307.19453655 -0.13574859 316.07237347 -0.13717539 324.95028542 -0.12505493 C329.47986235 -0.11915896 334.00930379 -0.11808665 338.53887177 -0.13005733 C342.68655246 -0.14089139 346.83398412 -0.13784237 350.98165305 -0.12379565 C352.48093304 -0.12114188 353.9802324 -0.12353659 355.47949342 -0.13153151 C372.16960958 -0.21434483 372.16960958 -0.21434483 378.45098305 4.90291309 C378.89699867 5.47267872 379.3430143 6.04244434 379.80254555 6.62947559 C380.49477211 7.47638966 380.49477211 7.47638966 381.20098305 8.34041309 C384.17215468 12.97695481 384.68503237 16.92855159 384.71807289 22.3963213 C384.72479012 23.09621174 384.73150734 23.79610218 384.73842812 24.51720142 C384.75736198 26.82162629 384.7613301 29.12575912 384.76348305 31.43025684 C384.7699148 33.04062486 384.77664345 34.65099171 384.78365517 36.26135731 C384.79561683 39.6346606 384.7993372 43.00786158 384.79815102 46.38118458 C384.79794803 50.68853935 384.82523353 54.99523284 384.85969543 59.30243111 C384.88201366 62.62860553 384.88598704 65.95462214 384.88493156 69.28086376 C384.88728076 70.86798535 384.89606567 72.45511174 384.9115963 74.04215908 C385.06486807 91.32434498 385.06486807 91.32434498 379.01552773 97.75565052 C374.01575413 102.25836738 369.54686232 103.5035809 362.94690418 103.5117445 C360.96951151 103.52141784 360.96951151 103.52141784 358.9521715 103.5312866 C357.49068996 103.52834436 356.0292088 103.52520893 354.56772804 103.52190113 C353.01406232 103.52563745 351.46039848 103.5302389 349.90673763 103.53563178 C345.63506443 103.54787946 341.36346945 103.54759923 337.09178269 103.54524302 C332.48566358 103.54483531 327.87956969 103.55586972 323.2734623 103.56535816 C314.24832698 103.58197882 305.2232178 103.58746819 296.19806846 103.58858292 C288.8627255 103.58953289 281.52739117 103.59364061 274.19205093 103.59998417 C253.39986439 103.61759947 232.60769851 103.62682259 211.81550445 103.62532322 C210.69433593 103.62524331 209.5731674 103.6251634 208.41802406 103.62508106 C207.29548829 103.6249993 206.17295251 103.62491754 205.01640049 103.6248333 C186.82204861 103.62402031 168.6277795 103.64316045 150.43345156 103.6713578 C131.75640377 103.7000751 113.07939636 103.71389873 94.40232593 103.71217024 C83.91465594 103.71150594 73.42707272 103.71701573 62.93942261 103.73852634 C54.0102363 103.75672295 45.08117609 103.76109798 36.15197929 103.7475075 C31.59604068 103.74097017 27.0403441 103.74088818 22.48442841 103.758214 C18.31259082 103.77391604 14.14118773 103.7711106 9.96936093 103.75364573 C8.46130073 103.7505695 6.95320833 103.75423174 5.4451861 103.76536588 C-2.45766456 103.81984383 -8.79559004 103.72732816 -15.57245445 99.25447559 C-17.6310482 97.21931934 -17.6310482 97.21931934 -19.00995445 95.19197559 C-19.71958336 94.18457325 -19.71958336 94.18457325 -20.4435482 93.15681934 C-22.76496475 89.24495132 -22.70921153 85.88779644 -22.73358727 81.43147755 C-22.73855217 80.74163273 -22.74351707 80.05178791 -22.74863243 79.3410387 C-22.76323836 77.05826791 -22.77005487 74.7755667 -22.77557945 72.49275684 C-22.78133401 70.90195178 -22.7870917 69.31114673 -22.7928524 67.72034168 C-22.80335918 64.38218838 -22.80920336 61.04405912 -22.81268883 57.70589161 C-22.81816038 53.44345137 -22.84216084 49.1813327 -22.87066078 44.918993 C-22.88935653 41.6305803 -22.89449653 38.3422438 -22.8960247 35.05378246 C-22.89903821 33.48341274 -22.90702246 31.91304395 -22.92020988 30.34272671 C-23.05831863 12.62657643 -23.05831863 12.62657643 -17.9591732 6.23103809 C-17.39843102 5.78502247 -16.83768883 5.33900684 -16.25995445 4.87947559 C-15.70694664 4.41799122 -15.15393883 3.95650684 -14.5841732 3.48103809 C-9.91634469 0.63502226 -5.38772455 0.00412341 0 0 Z " fill="#FBFCEF" transform="translate(877.5724544525146,335.7455244064331)"/>
<path d="M0 0 C1.6384711 -0.00679667 1.6384711 -0.00679667 3.31004262 -0.01373065 C6.97718463 -0.0264101 10.6441788 -0.02475196 14.31134033 -0.02310181 C16.93783764 -0.02908487 19.56433319 -0.0358899 22.19082642 -0.04345703 C28.58937038 -0.06006399 34.98787749 -0.06556646 41.3864412 -0.06668179 C46.58886296 -0.06763252 51.79127257 -0.07174406 56.99369049 -0.07808304 C71.74902256 -0.09569553 86.50432555 -0.10492203 101.2596682 -0.10342209 C102.05499149 -0.10334218 102.85031478 -0.10326227 103.66973877 -0.10317993 C104.86418346 -0.10305729 104.86418346 -0.10305729 106.08275834 -0.10293217 C118.98359738 -0.10211953 131.88431961 -0.12125168 144.78512487 -0.14945666 C158.03699037 -0.17820011 171.28879892 -0.19199612 184.54069638 -0.19026911 C191.97842164 -0.18960566 199.41602447 -0.1950782 206.85372162 -0.21662521 C213.18737901 -0.23485639 219.52085848 -0.23916865 225.85453078 -0.22560637 C229.08409887 -0.21908598 232.31325578 -0.22110832 235.54280472 -0.23631287 C239.04951111 -0.25175168 242.55532451 -0.24246486 246.06201172 -0.22705078 C247.58173368 -0.24248147 247.58173368 -0.24248147 249.13215709 -0.25822389 C256.06479499 -0.19099011 262.52612759 0.92697819 267.87370181 5.67931235 C271.81691688 10.13953534 273.52394236 14.5007053 273.57550049 20.38973999 C273.58826019 21.38459915 273.6010199 22.37945831 273.61416626 23.40446472 C273.61750473 25.00145454 273.61750473 25.00145454 273.62091064 26.63070679 C273.62756744 27.73665695 273.63422424 28.84260712 273.64108276 29.98207092 C273.65119683 32.31960388 273.65590017 34.65716564 273.65557861 36.99472046 C273.65994482 40.55681391 273.69626032 44.1176611 273.73419189 47.67953491 C273.74006179 49.95492132 273.74403003 52.23031359 273.74591064 54.50570679 C273.76028168 55.56429398 273.77465271 56.62288116 273.78945923 57.71354675 C273.74639125 64.74296683 272.79260377 70.49161874 267.87295532 75.78739929 C261.47349402 81.47179085 255.68204524 81.55945868 247.5252533 81.53485107 C245.87959852 81.54164774 245.87959852 81.54164774 244.2006982 81.54858172 C240.51740286 81.56126144 236.83425471 81.55960302 233.15093994 81.55795288 C230.51296436 81.5639359 227.87500038 81.57068416 225.23703003 81.57830811 C218.81074762 81.59491478 212.3845019 81.6004175 205.95819982 81.60153286 C200.73383966 81.60248352 195.5094916 81.6065947 190.28513527 81.61293411 C175.46940003 81.63054583 160.65369376 81.63977312 145.83794799 81.63827316 C145.03937498 81.63819325 144.24080197 81.63811334 143.41802979 81.63803101 C142.6184804 81.63794924 141.81893102 81.63786748 140.99515287 81.63778324 C128.03867302 81.63697042 115.08230944 81.65610726 102.12586322 81.68430774 C88.81863197 81.7130429 75.51145742 81.72684768 62.20419437 81.72512019 C54.73464314 81.72445649 47.2652138 81.7299398 39.79569054 81.75147629 C33.43565436 81.76969647 27.07579532 81.77402867 20.71574434 81.76045744 C17.47212377 81.75393177 14.22891313 81.75597356 10.98531151 81.77116394 C7.46511853 81.78658178 3.94581747 81.77732987 0.42564392 81.76190186 C-0.59430784 81.77218898 -1.6142596 81.78247611 -2.66511899 81.79307497 C-9.85342385 81.72347122 -15.54680587 80.39957569 -20.77362061 75.23226929 C-21.4561792 74.22873413 -21.4561792 74.22873413 -22.15252686 73.20492554 C-22.86215576 72.19752319 -22.86215576 72.19752319 -23.58612061 71.16976929 C-25.54632045 67.86659516 -25.84978551 65.12788257 -25.89202881 61.37216187 C-25.90486404 60.37715164 -25.91769928 59.38214142 -25.93092346 58.35697937 C-25.93831039 57.28199692 -25.94569733 56.20701447 -25.95330811 55.09945679 C-25.96137985 53.99067673 -25.9694516 52.88189667 -25.97776794 51.73951721 C-25.99160636 49.39003054 -26.0023296 47.04052379 -26.01019287 44.69100952 C-26.02737639 41.11127179 -26.07126276 37.5324646 -26.11541748 33.95297241 C-26.12554721 31.66847398 -26.13406243 29.38396771 -26.14080811 27.09945679 C-26.16707024 25.50216484 -26.16707024 25.50216484 -26.19386292 23.87260437 C-26.17343218 16.81387259 -25.24450046 11.06568938 -20.3028717 5.74772644 C-13.91679975 0.07356751 -8.14045447 -0.0246682 0 0 Z " fill="#FEFBEF" transform="translate(880.7150268554688,865.7325744628906)"/>
<path d="M0 0 C0.65945751 -0.00453111 1.31891503 -0.00906223 1.9983561 -0.01373065 C4.20065649 -0.02635667 6.402709 -0.02475546 8.6050415 -0.02310181 C10.18721839 -0.02908828 11.76939236 -0.03589411 13.3515625 -0.04345703 C17.64513786 -0.06111442 21.93863347 -0.06581236 26.23224163 -0.0670886 C28.91702539 -0.06851117 31.60178895 -0.07278283 34.28656769 -0.07808304 C43.65966578 -0.09658407 53.03270701 -0.10475376 62.40582275 -0.10317993 C71.13147135 -0.10197925 79.8568723 -0.12306692 88.58245826 -0.15466726 C96.08243715 -0.18085724 103.58233531 -0.19154605 111.08235955 -0.19026911 C115.55788139 -0.18976018 120.03318322 -0.19540496 124.50865936 -0.21662521 C128.721113 -0.23605298 132.93313784 -0.2361013 137.14560699 -0.22159195 C138.68666717 -0.2195082 140.2277545 -0.22417882 141.76876831 -0.23631287 C150.91778153 -0.30365329 159.45598281 -0.31318405 166.46539307 6.30258179 C166.90883057 6.97160522 167.35226807 7.64062866 167.80914307 8.32992554 C168.27320557 9.0015271 168.73726807 9.67312866 169.21539307 10.36508179 C171.1225357 13.68214772 171.44400463 16.4161172 171.48614502 20.16268921 C171.50539787 21.65520454 171.50539787 21.65520454 171.52503967 23.1778717 C171.53242661 24.25285416 171.53981354 25.32783661 171.54742432 26.43539429 C171.55549606 27.54417435 171.56356781 28.65295441 171.57188416 29.79533386 C171.58572257 32.14482053 171.59644581 34.49432729 171.60430908 36.84384155 C171.6214926 40.42357929 171.66537897 44.00238647 171.70953369 47.58187866 C171.71966342 49.86637709 171.72817864 52.15088336 171.73492432 54.43539429 C171.7524324 55.50025558 171.76994049 56.56511688 171.78797913 57.6622467 C171.76637712 65.1256483 170.7324508 70.80469391 165.27398682 76.32601929 C164.60496338 76.78105835 163.93593994 77.23609741 163.24664307 77.70492554 C162.5750415 78.17801147 161.90343994 78.65109741 161.21148682 79.13851929 C157.39091788 81.40575629 154.16444459 81.39895883 149.81410217 81.41459656 C149.15156439 81.41827325 148.48902661 81.42194993 147.80641192 81.42573804 C145.58180992 81.43676895 143.35725464 81.44061771 141.13262939 81.44442749 C139.53927462 81.45069265 137.9459213 81.4573395 136.35256958 81.46434021 C131.11544817 81.48537882 125.87832648 81.4957432 120.64117432 81.50570679 C118.83756686 81.50975458 117.03395955 81.51387151 115.2303524 81.51805687 C106.75571722 81.53710902 98.28109075 81.55133934 89.80643827 81.55966884 C80.02846851 81.56943825 70.2507253 81.59574991 60.47283536 81.63616973 C52.91262554 81.66634794 45.35248059 81.68113938 37.79221171 81.68444985 C33.27811329 81.68679863 28.76425689 81.6957364 24.25022316 81.72091103 C20.00088421 81.74422631 15.75194604 81.74841119 11.50255966 81.73814964 C9.94656095 81.73765499 8.39054229 81.74395465 6.83460426 81.75770569 C-1.20835412 81.82478582 -7.80727725 81.86677132 -14.69085693 77.26742554 C-16.74945068 75.23226929 -16.74945068 75.23226929 -18.12835693 73.20492554 C-18.83798584 72.19752319 -18.83798584 72.19752319 -19.56195068 71.16976929 C-21.52215053 67.86659516 -21.82561559 65.12788257 -21.86785889 61.37216187 C-21.88069412 60.37715164 -21.89352936 59.38214142 -21.90675354 58.35697937 C-21.91414047 57.28199692 -21.9215274 56.20701447 -21.92913818 55.09945679 C-21.93720993 53.99067673 -21.94528168 52.88189667 -21.95359802 51.73951721 C-21.96743644 49.39003054 -21.97815967 47.04052379 -21.98602295 44.69100952 C-22.00320646 41.11127179 -22.04709284 37.5324646 -22.09124756 33.95297241 C-22.10137728 31.66847398 -22.10989251 29.38396771 -22.11663818 27.09945679 C-22.14290031 25.50216484 -22.14290031 25.50216484 -22.16969299 23.87260437 C-22.14926226 16.81387259 -21.22033054 11.06568938 -16.27870178 5.74772644 C-11.17260237 1.21084997 -6.704938 0.01907154 0 0 Z " fill="#FBFCEF" transform="translate(876.6908569335938,458.7325744628906)"/>
<path d="M0 0 C0.99485916 -0.00953201 1.98971832 -0.01906403 3.01472473 -0.02888489 C4.61171455 -0.02751778 4.61171455 -0.02751778 6.2409668 -0.02612305 C7.34691696 -0.03040817 8.45286713 -0.0346933 9.59233093 -0.03910828 C11.92987382 -0.0448451 14.26743457 -0.04535662 16.60498047 -0.04101562 C20.16689837 -0.03786241 23.72798005 -0.06130052 27.28979492 -0.08666992 C29.5651845 -0.08894376 31.84057631 -0.08964602 34.1159668 -0.08862305 C35.70384758 -0.10243767 35.70384758 -0.10243767 37.32380676 -0.11653137 C44.18836282 -0.07395723 50.36558094 0.41344557 55.90112305 4.9230957 C56.57014648 5.77774414 56.57014648 5.77774414 57.25268555 6.6496582 C57.94491211 7.49657227 57.94491211 7.49657227 58.65112305 8.3605957 C61.17950715 12.30616325 62.12821159 15.82655751 62.16821289 20.48876953 C62.1809726 21.50364944 62.1937323 22.51852936 62.20687866 23.56416321 C62.20910431 24.65069687 62.21132996 25.73723053 62.21362305 26.85668945 C62.22360825 28.54890877 62.22360825 28.54890877 62.23379517 30.27531433 C62.24391006 32.65992607 62.24861255 35.04456605 62.24829102 37.42919922 C62.25265738 41.06371125 62.28897263 44.69700205 62.3269043 48.33129883 C62.33277413 50.65225823 62.33674241 52.97322339 62.33862305 55.29418945 C62.35299408 56.37465042 62.36736511 57.45511139 62.38217163 58.5683136 C62.33712904 66.06657845 61.3276966 71.78491574 55.8425293 77.33325195 C55.17350586 77.78829102 54.50448242 78.24333008 53.81518555 78.7121582 C53.14358398 79.18524414 52.47198242 79.65833008 51.7800293 80.14575195 C48.44564377 82.12447355 45.68183946 82.40986596 41.890625 82.45166016 C40.36807854 82.47091301 40.36807854 82.47091301 38.81477356 82.49055481 C37.71791733 82.49794174 36.6210611 82.50532867 35.4909668 82.51293945 C33.79450264 82.52504707 33.79450264 82.52504707 32.06376648 82.53739929 C29.66720105 82.55123831 27.27061592 82.56196128 24.87402344 82.56982422 C21.22186522 82.58700914 17.57061874 82.63089528 13.91870117 82.67504883 C11.58862969 82.6851784 9.25855053 82.69369367 6.9284668 82.70043945 C5.84173172 82.71794754 4.75499664 82.73545563 3.6353302 82.75349426 C-3.89359757 82.73212585 -9.60839044 81.7485755 -15.1809082 76.23950195 C-15.8634668 75.2359668 -15.8634668 75.2359668 -16.55981445 74.2121582 C-17.26944336 73.20475586 -17.26944336 73.20475586 -17.9934082 72.17700195 C-19.9721298 68.84261642 -20.25752221 66.07881212 -20.29931641 62.28759766 C-20.31215164 61.27256668 -20.32498688 60.25753571 -20.33821106 59.21174622 C-20.34559799 58.11488998 -20.35298492 57.01803375 -20.3605957 55.88793945 C-20.36866745 54.75696335 -20.3767392 53.62598724 -20.38505554 52.46073914 C-20.39889456 50.06417371 -20.40961753 47.66758858 -20.41748047 45.27099609 C-20.43466539 41.61883788 -20.47855153 37.9675914 -20.52270508 34.31567383 C-20.53283465 31.98560235 -20.54134992 29.65552318 -20.5480957 27.32543945 C-20.56560379 26.23870438 -20.58311188 25.1519693 -20.60115051 24.03230286 C-20.58094107 16.91172584 -19.69918284 11.12176187 -14.7101593 5.7558136 C-10.22002335 1.76371823 -5.95187415 0.03149213 0 0 Z " fill="#FEFCED" transform="translate(1094.122314453125,560.725341796875)"/>
<path d="M0 0 C0.99485916 -0.00953201 1.98971832 -0.01906403 3.01472473 -0.02888489 C4.61171455 -0.02751778 4.61171455 -0.02751778 6.2409668 -0.02612305 C7.34691696 -0.03040817 8.45286713 -0.0346933 9.59233093 -0.03910828 C11.92987382 -0.0448451 14.26743457 -0.04535662 16.60498047 -0.04101562 C20.16689837 -0.03786241 23.72798005 -0.06130052 27.28979492 -0.08666992 C29.5651845 -0.08894376 31.84057631 -0.08964602 34.1159668 -0.08862305 C35.70384758 -0.10243767 35.70384758 -0.10243767 37.32380676 -0.11653137 C44.18836282 -0.07395723 50.36558094 0.41344557 55.90112305 4.9230957 C56.57014648 5.77774414 56.57014648 5.77774414 57.25268555 6.6496582 C57.94491211 7.49657227 57.94491211 7.49657227 58.65112305 8.3605957 C61.17950715 12.30616325 62.12821159 15.82655751 62.16821289 20.48876953 C62.1809726 21.50364944 62.1937323 22.51852936 62.20687866 23.56416321 C62.20910431 24.65069687 62.21132996 25.73723053 62.21362305 26.85668945 C62.22360825 28.54890877 62.22360825 28.54890877 62.23379517 30.27531433 C62.24391006 32.65992607 62.24861255 35.04456605 62.24829102 37.42919922 C62.25265738 41.06371125 62.28897263 44.69700205 62.3269043 48.33129883 C62.33277413 50.65225823 62.33674241 52.97322339 62.33862305 55.29418945 C62.35299408 56.37465042 62.36736511 57.45511139 62.38217163 58.5683136 C62.33712904 66.06657845 61.3276966 71.78491574 55.8425293 77.33325195 C55.17350586 77.78829102 54.50448242 78.24333008 53.81518555 78.7121582 C53.14358398 79.18524414 52.47198242 79.65833008 51.7800293 80.14575195 C48.44564377 82.12447355 45.68183946 82.40986596 41.890625 82.45166016 C40.36807854 82.47091301 40.36807854 82.47091301 38.81477356 82.49055481 C37.71791733 82.49794174 36.6210611 82.50532867 35.4909668 82.51293945 C33.79450264 82.52504707 33.79450264 82.52504707 32.06376648 82.53739929 C29.66720105 82.55123831 27.27061592 82.56196128 24.87402344 82.56982422 C21.22186522 82.58700914 17.57061874 82.63089528 13.91870117 82.67504883 C11.58862969 82.6851784 9.25855053 82.69369367 6.9284668 82.70043945 C5.84173172 82.71794754 4.75499664 82.73545563 3.6353302 82.75349426 C-3.89359757 82.73212585 -9.60839044 81.7485755 -15.1809082 76.23950195 C-15.8634668 75.2359668 -15.8634668 75.2359668 -16.55981445 74.2121582 C-17.26944336 73.20475586 -17.26944336 73.20475586 -17.9934082 72.17700195 C-19.9721298 68.84261642 -20.25752221 66.07881212 -20.29931641 62.28759766 C-20.31215164 61.27256668 -20.32498688 60.25753571 -20.33821106 59.21174622 C-20.34559799 58.11488998 -20.35298492 57.01803375 -20.3605957 55.88793945 C-20.36866745 54.75696335 -20.3767392 53.62598724 -20.38505554 52.46073914 C-20.39889456 50.06417371 -20.40961753 47.66758858 -20.41748047 45.27099609 C-20.43466539 41.61883788 -20.47855153 37.9675914 -20.52270508 34.31567383 C-20.53283465 31.98560235 -20.54134992 29.65552318 -20.5480957 27.32543945 C-20.56560379 26.23870438 -20.58311188 25.1519693 -20.60115051 24.03230286 C-20.58094107 16.91172584 -19.69918284 11.12176187 -14.7101593 5.7558136 C-10.22002335 1.76371823 -5.95187415 0.03149213 0 0 Z " fill="#FDFCED" transform="translate(984.122314453125,560.725341796875)"/>
<path d="M0 0 C0.99163147 -0.0127597 1.98326294 -0.02551941 3.00494385 -0.03866577 C4.06646667 -0.04089142 5.1279895 -0.04311707 6.22167969 -0.04541016 C7.87704742 -0.05539536 7.87704742 -0.05539536 9.56585693 -0.06558228 C11.89919369 -0.07569712 14.23255931 -0.08039966 16.56591797 -0.08007812 C20.11702817 -0.08444007 23.6668839 -0.12074297 27.21777344 -0.15869141 C29.48990463 -0.16456218 31.76204169 -0.16852983 34.03417969 -0.17041016 C35.08760559 -0.18478119 36.14103149 -0.19915222 37.22637939 -0.21395874 C44.76038845 -0.16779577 51.40828319 1.00098667 57.04980469 6.32568359 C57.49324219 6.99470703 57.93667969 7.66373047 58.39355469 8.35302734 C59.08964844 9.36042969 59.08964844 9.36042969 59.79980469 10.38818359 C61.72507942 13.73678643 62.02886127 16.49533826 62.07055664 20.27758789 C62.08980949 21.80013435 62.08980949 21.80013435 62.10945129 23.35343933 C62.11683823 24.45029556 62.12422516 25.54715179 62.13183594 26.67724609 C62.13990768 27.8082222 62.14797943 28.9391983 62.15629578 30.10444641 C62.1701348 32.50101184 62.18085776 34.89759697 62.1887207 37.29418945 C62.20590562 40.94634767 62.24979177 44.59759415 62.29394531 48.24951172 C62.30407488 50.5795832 62.31259016 52.90966236 62.31933594 55.23974609 C62.33684402 56.32648117 62.35435211 57.41321625 62.37239075 58.53288269 C62.35102233 66.06181046 61.36747198 71.77660333 55.85839844 77.34912109 C55.189375 77.80416016 54.52035156 78.25919922 53.83105469 78.72802734 C53.15945313 79.20111328 52.48785156 79.67419922 51.79589844 80.16162109 C48.46151291 82.14034269 45.6977086 82.4257351 41.90649414 82.4675293 C40.38394768 82.48678215 40.38394768 82.48678215 38.8306427 82.50642395 C37.73378647 82.51381088 36.63693024 82.52119781 35.50683594 82.52880859 C33.81037178 82.54091621 33.81037178 82.54091621 32.07963562 82.55326843 C29.68307019 82.56710745 27.28648507 82.57783042 24.88989258 82.58569336 C21.23773436 82.60287828 17.58648788 82.64676442 13.93457031 82.69091797 C11.60449883 82.70104754 9.27441967 82.70956281 6.94433594 82.71630859 C5.85760086 82.73381668 4.77086578 82.75132477 3.65119934 82.7693634 C-3.87772843 82.74799499 -9.59252129 81.76444464 -15.16503906 76.25537109 C-15.84759766 75.25183594 -15.84759766 75.25183594 -16.54394531 74.22802734 C-17.25357422 73.220625 -17.25357422 73.220625 -17.97753906 72.19287109 C-19.95626066 68.85848556 -20.24165307 66.09468126 -20.28344727 62.3034668 C-20.2962825 61.28843582 -20.30911774 60.27340485 -20.32234192 59.22761536 C-20.32972885 58.13075912 -20.33711578 57.03390289 -20.34472656 55.90380859 C-20.35279831 54.77283249 -20.36087006 53.64185638 -20.3691864 52.47660828 C-20.38302542 50.08004285 -20.39374839 47.68345772 -20.40161133 45.28686523 C-20.41879625 41.63470702 -20.46268239 37.98346054 -20.50683594 34.33154297 C-20.51696551 32.00147149 -20.52548078 29.67139232 -20.53222656 27.34130859 C-20.54973465 26.25457352 -20.56724274 25.16783844 -20.58528137 24.048172 C-20.56507193 16.92759498 -19.6833137 11.13763101 -14.69429016 5.77168274 C-10.21279957 1.7872738 -5.93994794 0.05218463 0 0 Z " fill="#FCFCEE" transform="translate(875.1064453125,560.70947265625)"/>
<path d="M0 0 C0.97483841 -0.00953201 1.94967682 -0.01906403 2.95405579 -0.02888489 C3.99684189 -0.02797348 5.03962799 -0.02706207 6.11401367 -0.02612305 C7.73964485 -0.03255074 7.73964485 -0.03255074 9.39811707 -0.03910828 C11.68858137 -0.04484461 13.97906388 -0.04535698 16.26953125 -0.04101562 C19.75902731 -0.03786254 23.24766966 -0.06130059 26.73706055 -0.08666992 C28.96687719 -0.08894378 31.1966961 -0.08964601 33.42651367 -0.08862305 C34.98158379 -0.10243767 34.98158379 -0.10243767 36.56806946 -0.11653137 C43.93526998 -0.06991044 49.34986269 1.05352791 55.71948242 4.9621582 C62.02781609 11.44572337 62.58598901 18.34993282 62.57104492 27.0793457 C62.57961517 28.19850372 62.58818542 29.31766174 62.59701538 30.47073364 C62.60845845 32.82901311 62.60953464 35.18736313 62.60083008 37.5456543 C62.59451292 41.13234231 62.64146137 44.71572158 62.69213867 48.30200195 C62.69668586 50.60277908 62.69809109 52.90356499 62.69604492 55.2043457 C62.71446442 56.26507294 62.73288391 57.32580017 62.75186157 58.41867065 C62.65838066 66.0314329 60.72359964 71.28560159 55.96948242 77.2746582 C51.79159817 81.06888096 47.54921506 82.39029205 41.98242188 82.45166016 C40.45987541 82.47091301 40.45987541 82.47091301 38.90657043 82.49055481 C37.8097142 82.49794174 36.71285797 82.50532867 35.58276367 82.51293945 C33.88629951 82.52504707 33.88629951 82.52504707 32.15556335 82.53739929 C29.75899793 82.55123831 27.3624128 82.56196128 24.96582031 82.56982422 C21.3136621 82.58700914 17.66241562 82.63089528 14.01049805 82.67504883 C11.68042657 82.6851784 9.3503474 82.69369367 7.02026367 82.70043945 C5.93352859 82.71794754 4.84679352 82.73545563 3.72712708 82.75349426 C-2.72059711 82.73519449 -7.67329903 82.04350724 -13.03051758 78.2746582 C-15.34301758 75.8996582 -15.34301758 75.8996582 -17.03051758 73.2746582 C-17.55137939 72.47141113 -18.07224121 71.66816406 -18.60888672 70.84057617 C-20.63957356 65.74694539 -20.47886935 61.03124007 -20.46411133 55.5949707 C-20.46935318 54.46823944 -20.47459503 53.34150818 -20.47999573 52.18063354 C-20.48640669 49.80198997 -20.48509096 47.42331466 -20.4765625 45.04467773 C-20.46806277 41.41893588 -20.49681289 37.79477543 -20.52856445 34.16918945 C-20.53017695 31.85278367 -20.52959801 29.53637512 -20.52661133 27.2199707 C-20.53784531 26.14264679 -20.54907928 25.06532288 -20.56065369 23.95535278 C-20.49567766 16.88276664 -19.57185699 11.08532297 -14.61863708 5.75540161 C-10.16547844 1.79809741 -5.90704943 0.03190587 0 0 Z " fill="#D72980" transform="translate(1203.030517578125,560.725341796875)"/>
<path d="M0 0 C1.52231987 -0.01913956 1.52231987 -0.01913956 3.07539368 -0.03866577 C4.70519417 -0.04200424 4.70519417 -0.04200424 6.36791992 -0.04541016 C7.49606613 -0.05206696 8.62421234 -0.05872375 9.7865448 -0.06558228 C12.17115654 -0.07569717 14.55579652 -0.08039966 16.94042969 -0.08007812 C20.57494172 -0.08444449 24.20823252 -0.12075974 27.8425293 -0.15869141 C30.1634887 -0.16456124 32.48445385 -0.16852952 34.80541992 -0.17041016 C36.42611137 -0.19196671 36.42611137 -0.19196671 38.07954407 -0.21395874 C45.17098203 -0.17135998 50.96108711 0.73538319 56.30500793 5.70254517 C60.29462405 10.19120564 62.02434183 14.46486196 62.07641602 20.4128418 C62.08917572 21.40770096 62.10193542 22.40256012 62.11508179 23.42756653 C62.11730743 24.49222641 62.11953308 25.55688629 62.12182617 26.65380859 C62.13181137 28.31273384 62.13181137 28.31273384 62.14199829 30.00517273 C62.15211235 32.34270569 62.1568157 34.68026745 62.15649414 37.01782227 C62.16086034 40.57991572 62.19717584 44.1407629 62.23510742 47.70263672 C62.24097732 49.97802313 62.24494555 52.25341539 62.24682617 54.52880859 C62.2611972 55.58739578 62.27556824 56.64598297 62.29037476 57.73664856 C62.24483673 65.1692216 61.18510886 70.85216067 55.75073242 76.34912109 C55.08170898 76.80416016 54.41268555 77.25919922 53.72338867 77.72802734 C53.05178711 78.20111328 52.38018555 78.67419922 51.68823242 79.16162109 C48.35384689 81.14034269 45.59004259 81.4257351 41.79882812 81.4675293 C40.27628166 81.48678215 40.27628166 81.48678215 38.72297668 81.50642395 C37.62612045 81.51381088 36.52926422 81.52119781 35.39916992 81.52880859 C33.70270576 81.54091621 33.70270576 81.54091621 31.9719696 81.55326843 C29.57540418 81.56710745 27.17881905 81.57783042 24.78222656 81.58569336 C21.13006835 81.60287828 17.47882187 81.64676442 13.8269043 81.69091797 C11.49683282 81.70104754 9.16675365 81.70956281 6.83666992 81.71630859 C5.74993484 81.73381668 4.66319977 81.75132477 3.54353333 81.7693634 C-3.98539445 81.74799499 -9.70018731 80.76444464 -15.27270508 75.25537109 C-15.95526367 74.25183594 -15.95526367 74.25183594 -16.65161133 73.22802734 C-17.36124023 72.220625 -17.36124023 72.220625 -18.08520508 71.19287109 C-20.04540492 67.88969697 -20.34886999 65.15098438 -20.39111328 61.39526367 C-20.40394852 60.40025345 -20.41678375 59.40524323 -20.43000793 58.38008118 C-20.43739487 57.30509872 -20.4447818 56.23011627 -20.45239258 55.12255859 C-20.46046432 54.01377853 -20.46853607 52.90499847 -20.47685242 51.76261902 C-20.49069083 49.41313235 -20.50141407 47.06362559 -20.50927734 44.71411133 C-20.52646086 41.13437359 -20.57034724 37.55556641 -20.61450195 33.97607422 C-20.62463168 31.69157579 -20.6331469 29.40706952 -20.63989258 27.12255859 C-20.66615471 25.52526665 -20.66615471 25.52526665 -20.69294739 23.89570618 C-20.67251665 16.83697439 -19.74358494 11.08879119 -14.80195618 5.77082825 C-10.27499766 1.74853062 -5.99309134 0.0514201 0 0 Z " fill="#FEFCED" transform="translate(875.214111328125,763.70947265625)"/>
<path d="M0 0 C1.52231987 -0.01913956 1.52231987 -0.01913956 3.07539368 -0.03866577 C4.70519417 -0.04200424 4.70519417 -0.04200424 6.36791992 -0.04541016 C7.49606613 -0.05206696 8.62421234 -0.05872375 9.7865448 -0.06558228 C12.17115654 -0.07569717 14.55579652 -0.08039966 16.94042969 -0.08007812 C20.57494172 -0.08444449 24.20823252 -0.12075974 27.8425293 -0.15869141 C30.1634887 -0.16456124 32.48445385 -0.16852952 34.80541992 -0.17041016 C36.42611137 -0.19196671 36.42611137 -0.19196671 38.07954407 -0.21395874 C45.17098203 -0.17135998 50.96108711 0.73538319 56.30500793 5.70254517 C60.29462405 10.19120564 62.02434183 14.46486196 62.07641602 20.4128418 C62.08917572 21.40770096 62.10193542 22.40256012 62.11508179 23.42756653 C62.11730743 24.49222641 62.11953308 25.55688629 62.12182617 26.65380859 C62.13181137 28.31273384 62.13181137 28.31273384 62.14199829 30.00517273 C62.15211235 32.34270569 62.1568157 34.68026745 62.15649414 37.01782227 C62.16086034 40.57991572 62.19717584 44.1407629 62.23510742 47.70263672 C62.24097732 49.97802313 62.24494555 52.25341539 62.24682617 54.52880859 C62.2611972 55.58739578 62.27556824 56.64598297 62.29037476 57.73664856 C62.24483673 65.1692216 61.18510886 70.85216067 55.75073242 76.34912109 C55.08170898 76.80416016 54.41268555 77.25919922 53.72338867 77.72802734 C53.05178711 78.20111328 52.38018555 78.67419922 51.68823242 79.16162109 C48.35384689 81.14034269 45.59004259 81.4257351 41.79882812 81.4675293 C40.27628166 81.48678215 40.27628166 81.48678215 38.72297668 81.50642395 C37.62612045 81.51381088 36.52926422 81.52119781 35.39916992 81.52880859 C33.70270576 81.54091621 33.70270576 81.54091621 31.9719696 81.55326843 C29.57540418 81.56710745 27.17881905 81.57783042 24.78222656 81.58569336 C21.13006835 81.60287828 17.47882187 81.64676442 13.8269043 81.69091797 C11.49683282 81.70104754 9.16675365 81.70956281 6.83666992 81.71630859 C5.74993484 81.73381668 4.66319977 81.75132477 3.54353333 81.7693634 C-3.98539445 81.74799499 -9.70018731 80.76444464 -15.27270508 75.25537109 C-15.95526367 74.25183594 -15.95526367 74.25183594 -16.65161133 73.22802734 C-17.36124023 72.220625 -17.36124023 72.220625 -18.08520508 71.19287109 C-20.04540492 67.88969697 -20.34886999 65.15098438 -20.39111328 61.39526367 C-20.40394852 60.40025345 -20.41678375 59.40524323 -20.43000793 58.38008118 C-20.43739487 57.30509872 -20.4447818 56.23011627 -20.45239258 55.12255859 C-20.46046432 54.01377853 -20.46853607 52.90499847 -20.47685242 51.76261902 C-20.49069083 49.41313235 -20.50141407 47.06362559 -20.50927734 44.71411133 C-20.52646086 41.13437359 -20.57034724 37.55556641 -20.61450195 33.97607422 C-20.62463168 31.69157579 -20.6331469 29.40706952 -20.63989258 27.12255859 C-20.66615471 25.52526665 -20.66615471 25.52526665 -20.69294739 23.89570618 C-20.67251665 16.83697439 -19.74358494 11.08879119 -14.80195618 5.77082825 C-10.27499766 1.74853062 -5.99309134 0.0514201 0 0 Z " fill="#FEFCED" transform="translate(984.214111328125,662.70947265625)"/>
<path d="M0 0 C1.52231987 -0.01913956 1.52231987 -0.01913956 3.07539368 -0.03866577 C4.70519417 -0.04200424 4.70519417 -0.04200424 6.36791992 -0.04541016 C7.49606613 -0.05206696 8.62421234 -0.05872375 9.7865448 -0.06558228 C12.17115654 -0.07569717 14.55579652 -0.08039966 16.94042969 -0.08007812 C20.57494172 -0.08444449 24.20823252 -0.12075974 27.8425293 -0.15869141 C30.1634887 -0.16456124 32.48445385 -0.16852952 34.80541992 -0.17041016 C36.42611137 -0.19196671 36.42611137 -0.19196671 38.07954407 -0.21395874 C45.57780892 -0.16891615 51.29614621 0.84051629 56.84448242 6.32568359 C57.29952148 6.99470703 57.75456055 7.66373047 58.22338867 8.35302734 C58.69647461 9.02462891 59.16956055 9.69623047 59.65698242 10.38818359 C61.61718226 13.69135772 61.92064733 16.43007031 61.96289062 20.18579102 C61.98214348 21.67830635 61.98214348 21.67830635 62.00178528 23.20097351 C62.00917221 24.27595596 62.01655914 25.35093842 62.02416992 26.45849609 C62.03224167 27.56727615 62.04031342 28.67605621 62.04862976 29.81843567 C62.06246818 32.16792234 62.07319141 34.51742909 62.08105469 36.86694336 C62.0982382 40.44668109 62.14212458 44.02548828 62.1862793 47.60498047 C62.19640902 49.8894789 62.20492425 52.17398517 62.21166992 54.45849609 C62.22917801 55.52335739 62.2466861 56.58821869 62.26472473 57.68534851 C62.24312272 65.14875011 61.20919641 70.82779572 55.75073242 76.34912109 C55.08170898 76.80416016 54.41268555 77.25919922 53.72338867 77.72802734 C53.05178711 78.20111328 52.38018555 78.67419922 51.68823242 79.16162109 C48.35384689 81.14034269 45.59004259 81.4257351 41.79882812 81.4675293 C40.27628166 81.48678215 40.27628166 81.48678215 38.72297668 81.50642395 C37.62612045 81.51381088 36.52926422 81.52119781 35.39916992 81.52880859 C33.70270576 81.54091621 33.70270576 81.54091621 31.9719696 81.55326843 C29.57540418 81.56710745 27.17881905 81.57783042 24.78222656 81.58569336 C21.13006835 81.60287828 17.47882187 81.64676442 13.8269043 81.69091797 C11.49683282 81.70104754 9.16675365 81.70956281 6.83666992 81.71630859 C5.74993484 81.73381668 4.66319977 81.75132477 3.54353333 81.7693634 C-3.98539445 81.74799499 -9.70018731 80.76444464 -15.27270508 75.25537109 C-15.95526367 74.25183594 -15.95526367 74.25183594 -16.65161133 73.22802734 C-17.36124023 72.220625 -17.36124023 72.220625 -18.08520508 71.19287109 C-20.04540492 67.88969697 -20.34886999 65.15098438 -20.39111328 61.39526367 C-20.40394852 60.40025345 -20.41678375 59.40524323 -20.43000793 58.38008118 C-20.43739487 57.30509872 -20.4447818 56.23011627 -20.45239258 55.12255859 C-20.46046432 54.01377853 -20.46853607 52.90499847 -20.47685242 51.76261902 C-20.49069083 49.41313235 -20.50141407 47.06362559 -20.50927734 44.71411133 C-20.52646086 41.13437359 -20.57034724 37.55556641 -20.61450195 33.97607422 C-20.62463168 31.69157579 -20.6331469 29.40706952 -20.63989258 27.12255859 C-20.66615471 25.52526665 -20.66615471 25.52526665 -20.69294739 23.89570618 C-20.67251665 16.83697439 -19.74358494 11.08879119 -14.80195618 5.77082825 C-10.27499766 1.74853062 -5.99309134 0.0514201 0 0 Z " fill="#FEFBED" transform="translate(984.214111328125,763.70947265625)"/>
<path d="M0 0 C1.52231987 -0.01913956 1.52231987 -0.01913956 3.07539368 -0.03866577 C4.70519417 -0.04200424 4.70519417 -0.04200424 6.36791992 -0.04541016 C7.49606613 -0.05206696 8.62421234 -0.05872375 9.7865448 -0.06558228 C12.17115654 -0.07569717 14.55579652 -0.08039966 16.94042969 -0.08007812 C20.57494172 -0.08444449 24.20823252 -0.12075974 27.8425293 -0.15869141 C30.1634887 -0.16456124 32.48445385 -0.16852952 34.80541992 -0.17041016 C36.42611137 -0.19196671 36.42611137 -0.19196671 38.07954407 -0.21395874 C45.57780892 -0.16891615 51.29614621 0.84051629 56.84448242 6.32568359 C57.29952148 6.99470703 57.75456055 7.66373047 58.22338867 8.35302734 C58.69647461 9.02462891 59.16956055 9.69623047 59.65698242 10.38818359 C61.61718226 13.69135772 61.92064733 16.43007031 61.96289062 20.18579102 C61.98214348 21.67830635 61.98214348 21.67830635 62.00178528 23.20097351 C62.00917221 24.27595596 62.01655914 25.35093842 62.02416992 26.45849609 C62.03224167 27.56727615 62.04031342 28.67605621 62.04862976 29.81843567 C62.06246818 32.16792234 62.07319141 34.51742909 62.08105469 36.86694336 C62.0982382 40.44668109 62.14212458 44.02548828 62.1862793 47.60498047 C62.19640902 49.8894789 62.20492425 52.17398517 62.21166992 54.45849609 C62.22917801 55.52335739 62.2466861 56.58821869 62.26472473 57.68534851 C62.24312272 65.14875011 61.20919641 70.82779572 55.75073242 76.34912109 C55.08170898 76.80416016 54.41268555 77.25919922 53.72338867 77.72802734 C53.05178711 78.20111328 52.38018555 78.67419922 51.68823242 79.16162109 C48.35384689 81.14034269 45.59004259 81.4257351 41.79882812 81.4675293 C40.27628166 81.48678215 40.27628166 81.48678215 38.72297668 81.50642395 C37.62612045 81.51381088 36.52926422 81.52119781 35.39916992 81.52880859 C33.70270576 81.54091621 33.70270576 81.54091621 31.9719696 81.55326843 C29.57540418 81.56710745 27.17881905 81.57783042 24.78222656 81.58569336 C21.13006835 81.60287828 17.47882187 81.64676442 13.8269043 81.69091797 C11.49683282 81.70104754 9.16675365 81.70956281 6.83666992 81.71630859 C5.74993484 81.73381668 4.66319977 81.75132477 3.54353333 81.7693634 C-3.98539445 81.74799499 -9.70018731 80.76444464 -15.27270508 75.25537109 C-15.95526367 74.25183594 -15.95526367 74.25183594 -16.65161133 73.22802734 C-17.36124023 72.220625 -17.36124023 72.220625 -18.08520508 71.19287109 C-20.04540492 67.88969697 -20.34886999 65.15098438 -20.39111328 61.39526367 C-20.40394852 60.40025345 -20.41678375 59.40524323 -20.43000793 58.38008118 C-20.43739487 57.30509872 -20.4447818 56.23011627 -20.45239258 55.12255859 C-20.46046432 54.01377853 -20.46853607 52.90499847 -20.47685242 51.76261902 C-20.49069083 49.41313235 -20.50141407 47.06362559 -20.50927734 44.71411133 C-20.52646086 41.13437359 -20.57034724 37.55556641 -20.61450195 33.97607422 C-20.62463168 31.69157579 -20.6331469 29.40706952 -20.63989258 27.12255859 C-20.66615471 25.52526665 -20.66615471 25.52526665 -20.69294739 23.89570618 C-20.67251665 16.83697439 -19.74358494 11.08879119 -14.80195618 5.77082825 C-10.27499766 1.74853062 -5.99309134 0.0514201 0 0 Z " fill="#FDFCED" transform="translate(875.214111328125,662.70947265625)"/>
<path d="M0 0 C0.99485916 -0.00953201 1.98971832 -0.01906403 3.01472473 -0.02888489 C4.61171455 -0.02751778 4.61171455 -0.02751778 6.2409668 -0.02612305 C7.34691696 -0.03040817 8.45286713 -0.0346933 9.59233093 -0.03910828 C11.92987382 -0.0448451 14.26743457 -0.04535662 16.60498047 -0.04101562 C20.16689837 -0.03786241 23.72798005 -0.06130052 27.28979492 -0.08666992 C29.5651845 -0.08894376 31.84057631 -0.08964602 34.1159668 -0.08862305 C35.70384758 -0.10243767 35.70384758 -0.10243767 37.32380676 -0.11653137 C44.18836282 -0.07395723 50.36558094 0.41344557 55.90112305 4.9230957 C56.57014648 5.77774414 56.57014648 5.77774414 57.25268555 6.6496582 C57.94491211 7.49657227 57.94491211 7.49657227 58.65112305 8.3605957 C61.15684239 12.27079467 62.12774919 15.77515703 62.16821289 20.39697266 C62.1809726 21.39183182 62.1937323 22.38669098 62.20687866 23.41169739 C62.20910431 24.47635727 62.21132996 25.54101715 62.21362305 26.63793945 C62.22360825 28.2968647 62.22360825 28.2968647 62.23379517 29.98930359 C62.24390923 32.32683655 62.24861257 34.66439831 62.24829102 37.00195312 C62.25265722 40.56404658 62.28897272 44.12489376 62.3269043 47.68676758 C62.33277419 49.96215398 62.33674243 52.23754625 62.33862305 54.51293945 C62.35299408 55.57152664 62.36736511 56.63011383 62.38217163 57.72077942 C62.33663361 65.15335246 61.27690574 70.83629153 55.8425293 76.33325195 C55.17350586 76.78829102 54.50448242 77.24333008 53.81518555 77.7121582 C53.14358398 78.18524414 52.47198242 78.65833008 51.7800293 79.14575195 C48.44564377 81.12447355 45.68183946 81.40986596 41.890625 81.45166016 C40.36807854 81.47091301 40.36807854 81.47091301 38.81477356 81.49055481 C37.71791733 81.49794174 36.6210611 81.50532867 35.4909668 81.51293945 C33.79450264 81.52504707 33.79450264 81.52504707 32.06376648 81.53739929 C29.66720105 81.55123831 27.27061592 81.56196128 24.87402344 81.56982422 C21.22186522 81.58700914 17.57061874 81.63089528 13.91870117 81.67504883 C11.58862969 81.6851784 9.25855053 81.69369367 6.9284668 81.70043945 C5.84173172 81.71794754 4.75499664 81.73545563 3.6353302 81.75349426 C-3.89359757 81.73212585 -9.60839044 80.7485755 -15.1809082 75.23950195 C-15.8634668 74.2359668 -15.8634668 74.2359668 -16.55981445 73.2121582 C-17.26944336 72.20475586 -17.26944336 72.20475586 -17.9934082 71.17700195 C-19.95360805 67.87382782 -20.25707311 65.13511524 -20.29931641 61.37939453 C-20.31215164 60.38438431 -20.32498688 59.38937408 -20.33821106 58.36421204 C-20.34559799 57.28922958 -20.35298492 56.21424713 -20.3605957 55.10668945 C-20.36866745 53.99790939 -20.3767392 52.88912933 -20.38505554 51.74674988 C-20.39889396 49.39726321 -20.40961719 47.04775645 -20.41748047 44.69824219 C-20.43466398 41.11850445 -20.47855036 37.53969727 -20.52270508 33.96020508 C-20.5328348 31.67570665 -20.54135003 29.39120038 -20.5480957 27.10668945 C-20.57435783 25.50939751 -20.57435783 25.50939751 -20.60115051 23.87983704 C-20.58071978 16.82110525 -19.65178806 11.07292205 -14.7101593 5.75495911 C-10.2187763 1.76427107 -5.95218904 0.03149379 0 0 Z " fill="#FEFBEE" transform="translate(1094.122314453125,763.725341796875)"/>
<path d="M0 0 C0.99485916 -0.00953201 1.98971832 -0.01906403 3.01472473 -0.02888489 C4.61171455 -0.02751778 4.61171455 -0.02751778 6.2409668 -0.02612305 C7.34691696 -0.03040817 8.45286713 -0.0346933 9.59233093 -0.03910828 C11.92987382 -0.0448451 14.26743457 -0.04535662 16.60498047 -0.04101562 C20.16689837 -0.03786241 23.72798005 -0.06130052 27.28979492 -0.08666992 C29.5651845 -0.08894376 31.84057631 -0.08964602 34.1159668 -0.08862305 C35.70384758 -0.10243767 35.70384758 -0.10243767 37.32380676 -0.11653137 C44.18836282 -0.07395723 50.36558094 0.41344557 55.90112305 4.9230957 C56.57014648 5.77774414 56.57014648 5.77774414 57.25268555 6.6496582 C57.94491211 7.49657227 57.94491211 7.49657227 58.65112305 8.3605957 C61.15684239 12.27079467 62.12774919 15.77515703 62.16821289 20.39697266 C62.1809726 21.39183182 62.1937323 22.38669098 62.20687866 23.41169739 C62.20910431 24.47635727 62.21132996 25.54101715 62.21362305 26.63793945 C62.22360825 28.2968647 62.22360825 28.2968647 62.23379517 29.98930359 C62.24390923 32.32683655 62.24861257 34.66439831 62.24829102 37.00195312 C62.25265722 40.56404658 62.28897272 44.12489376 62.3269043 47.68676758 C62.33277419 49.96215398 62.33674243 52.23754625 62.33862305 54.51293945 C62.35299408 55.57152664 62.36736511 56.63011383 62.38217163 57.72077942 C62.33663361 65.15335246 61.27690574 70.83629153 55.8425293 76.33325195 C55.17350586 76.78829102 54.50448242 77.24333008 53.81518555 77.7121582 C53.14358398 78.18524414 52.47198242 78.65833008 51.7800293 79.14575195 C48.44564377 81.12447355 45.68183946 81.40986596 41.890625 81.45166016 C40.36807854 81.47091301 40.36807854 81.47091301 38.81477356 81.49055481 C37.71791733 81.49794174 36.6210611 81.50532867 35.4909668 81.51293945 C33.79450264 81.52504707 33.79450264 81.52504707 32.06376648 81.53739929 C29.66720105 81.55123831 27.27061592 81.56196128 24.87402344 81.56982422 C21.22186522 81.58700914 17.57061874 81.63089528 13.91870117 81.67504883 C11.58862969 81.6851784 9.25855053 81.69369367 6.9284668 81.70043945 C5.84173172 81.71794754 4.75499664 81.73545563 3.6353302 81.75349426 C-3.89359757 81.73212585 -9.60839044 80.7485755 -15.1809082 75.23950195 C-15.8634668 74.2359668 -15.8634668 74.2359668 -16.55981445 73.2121582 C-17.26944336 72.20475586 -17.26944336 72.20475586 -17.9934082 71.17700195 C-19.95360805 67.87382782 -20.25707311 65.13511524 -20.29931641 61.37939453 C-20.31215164 60.38438431 -20.32498688 59.38937408 -20.33821106 58.36421204 C-20.34559799 57.28922958 -20.35298492 56.21424713 -20.3605957 55.10668945 C-20.36866745 53.99790939 -20.3767392 52.88912933 -20.38505554 51.74674988 C-20.39889396 49.39726321 -20.40961719 47.04775645 -20.41748047 44.69824219 C-20.43466398 41.11850445 -20.47855036 37.53969727 -20.52270508 33.96020508 C-20.5328348 31.67570665 -20.54135003 29.39120038 -20.5480957 27.10668945 C-20.57435783 25.50939751 -20.57435783 25.50939751 -20.60115051 23.87983704 C-20.58071978 16.82110525 -19.65178806 11.07292205 -14.7101593 5.75495911 C-10.2187763 1.76427107 -5.95218904 0.03149379 0 0 Z " fill="#FEFCED" transform="translate(1094.122314453125,662.725341796875)"/>
<path d="M0 0 C0.99163147 -0.0127597 1.98326294 -0.02551941 3.00494385 -0.03866577 C4.06646667 -0.04089142 5.1279895 -0.04311707 6.22167969 -0.04541016 C7.87704742 -0.05539536 7.87704742 -0.05539536 9.56585693 -0.06558228 C11.89919369 -0.07569712 14.23255931 -0.08039966 16.56591797 -0.08007812 C20.11702817 -0.08444007 23.6668839 -0.12074297 27.21777344 -0.15869141 C29.48990463 -0.16456218 31.76204169 -0.16852983 34.03417969 -0.17041016 C35.08760559 -0.18478119 36.14103149 -0.19915222 37.22637939 -0.21395874 C44.76038845 -0.16779577 51.40828319 1.00098667 57.04980469 6.32568359 C57.49324219 6.99470703 57.93667969 7.66373047 58.39355469 8.35302734 C59.08964844 9.36042969 59.08964844 9.36042969 59.79980469 10.38818359 C61.70694732 13.70524952 62.02841625 16.43921901 62.07055664 20.18579102 C62.08980949 21.67830635 62.08980949 21.67830635 62.10945129 23.20097351 C62.11683823 24.27595596 62.12422516 25.35093842 62.13183594 26.45849609 C62.13990768 27.56727615 62.14797943 28.67605621 62.15629578 29.81843567 C62.17013419 32.16792234 62.18085743 34.51742909 62.1887207 36.86694336 C62.20590422 40.44668109 62.2497906 44.02548828 62.29394531 47.60498047 C62.30407504 49.8894789 62.31259026 52.17398517 62.31933594 54.45849609 C62.33684402 55.52335739 62.35435211 56.58821869 62.37239075 57.68534851 C62.35078874 65.14875011 61.31686243 70.82779572 55.85839844 76.34912109 C55.189375 76.80416016 54.52035156 77.25919922 53.83105469 77.72802734 C53.15945313 78.20111328 52.48785156 78.67419922 51.79589844 79.16162109 C48.46151291 81.14034269 45.6977086 81.4257351 41.90649414 81.4675293 C40.38394768 81.48678215 40.38394768 81.48678215 38.8306427 81.50642395 C37.73378647 81.51381088 36.63693024 81.52119781 35.50683594 81.52880859 C33.81037178 81.54091621 33.81037178 81.54091621 32.07963562 81.55326843 C29.68307019 81.56710745 27.28648507 81.57783042 24.88989258 81.58569336 C21.23773436 81.60287828 17.58648788 81.64676442 13.93457031 81.69091797 C11.60449883 81.70104754 9.27441967 81.70956281 6.94433594 81.71630859 C5.85760086 81.73381668 4.77086578 81.75132477 3.65119934 81.7693634 C-3.87772843 81.74799499 -9.59252129 80.76444464 -15.16503906 75.25537109 C-15.84759766 74.25183594 -15.84759766 74.25183594 -16.54394531 73.22802734 C-17.25357422 72.220625 -17.25357422 72.220625 -17.97753906 71.19287109 C-19.9377389 67.88969697 -20.24120397 65.15098438 -20.28344727 61.39526367 C-20.2962825 60.40025345 -20.30911774 59.40524323 -20.32234192 58.38008118 C-20.32972885 57.30509872 -20.33711578 56.23011627 -20.34472656 55.12255859 C-20.35279831 54.01377853 -20.36087006 52.90499847 -20.3691864 51.76261902 C-20.38302482 49.41313235 -20.39374805 47.06362559 -20.40161133 44.71411133 C-20.41879484 41.13437359 -20.46268122 37.55556641 -20.50683594 33.97607422 C-20.51696566 31.69157579 -20.52548089 29.40706952 -20.53222656 27.12255859 C-20.55848869 25.52526665 -20.55848869 25.52526665 -20.58528137 23.89570618 C-20.56485063 16.83697439 -19.63591892 11.08879119 -14.69429016 5.77082825 C-10.21155577 1.78782468 -5.94025892 0.05218736 0 0 Z " fill="#FDFCED" transform="translate(1094.1064453125,458.70947265625)"/>
<path d="M0 0 C0.97483841 -0.00953201 1.94967682 -0.01906403 2.95405579 -0.02888489 C3.99684189 -0.02797348 5.03962799 -0.02706207 6.11401367 -0.02612305 C7.73964485 -0.03255074 7.73964485 -0.03255074 9.39811707 -0.03910828 C11.68858137 -0.04484461 13.97906388 -0.04535698 16.26953125 -0.04101562 C19.75902731 -0.03786254 23.24766966 -0.06130059 26.73706055 -0.08666992 C28.96687719 -0.08894378 31.1966961 -0.08964601 33.42651367 -0.08862305 C34.98158379 -0.10243767 34.98158379 -0.10243767 36.56806946 -0.11653137 C43.93526998 -0.06991044 49.34986269 1.05352791 55.71948242 4.9621582 C61.9122474 11.32694443 62.57755639 18.06421889 62.53588867 26.6418457 C62.54208725 27.71661163 62.54828583 28.79137756 62.55467224 29.89871216 C62.56174775 32.16285298 62.55863631 34.42704607 62.54589844 36.69116211 C62.53205049 40.13274155 62.56612016 43.5715898 62.60424805 47.01293945 C62.60519957 49.22257553 62.60333864 51.43221497 62.59838867 53.6418457 C62.61164688 54.65882538 62.62490509 55.67580505 62.63856506 56.72360229 C62.54712607 63.83306694 61.01290844 69.35679426 56.96948242 75.2746582 C52.15191558 79.96738467 47.50844734 81.37782552 40.96069336 81.45166016 C39.46829132 81.47091301 39.46829132 81.47091301 37.94573975 81.49055481 C36.87591858 81.49794174 35.80609741 81.50532867 34.70385742 81.51293945 C33.59649231 81.5210112 32.4891272 81.52908295 31.34820557 81.53739929 C29.00469522 81.55122431 26.66116486 81.56195353 24.31762695 81.56982422 C20.74676038 81.58702679 17.17682225 81.63092753 13.60620117 81.67504883 C11.32626004 81.68517722 9.04631107 81.69369287 6.76635742 81.70043945 C5.70463318 81.71794754 4.64290894 81.73545563 3.54901123 81.75349426 C-3.10930868 81.73416074 -7.35159751 80.81504031 -13.03051758 77.2746582 C-15.08911133 75.02075195 -15.08911133 75.02075195 -16.46801758 72.7121582 C-16.94110352 71.94774414 -17.41418945 71.18333008 -17.90161133 70.39575195 C-19.7166566 66.98547659 -20.16387818 64.27245346 -20.20751953 60.47119141 C-20.22035477 59.49620193 -20.23319 58.52121246 -20.24641418 57.51667786 C-20.25380112 56.46356918 -20.26118805 55.41046051 -20.26879883 54.32543945 C-20.27687057 53.23885544 -20.28494232 52.15227142 -20.29325867 51.03276062 C-20.30709646 48.73035272 -20.31781997 46.42792433 -20.32568359 44.12548828 C-20.34286565 40.6181707 -20.38675226 37.11180326 -20.4309082 33.60473633 C-20.44103809 31.36581096 -20.44955327 29.12687758 -20.45629883 26.88793945 C-20.47380692 25.84495193 -20.491315 24.80196442 -20.50935364 23.72737122 C-20.48869418 16.73099836 -19.51217274 11.02356869 -14.61836243 5.75410461 C-10.16379349 1.79862208 -5.90725104 0.03190696 0 0 Z " fill="#D72980" transform="translate(1203.030517578125,763.725341796875)"/>
<path d="M0 0 C0.97483841 -0.00953201 1.94967682 -0.01906403 2.95405579 -0.02888489 C3.99684189 -0.02797348 5.03962799 -0.02706207 6.11401367 -0.02612305 C7.73964485 -0.03255074 7.73964485 -0.03255074 9.39811707 -0.03910828 C11.68858137 -0.04484461 13.97906388 -0.04535698 16.26953125 -0.04101562 C19.75902731 -0.03786254 23.24766966 -0.06130059 26.73706055 -0.08666992 C28.96687719 -0.08894378 31.1966961 -0.08964601 33.42651367 -0.08862305 C34.98158379 -0.10243767 34.98158379 -0.10243767 36.56806946 -0.11653137 C43.93526998 -0.06991044 49.34986269 1.05352791 55.71948242 4.9621582 C61.9122474 11.32694443 62.57755639 18.06421889 62.53588867 26.6418457 C62.54208725 27.71661163 62.54828583 28.79137756 62.55467224 29.89871216 C62.56174775 32.16285298 62.55863631 34.42704607 62.54589844 36.69116211 C62.53205049 40.13274155 62.56612016 43.5715898 62.60424805 47.01293945 C62.60519957 49.22257553 62.60333864 51.43221497 62.59838867 53.6418457 C62.61164688 54.65882538 62.62490509 55.67580505 62.63856506 56.72360229 C62.53266698 64.95727419 60.36949356 71.78746729 54.53198242 77.7746582 C48.00624893 81.59459976 41.87579261 81.59511962 34.50854492 81.6105957 C33.4040097 81.6172525 32.29947449 81.6239093 31.16146851 81.63076782 C28.82991191 81.64087201 26.49832652 81.64558554 24.16674805 81.64526367 C20.61352554 81.64963478 17.06154775 81.68597432 13.50854492 81.72387695 C11.23771581 81.72974607 8.96688084 81.73371483 6.69604492 81.7355957 C5.11286972 81.75715225 5.11286972 81.75715225 3.49771118 81.77914429 C-3.13338943 81.73838575 -7.37187979 80.79416899 -13.03051758 77.2746582 C-15.08911133 75.02075195 -15.08911133 75.02075195 -16.46801758 72.7121582 C-16.94110352 71.94774414 -17.41418945 71.18333008 -17.90161133 70.39575195 C-19.7166566 66.98547659 -20.16387818 64.27245346 -20.20751953 60.47119141 C-20.22035477 59.49620193 -20.23319 58.52121246 -20.24641418 57.51667786 C-20.25380112 56.46356918 -20.26118805 55.41046051 -20.26879883 54.32543945 C-20.27687057 53.23885544 -20.28494232 52.15227142 -20.29325867 51.03276062 C-20.30709646 48.73035272 -20.31781997 46.42792433 -20.32568359 44.12548828 C-20.34286565 40.6181707 -20.38675226 37.11180326 -20.4309082 33.60473633 C-20.44103809 31.36581096 -20.44955327 29.12687758 -20.45629883 26.88793945 C-20.47380692 25.84495193 -20.491315 24.80196442 -20.50935364 23.72737122 C-20.48869418 16.73099836 -19.51217274 11.02356869 -14.61836243 5.75410461 C-10.16379349 1.79862208 -5.90725104 0.03190696 0 0 Z " fill="#D72980" transform="translate(1203.030517578125,662.725341796875)"/>
<path d="M0 0 C0.97483841 -0.00953201 1.94967682 -0.01906403 2.95405579 -0.02888489 C3.99684189 -0.02797348 5.03962799 -0.02706207 6.11401367 -0.02612305 C7.73964485 -0.03255074 7.73964485 -0.03255074 9.39811707 -0.03910828 C11.68858137 -0.04484461 13.97906388 -0.04535698 16.26953125 -0.04101562 C19.75902731 -0.03786254 23.24766966 -0.06130059 26.73706055 -0.08666992 C28.96687719 -0.08894378 31.1966961 -0.08964601 33.42651367 -0.08862305 C34.98158379 -0.10243767 34.98158379 -0.10243767 36.56806946 -0.11653137 C43.93526998 -0.06991044 49.34986269 1.05352791 55.71948242 4.9621582 C61.9122474 11.32694443 62.57755639 18.06421889 62.53588867 26.6418457 C62.54208725 27.71661163 62.54828583 28.79137756 62.55467224 29.89871216 C62.56174775 32.16285298 62.55863631 34.42704607 62.54589844 36.69116211 C62.53205049 40.13274155 62.56612016 43.5715898 62.60424805 47.01293945 C62.60519957 49.22257553 62.60333864 51.43221497 62.59838867 53.6418457 C62.61164688 54.65882538 62.62490509 55.67580505 62.63856506 56.72360229 C62.54779725 63.78088191 61.10204829 69.45166244 56.96948242 75.2746582 C52.09670081 79.30270764 47.4286458 81.38018734 41.07421875 81.45166016 C40.07920853 81.46449539 39.0841983 81.47733063 38.05903625 81.49055481 C36.9840538 81.49794174 35.90907135 81.50532867 34.80151367 81.51293945 C33.13834358 81.52504707 33.13834358 81.52504707 31.4415741 81.53739929 C29.09208743 81.55123771 26.74258067 81.56196094 24.39306641 81.56982422 C20.81332867 81.58700773 17.23452148 81.63089411 13.6550293 81.67504883 C11.37053087 81.68517855 9.0860246 81.69369378 6.80151367 81.70043945 C5.20422173 81.72670158 5.20422173 81.72670158 3.57466125 81.75349426 C-3.09321057 81.73419483 -7.34426001 80.82191296 -13.03051758 77.2746582 C-15.08911133 75.02075195 -15.08911133 75.02075195 -16.46801758 72.7121582 C-16.94110352 71.94774414 -17.41418945 71.18333008 -17.90161133 70.39575195 C-19.7166566 66.98547659 -20.16387818 64.27245346 -20.20751953 60.47119141 C-20.22035477 59.49620193 -20.23319 58.52121246 -20.24641418 57.51667786 C-20.25380112 56.46356918 -20.26118805 55.41046051 -20.26879883 54.32543945 C-20.27687057 53.23885544 -20.28494232 52.15227142 -20.29325867 51.03276062 C-20.30709646 48.73035272 -20.31781997 46.42792433 -20.32568359 44.12548828 C-20.34286565 40.6181707 -20.38675226 37.11180326 -20.4309082 33.60473633 C-20.44103809 31.36581096 -20.44955327 29.12687758 -20.45629883 26.88793945 C-20.47380692 25.84495193 -20.491315 24.80196442 -20.50935364 23.72737122 C-20.48869418 16.73099836 -19.51217274 11.02356869 -14.61836243 5.75410461 C-10.16379349 1.79862208 -5.90725104 0.03190696 0 0 Z " fill="#D72980" transform="translate(1203.030517578125,865.725341796875)"/>
<path d="M0 0 C0.97483841 -0.00953201 1.94967682 -0.01906403 2.95405579 -0.02888489 C3.99684189 -0.02797348 5.03962799 -0.02706207 6.11401367 -0.02612305 C7.73964485 -0.03255074 7.73964485 -0.03255074 9.39811707 -0.03910828 C11.68858137 -0.04484461 13.97906388 -0.04535698 16.26953125 -0.04101562 C19.75902731 -0.03786254 23.24766966 -0.06130059 26.73706055 -0.08666992 C28.96687719 -0.08894378 31.1966961 -0.08964601 33.42651367 -0.08862305 C34.98158379 -0.10243767 34.98158379 -0.10243767 36.56806946 -0.11653137 C43.93526998 -0.06991044 49.34986269 1.05352791 55.71948242 4.9621582 C61.9122474 11.32694443 62.57755639 18.06421889 62.53588867 26.6418457 C62.54208725 27.71661163 62.54828583 28.79137756 62.55467224 29.89871216 C62.56174775 32.16285298 62.55863631 34.42704607 62.54589844 36.69116211 C62.53205049 40.13274155 62.56612016 43.5715898 62.60424805 47.01293945 C62.60519957 49.22257553 62.60333864 51.43221497 62.59838867 53.6418457 C62.61164688 54.65882538 62.62490509 55.67580505 62.63856506 56.72360229 C62.54712607 63.83306694 61.01290844 69.35679426 56.96948242 75.2746582 C52.15191558 79.96738467 47.50844734 81.37782552 40.96069336 81.45166016 C39.46829132 81.47091301 39.46829132 81.47091301 37.94573975 81.49055481 C36.87591858 81.49794174 35.80609741 81.50532867 34.70385742 81.51293945 C33.59649231 81.5210112 32.4891272 81.52908295 31.34820557 81.53739929 C29.00469522 81.55122431 26.66116486 81.56195353 24.31762695 81.56982422 C20.74676038 81.58702679 17.17682225 81.63092753 13.60620117 81.67504883 C11.32626004 81.68517722 9.04631107 81.69369287 6.76635742 81.70043945 C5.70463318 81.71794754 4.64290894 81.73545563 3.54901123 81.75349426 C-3.10930868 81.73416074 -7.35159751 80.81504031 -13.03051758 77.2746582 C-15.08911133 75.02075195 -15.08911133 75.02075195 -16.46801758 72.7121582 C-16.94110352 71.94774414 -17.41418945 71.18333008 -17.90161133 70.39575195 C-19.7166566 66.98547659 -20.16387818 64.27245346 -20.20751953 60.47119141 C-20.22035477 59.49620193 -20.23319 58.52121246 -20.24641418 57.51667786 C-20.25380112 56.46356918 -20.26118805 55.41046051 -20.26879883 54.32543945 C-20.27687057 53.23885544 -20.28494232 52.15227142 -20.29325867 51.03276062 C-20.30709646 48.73035272 -20.31781997 46.42792433 -20.32568359 44.12548828 C-20.34286565 40.6181707 -20.38675226 37.11180326 -20.4309082 33.60473633 C-20.44103809 31.36581096 -20.44955327 29.12687758 -20.45629883 26.88793945 C-20.47380692 25.84495193 -20.491315 24.80196442 -20.50935364 23.72737122 C-20.48869418 16.73099836 -19.51217274 11.02356869 -14.61836243 5.75410461 C-10.16379349 1.79862208 -5.90725104 0.03190696 0 0 Z " fill="#D72980" transform="translate(1203.030517578125,458.725341796875)"/>
<path d="M0 0 C2.93545824 2.32812206 4.01099714 4.88300907 4.8125 8.4375 C5.4545714 15.8299977 5.89896893 23.01590597 1.8125 29.4375 C-1.93080106 31.85020582 -4.84530363 31.63771674 -9.12890625 31.046875 C-11.1875 30.4375 -11.1875 30.4375 -13.1875 28.125 C-15.91734503 20.78854147 -16.82174053 11.6800544 -13.9375 4.25 C-10.54633728 -1.20008295 -6.05599769 -1.55725655 0 0 Z " fill="#232323" transform="translate(1229.1875,370.5625)"/>
<path d="M0 0 C3.625 0.25 3.625 0.25 5.5 1.5625 C8.43667809 5.96751714 8.10332636 11.166769 7.625 16.25 C6.46067931 18.73050929 5.53074048 20.34425952 3.625 22.25 C-2.70514354 22.71889952 -2.70514354 22.71889952 -5.25 20.9375 C-8.18667809 16.53248286 -7.85332636 11.333231 -7.375 6.25 C-4.60131167 0.3408379 -4.60131167 0.3408379 0 0 Z " fill="#232323" transform="translate(1004.375,893.75)"/>
<path d="M0 0 C3.38879801 0.3388798 4.66384629 1.04066581 7.125 3.3125 C6.96 4.09625 6.795 4.88 6.625 5.6875 C5.85762437 9.71123591 5.85762437 9.71123591 8.125 13.3125 C8.6265316 16.57245538 8.42354288 17.87065654 6.5625 20.625 C3.19728821 22.95476201 1.13527077 22.88539582 -2.875 22.3125 C-5.375 20.75 -5.375 20.75 -6.875 18.3125 C-6.66071429 12.09821429 -6.66071429 12.09821429 -3.875 9.3125 C-4.535 8.6525 -5.195 7.9925 -5.875 7.3125 C-5.43283498 2.89084977 -4.76817939 0.51828037 0 0 Z " fill="#232323" transform="translate(1004.875,589.6875)"/>
<path d="M0 0 C2.48942176 3.42710395 2.26744897 6.88204368 2.25 11 C2.25515625 12.216875 2.2603125 13.43375 2.265625 14.6875 C2.01838301 17.77075304 1.79576001 19.51356306 0 22 C-2.9375 22.875 -2.9375 22.875 -6 23 C-9 21 -9 21 -10 18 C-10.12070269 15.68980664 -10.175363 13.3758126 -10.1875 11.0625 C-10.20167969 9.83660156 -10.21585938 8.61070312 -10.23046875 7.34765625 C-10.01569806 4.22802104 -9.74816032 2.54556678 -8 0 C-5.04063954 -1.47968023 -3.13239866 -0.84835797 0 0 Z " fill="#FDFDEF" transform="translate(1228,375)"/>
<path d="M0 0 C2.375 1.875 2.375 1.875 4 4 C4 4.66 4 5.32 4 6 C3.443125 5.855625 2.88625 5.71125 2.3125 5.5625 C-0.11384195 4.97230872 -2.54906345 4.476571 -5 4 C-5.66 5.65 -6.32 7.3 -7 9 C-5.9275 8.7525 -4.855 8.505 -3.75 8.25 C0 8 0 8 2.4375 9.5625 C4.44543026 12.69487121 4.60975382 14.34147708 4 18 C2.375 20.375 2.375 20.375 0 22 C-3.45238782 22.50347322 -5.26782014 22.41556154 -8.3125 20.6875 C-11.02444354 17.97555646 -11.15627973 15.28401517 -11.1875 11.625 C-11.14034296 7.99980258 -10.84512468 5.20469023 -9 2 C-5.50875983 -0.32749345 -4.10777749 -0.50299316 0 0 Z " fill="#232323" transform="translate(1118,692)"/>
<path d="M0 0 C3.1359157 1.77984405 3.84102736 2.52308207 5 6 C5.39700355 10.93023018 5.52945902 15.60672907 3 20 C-0.49124017 22.32749345 -1.89222251 22.50299316 -6 22 C-8.375 20.125 -8.375 20.125 -10 18 C-10 17.34 -10 16.68 -10 16 C-9.1646875 16.2165625 -9.1646875 16.2165625 -8.3125 16.4375 C-3.70663689 17.59483624 -3.70663689 17.59483624 1 18 C1 16.35 1 14.7 1 13 C-0.0725 13.2475 -1.145 13.495 -2.25 13.75 C-6 14 -6 14 -8.4375 12.4375 C-10.44543026 9.30512879 -10.60975382 7.65852292 -10 4 C-7.20125452 -0.09047416 -4.83066808 -0.70447243 0 0 Z " fill="#232323" transform="translate(1117,590)"/>
<path d="M0 0 C0.66 0 1.32 0 2 0 C2 4.62 2 9.24 2 14 C2.66 14 3.32 14 4 14 C4 14.99 4 15.98 4 17 C3.34 17 2.68 17 2 17 C2 18.65 2 20.3 2 22 C1.01 22 0.02 22 -1 22 C-1 20.35 -1 18.7 -1 17 C-4.3 17 -7.6 17 -11 17 C-10.51638472 12.26747906 -8.54805615 9.81892651 -5.5 6.25 C-4.6853125 5.28578125 -3.870625 4.3215625 -3.03125 3.328125 C-1 1 -1 1 0 0 Z " fill="#232323" transform="translate(899,692)"/>
<path d="M0 0 C3.96 0 7.92 0 12 0 C12 0.99 12 1.98 12 3 C8.7 3 5.4 3 2 3 C2.33 4.32 2.66 5.64 3 7 C3.9075 6.9175 4.815 6.835 5.75 6.75 C9 7 9 7 11.375 8.625 C13.51323431 11.75011169 13.6829669 13.28162465 13 17 C10.51397551 20.36344489 9.08574477 21.80057749 4.9375 22.5625 C1.39166151 21.88350965 0.17050819 20.83835687 -2 18 C-2 17.34 -2 16.68 -2 16 C1.875 16.875 1.875 16.875 3 18 C5.5 18.16666667 5.5 18.16666667 8 18 C9.28322547 16.9404123 9.28322547 16.9404123 9.125 14.5 C9.28322547 12.0595877 9.28322547 12.0595877 8 11 C4.66381769 10.85742811 1.34024394 10.95771843 -2 11 C-1.34 7.37 -0.68 3.74 0 0 Z " fill="#242424" transform="translate(1000,692)"/>
<path d="M0 0 C2.9375 2.375 2.9375 2.375 5 5 C5 5.66 5 6.32 5 7 C2.13275314 6.42655063 1.1385485 6.1385485 -1 4 C-3.68839385 3.73008094 -6.29141936 3.91262643 -9 4 C-9.25028811 5.58013217 -9.47440946 7.16442306 -9.6875 8.75 C-9.81511719 9.63171875 -9.94273437 10.5134375 -10.07421875 11.421875 C-9.9825537 14.60602942 -9.23062776 15.76937224 -7 18 C-4.04279372 18.66680368 -4.04279372 18.66680368 -1 18 C1.37719693 16.12498069 1.37719693 16.12498069 3 14 C3.99 14.33 4.98 14.66 6 15 C4.19587357 18.26460973 3.16605307 19.88929795 0 22 C-4.96495273 22.45971784 -8.06167696 22.15065843 -12 19 C-14.35857464 15.96754689 -14.35933916 12.73934186 -14.25390625 8.96484375 C-13.87642532 6.04372208 -12.85858628 4.25685476 -11 2 C-7.57840405 -0.56619697 -4.15155867 -0.50984054 0 0 Z " fill="#232323" transform="translate(955,487)"/>
<path d="M0 0 C2.375 1.5 2.375 1.5 4 3 C3.125 7.75 3.125 7.75 2 10 C2.66 10 3.32 10 4 10 C4.8125 13.1875 4.8125 13.1875 5 17 C2.56927503 20.46194162 1.12178713 21.79395747 -3.0625 22.5625 C-6.60833849 21.88350965 -7.82949181 20.83835687 -10 18 C-10 17.34 -10 16.68 -10 16 C-6.125 16.875 -6.125 16.875 -5 18 C-3.33382885 18.04063832 -1.66611905 18.042721 0 18 C0.33 16.35 0.66 14.7 1 13 C-1.475 12.01 -1.475 12.01 -4 11 C-4 10.01 -4 9.02 -4 8 C-2.35 7.67 -0.7 7.34 1 7 C0.67 6.01 0.34 5.02 0 4 C-2.41645782 3.83312552 -2.41645782 3.83312552 -5 4 C-5.66 4.66 -6.32 5.32 -7 6 C-7.99 6 -8.98 6 -10 6 C-7.90021558 0.15060054 -6.23502468 -0.49880197 0 0 Z " fill="#232323" transform="translate(1117,792)"/>
<path d="M0 0 C2.71867065 1.93168704 3.79199117 3.12174048 4.5625 6.375 C3.44445727 11.59253275 -0.68841133 15.12560756 -5 18 C-2.03 18.33 0.94 18.66 4 19 C4 19.99 4 20.98 4 22 C-0.62 22 -5.24 22 -10 22 C-7.84854153 16.62135383 -5.80315179 14.72918264 -1.58203125 11.0625 C0.32125674 9.06596678 0.32125674 9.06596678 -0.26171875 6.25 C-0.62716797 5.13625 -0.62716797 5.13625 -1 4 C-2.98 4 -4.96 4 -7 4 C-7 4.66 -7 5.32 -7 6 C-7.99 6 -8.98 6 -10 6 C-7.92315486 0.21450282 -6.21759409 -0.62175941 0 0 Z " fill="#232323" transform="translate(1008,792)"/>
<path d="M0 0 C2.5 -0.375 2.5 -0.375 5 0 C7.15942819 3.23914229 7.27232978 4.24859733 7.25 8 C7.25515625 8.86625 7.2603125 9.7325 7.265625 10.625 C7 13 7 13 5 16 C2.5 16.375 2.5 16.375 0 16 C-2.15942819 12.76085771 -2.27232978 11.75140267 -2.25 8 C-2.25515625 7.13375 -2.2603125 6.2675 -2.265625 5.375 C-2 3 -2 3 0 0 Z " fill="#FFFCF0" transform="translate(1002,897)"/>
<path d="M0 0 C1.875 1.125 1.875 1.125 3 3 C3.39365568 6.14924548 3.52854531 8.11909116 1.875 10.875 C-0.88090884 12.52854531 -2.85075452 12.39365568 -6 12 C-7.875 10.875 -7.875 10.875 -9 9 C-9.39365568 5.85075452 -9.52854531 3.88090884 -7.875 1.125 C-5.11909116 -0.52854531 -3.14924548 -0.39365568 0 0 Z " fill="#26C342" transform="translate(163,86)"/>
<path d="M0 0 C1.875 1.125 1.875 1.125 3 3 C3.39365568 6.14924548 3.52854531 8.11909116 1.875 10.875 C-0.88090884 12.52854531 -2.85075452 12.39365568 -6 12 C-7.875 10.875 -7.875 10.875 -9 9 C-9.39365568 5.85075452 -9.52854531 3.88090884 -7.875 1.125 C-5.11909116 -0.52854531 -3.14924548 -0.39365568 0 0 Z " fill="#FAB734" transform="translate(143,86)"/>
<path d="M0 0 C1.875 1.125 1.875 1.125 3 3 C3.39365568 6.14924548 3.52854531 8.11909116 1.875 10.875 C-0.88090884 12.52854531 -2.85075452 12.39365568 -6 12 C-7.875 10.875 -7.875 10.875 -9 9 C-9.39365568 5.85075452 -9.52854531 3.88090884 -7.875 1.125 C-5.11909116 -0.52854531 -3.14924548 -0.39365568 0 0 Z " fill="#FB5C55" transform="translate(123,86)"/>
<path d="M0 0 C4.62 0 9.24 0 14 0 C13.14124047 3.43503813 12.20581911 5.6876724 10.5625 8.75 C8.30639733 13.14483584 6.98392329 17.16983111 6 22 C5.01 22 4.02 22 3 22 C3.36102976 15.38112113 5.14300667 8.85699333 10 4 C6.7 3.67 3.4 3.34 0 3 C0 2.01 0 1.02 0 0 Z " fill="#232323" transform="translate(889,590)"/>
<path d="M0 0 C0.99 0 1.98 0 3 0 C3 1.98 3 3.96 3 6 C4.98 6 6.96 6 9 6 C9 6.99 9 7.98 9 9 C7.02 9 5.04 9 3 9 C3 10.98 3 12.96 3 15 C2.01 15 1.02 15 0 15 C0 13.02 0 11.04 0 9 C-1.98 9 -3.96 9 -6 9 C-6 8.01 -6 7.02 -6 6 C-4.02 6 -2.04 6 0 6 C0 4.02 0 2.04 0 0 Z " fill="#FFFFFF" transform="translate(1222,796)"/>
<path d="M0 0 C1.32 0.99 2.64 1.98 4 3 C4.598125 2.67 5.19625 2.34 5.8125 2 C8 1 8 1 11 1 C10.67 1.598125 10.34 2.19625 10 2.8125 C8.79212012 5.05386471 8.79212012 5.05386471 9 8 C9.94978897 10.15028304 9.94978897 10.15028304 11 12 C7.89448334 12 6.64738916 11.4606285 4 10 C2.68 10.99 1.36 11.98 0 13 C0 9 0 9 2 6 C1.01 5.01 0.02 4.02 -1 3 C-0.67 2.01 -0.34 1.02 0 0 Z " fill="#FFFFFF" transform="translate(1219,595)"/>
<path d="M0 0 C0 7.26 0 14.52 0 22 C-0.99 22 -1.98 22 -3 22 C-3.33 16.72 -3.66 11.44 -4 6 C-5.98 6.99 -5.98 6.99 -8 8 C-8 7.01 -8 6.02 -8 5 C-2.65116279 0 -2.65116279 0 0 0 Z " fill="#232323" transform="translate(898,792)"/>
<path d="M0 0 C2.5625 0.1875 2.5625 0.1875 4.5625 2.1875 C4.00694444 6.74305556 4.00694444 6.74305556 2.5625 8.1875 C0.125 8.375 0.125 8.375 -2.4375 8.1875 C-3.0975 7.5275 -3.7575 6.8675 -4.4375 6.1875 C-3.71780303 0.28598485 -3.71780303 0.28598485 0 0 Z " fill="#FFFCEF" transform="translate(1114.4375,702.8125)"/>
<path d="M0 0 C2.5625 0.1875 2.5625 0.1875 4.5625 2.1875 C4.00694444 6.74305556 4.00694444 6.74305556 2.5625 8.1875 C0.125 8.375 0.125 8.375 -2.4375 8.1875 C-3.0975 7.5275 -3.7575 6.8675 -4.4375 6.1875 C-3.71780303 0.28598485 -3.71780303 0.28598485 0 0 Z " fill="#FEFDEF" transform="translate(1005.4375,600.8125)"/>
<path d="M0 0 C2.5625 0.1875 2.5625 0.1875 4.5625 2.1875 C4.00694444 6.74305556 4.00694444 6.74305556 2.5625 8.1875 C0.125 8.375 0.125 8.375 -2.4375 8.1875 C-3.0975 7.5275 -3.7575 6.8675 -4.4375 6.1875 C-3.71780303 0.28598485 -3.71780303 0.28598485 0 0 Z " fill="#FFFDEF" transform="translate(1114.4375,592.8125)"/>
<path d="M0 0 C0 3 0 3 -1 5 C6.59 5 14.18 5 22 5 C22 5.33 22 5.66 22 6 C11.11 6.495 11.11 6.495 0 7 C0.33 8.32 0.66 9.64 1 11 C-1.31 9.35 -3.62 7.7 -6 6 C-4 4 -2 2 0 0 Z " fill="#232323" transform="translate(1107,496)"/>
<path d="M0 0 C4.95 0 9.9 0 15 0 C15 0.99 15 1.98 15 3 C10.05 3 5.1 3 0 3 C0 2.01 0 1.02 0 0 Z " fill="#FFFFFF" transform="translate(1216,907)"/>
<path d="M0 0 C4.95 0 9.9 0 15 0 C15 0.99 15 1.98 15 3 C10.05 3 5.1 3 0 3 C0 2.01 0 1.02 0 0 Z " fill="#FFFFFF" transform="translate(1216,901)"/>
<path d="M0 0 C4.95 0 9.9 0 15 0 C15 0.99 15 1.98 15 3 C10.05 3 5.1 3 0 3 C0 2.01 0 1.02 0 0 Z " fill="#FFFFFF" transform="translate(1216,702)"/>
<path d="M0 0 C4.95 0 9.9 0 15 0 C15 0.99 15 1.98 15 3 C10.05 3 5.1 3 0 3 C0 2.01 0 1.02 0 0 Z " fill="#FFFFFF" transform="translate(1217,497)"/>
<path d="M0 0 C-1.2684375 0.495 -1.2684375 0.495 -2.5625 1 C-8.17831816 4.26738511 -12.30008924 9.08401907 -15 15 C-16 13 -16 13 -15.43359375 11.23046875 C-12.4017104 5.01213544 -7.72865552 -2.31859666 0 0 Z " fill="#D9ECBC" transform="translate(826,312)"/>
<path d="M0 0 C0.33 0 0.66 0 1 0 C1 2.64 1 5.28 1 8 C-1.31 8 -3.62 8 -6 8 C-5.02471263 6.66382648 -4.04466681 5.3311249 -3.0625 4 C-2.24458984 2.88625 -2.24458984 2.88625 -1.41015625 1.75 C-0.94480469 1.1725 -0.47945312 0.595 0 0 Z " fill="#FEFDEF" transform="translate(897,698)"/>
<path d="M0 0 C1.2065625 0.0309375 1.2065625 0.0309375 2.4375 0.0625 C3 2 3 2 3.4375 4.0625 C2.4375 5.0625 2.4375 5.0625 -0.125 5.125 C-1.3315625 5.0940625 -1.3315625 5.0940625 -2.5625 5.0625 C-3.125 3.125 -3.125 3.125 -3.5625 1.0625 C-2.5625 0.0625 -2.5625 0.0625 0 0 Z " fill="#FEFDEF" transform="translate(1005.5625,592.9375)"/>
<path d="M0 0 C-1.5830577 4.2742558 -4.50568404 6.26531794 -8 9 C-6.68994234 5.06982701 -4.75047804 0 0 0 Z " fill="#DC478C" transform="translate(1193,869)"/>
<path d="M0 0 C-1.5830577 4.2742558 -4.50568404 6.26531794 -8 9 C-6.68994234 5.06982701 -4.75047804 0 0 0 Z " fill="#DC478B" transform="translate(1193,767)"/>
<path d="M0 0 C-1.5830577 4.2742558 -4.50568404 6.26531794 -8 9 C-6.68994234 5.06982701 -4.75047804 0 0 0 Z " fill="#DC478B" transform="translate(1193,666)"/>
<path d="M0 0 C-1.5830577 4.2742558 -4.50568404 6.26531794 -8 9 C-6.68994234 5.06982701 -4.75047804 0 0 0 Z " fill="#DC488B" transform="translate(1193,564)"/>
<path d="M0 0 C-1.5830577 4.2742558 -4.50568404 6.26531794 -8 9 C-6.68994234 5.06982701 -4.75047804 0 0 0 Z " fill="#DB488B" transform="translate(1193,462)"/>
</svg>
