<?xml version="1.0" encoding="UTF-8"?>
<svg version="1.1" xmlns="http://www.w3.org/2000/svg" width="2119" height="1261">
<path d="M0 0 C699.27 0 1398.54 0 2119 0 C2119 416.13 2119 832.26 2119 1261 C1419.73 1261 720.46 1261 0 1261 C0 844.87 0 428.74 0 0 Z " fill="#429F46" transform="translate(0,0)"/>
<path d="M0 0 C699.27 0 1398.54 0 2119 0 C2119 416.13 2119 832.26 2119 1261 C1419.73 1261 720.46 1261 0 1261 C0 844.87 0 428.74 0 0 Z M100 107 C99.896875 284.106875 99.79375 461.21375 99.6875 643.6875 C99.64197998 699.71233154 99.59645996 755.73716309 99.54956055 813.4597168 C99.53284354 863.46231765 99.53284354 863.46231765 99.52278137 913.46492004 C99.51794842 936.56121936 99.49804897 959.65744104 99.46937273 982.75371889 C99.43924778 1007.08778204 99.42518162 1031.42180141 99.43218883 1055.7558836 C99.4331601 1059.14488485 99.43395293 1062.53388612 99.43463862 1065.92288744 C99.43477952 1066.58710945 99.43492042 1067.25133146 99.43506559 1067.93568141 C99.43693122 1079.01084443 99.41920633 1090.0859043 99.39596202 1101.16103895 C99.37731472 1110.68825651 99.37657731 1120.21536313 99.3908233 1129.7425881 C99.39842924 1135.1792004 99.39787832 1140.61549324 99.37558711 1146.05207217 C99.35545543 1151.00046147 99.35805148 1155.94828157 99.37930081 1160.89666143 C99.38289181 1162.68230735 99.37797465 1164.46799421 99.36382359 1166.25358766 C99.34589544 1168.66725902 99.35850127 1171.07888255 99.37900752 1173.49248809 C99.36646314 1174.18797711 99.35391875 1174.88346613 99.34099424 1175.60003057 C99.40266954 1178.97576426 100.01130322 1181.01908518 101.73532434 1183.93004788 C106.88417532 1187.19465242 111.87975355 1186.68410662 117.85580301 1186.62674582 C119.20069236 1186.63170265 120.5455751 1186.63885172 121.89044251 1186.64799305 C125.607829 1186.66684672 129.324565 1186.65437326 133.04193486 1186.6370433 C137.09291257 1186.62366307 141.14379436 1186.63927846 145.19476217 1186.65122753 C152.32916451 1186.66823269 159.46337616 1186.6665095 166.59778279 1186.65280981 C177.27822655 1186.63239326 187.95851484 1186.64070336 198.63896201 1186.65472302 C216.83879501 1186.67776186 235.03855826 1186.67695418 253.2383976 1186.66331863 C271.69042184 1186.6495782 290.14240013 1186.64664788 308.59442711 1186.65700531 C309.75844523 1186.65765117 310.92246335 1186.65829704 312.12175475 1186.65896247 C316.86236098 1186.66162872 321.60296716 1186.66437225 326.34357329 1186.66721385 C370.53400453 1186.6936838 414.72440496 1186.69544378 458.9148407 1186.68147659 C460.22522798 1186.68106262 461.53561525 1186.68064864 462.88571124 1186.68022212 C464.19818296 1186.67980747 465.51065468 1186.67939282 466.86289828 1186.67896561 C474.85024858 1186.67644545 482.83759891 1186.67398292 490.82494926 1186.67162752 C491.81675648 1186.67133381 491.81675648 1186.67133381 492.82860021 1186.67103417 C523.45042797 1186.66203347 554.07225242 1186.66416845 584.69408107 1186.6687798 C588.03329083 1186.66927879 591.37250059 1186.66975628 594.71171035 1186.67023618 C604.77615239 1186.67168909 614.84059443 1186.67317379 624.90503645 1186.67472417 C655.59693102 1186.67944715 686.28882562 1186.68244812 716.98072052 1186.68396568 C717.66413908 1186.68400003 718.34755764 1186.68403437 719.05168585 1186.68406975 C763.32101675 1186.68626393 807.59034305 1186.68075723 851.85967255 1186.66971779 C852.5665479 1186.6695422 853.27342326 1186.66936661 854.00171908 1186.66918569 C877.67957836 1186.6633037 901.35743754 1186.65702348 925.03529671 1186.65070254 C996.64118852 1186.63159989 1068.24706395 1186.62113209 1196.12482412 1186.6512792 C1219.79665852 1186.65759511 1243.46849294 1186.66383759 1267.14032745 1186.66971779 C1267.84700286 1186.66989401 1268.55367827 1186.67007024 1269.28176809 1186.6702518 C1313.52760583 1186.68127597 1357.77344039 1186.68618906 1402.01927948 1186.68396568 C1402.70247298 1186.6839319 1403.38566648 1186.68389812 1404.08956281 1186.68386332 C1434.7643301 1186.6823298 1465.43909706 1186.67913849 1496.11386402 1186.67441317 C1506.17390695 1186.67286538 1516.23394989 1186.67139371 1526.29399284 1186.66994793 C1529.63127785 1186.66946796 1532.96856286 1186.66898119 1536.30584787 1186.66847863 C1566.92891755 1186.66389755 1597.55198211 1186.662559 1628.17505074 1186.67162752 C1628.83583754 1186.67182238 1629.49662435 1186.67201724 1630.177435 1186.67221801 C1638.82305295 1186.67477709 1647.46867086 1186.67749071 1656.11428876 1186.68022212 C1657.42467604 1186.68063609 1658.73506332 1186.68105007 1660.0851593 1186.68147659 C1661.39314186 1186.68189 1662.70112442 1186.68230342 1664.04874281 1186.68272936 C1708.10857283 1186.69650297 1752.16836583 1186.69148308 1796.22819054 1186.66507287 C1800.95398462 1186.66231095 1805.67977873 1186.65962745 1810.40557289 1186.65700531 C1811.5654063 1186.65635428 1812.72523971 1186.65570324 1813.92021959 1186.65503248 C1832.32708264 1186.64514886 1850.73389986 1186.6520597 1869.14075878 1186.66585034 C1887.21552958 1186.67903768 1905.29022262 1186.67450569 1923.3649835 1186.6507799 C1933.97771772 1186.63738247 1944.59023941 1186.63780903 1955.20296373 1186.65818789 C1962.23708445 1186.67034118 1969.2710385 1186.66460199 1976.30513888 1186.64385362 C1980.30179078 1186.6325773 1984.29801725 1186.62930433 1988.2946512 1186.6479362 C1991.91637938 1186.6646757 1995.53731004 1186.65867993 1999.15898676 1186.63406267 C2001.07869369 1186.62698724 2002.99844257 1186.6445437 2004.91807411 1186.66296919 C2011.449485 1186.6177444 2011.449485 1186.6177444 2017.26467566 1183.93004788 C2019.38011418 1180.35818756 2019.69387838 1177.53344735 2019.62099248 1173.49248809 C2019.62738294 1172.74032427 2019.63377341 1171.98816045 2019.64035752 1171.21320379 C2019.65573867 1168.67883978 2019.63532391 1166.1460182 2019.61523914 1163.61170483 C2019.61893569 1161.77357052 2019.62482687 1159.93543954 2019.63272012 1158.09731846 C2019.64811275 1153.01836547 2019.63215346 1147.9399101 2019.61132874 1142.86099408 C2019.5942276 1137.35888876 2019.60601528 1131.85683624 2019.61424255 1126.35472107 C2019.62465538 1116.69217667 2019.6163552 1107.02978603 2019.59607565 1097.36725938 C2019.57414927 1086.88578694 2019.56313795 1076.404383 2019.56536138 1065.92288744 C2019.56549627 1065.25621632 2019.56563115 1064.58954519 2019.56577013 1063.90267191 C2019.56650802 1060.50297924 2019.56742318 1057.10328665 2019.56840215 1053.70359405 C2019.57507279 1029.31545469 2019.55815799 1004.92737996 2019.52787781 980.53926086 C2019.48702172 947.56313513 2019.47736646 914.58713943 2019.47302246 881.61096191 C2019.44674254 802.30312758 2019.37693738 722.99531251 2019.3125 643.6875 C2019.209375 466.580625 2019.10625 289.47375 2019 107 C1385.73 107 752.46 107 100 107 Z " fill="#FEFEFE" transform="translate(0,0)"/>
<path d="M0 0 C37.22429982 -0.11441481 74.44857317 -0.20253332 111.67301322 -0.25532665 C116.06651431 -0.26158027 120.46001505 -0.26805187 124.85351562 -0.2746582 C125.72819189 -0.27596976 126.60286816 -0.27728131 127.50404976 -0.2786326 C141.67144292 -0.30039618 155.83873475 -0.33982294 170.00606777 -0.38576398 C184.54030991 -0.43250215 199.07449895 -0.4602898 213.60881317 -0.47044247 C222.57915541 -0.47730713 231.54921127 -0.49899745 240.51946537 -0.53958233 C246.668589 -0.56598814 252.81756433 -0.57400592 258.96674056 -0.56750689 C262.51594739 -0.56430056 266.0646534 -0.56925584 269.61377144 -0.59602737 C273.46105355 -0.62483622 277.3076815 -0.61495133 281.15505981 -0.60127258 C282.27763062 -0.61583679 283.40020142 -0.630401 284.55678952 -0.64540654 C292.97929373 -0.56420415 292.97929373 -0.56420415 296.67780876 2.41257954 C300.37355994 6.53044117 300.14523058 9.52416198 300.13701439 14.83778858 C300.13966622 15.66083627 300.14231804 16.48388396 300.14505023 17.33187249 C300.15277566 20.11968183 300.15330363 22.90744737 300.15390015 25.69526672 C300.15791262 27.70220802 300.16235048 29.7091485 300.1671797 31.716088 C300.17917481 37.25448209 300.18480043 42.79286746 300.18936086 48.33127201 C300.19530576 54.29526588 300.20691827 60.25924927 300.21765137 66.22323608 C300.24103888 79.95562588 300.25558567 93.68801985 300.26788078 107.42042308 C300.272134 112.17017866 300.27669968 116.91993385 300.2814641 121.66968894 C300.30672135 146.91177161 300.32877463 172.15385492 300.34119225 197.39594746 C300.34411369 203.24565445 300.34708118 209.09536142 300.35009766 214.94506836 C300.35046857 215.67183718 300.35083947 216.39860601 300.35122162 217.14739813 C300.36338149 240.71950087 300.39433234 264.29152902 300.43601918 287.86359672 C300.47877951 312.08676135 300.50542973 336.30988656 300.51066696 360.53308996 C300.51140744 363.95234452 300.51231813 367.37159901 300.51332474 370.7908535 C300.51351535 371.46381767 300.51370597 372.13678184 300.51390236 372.83013886 C300.51741981 383.67279795 300.53773541 394.5153638 300.56412137 405.35798862 C300.59023025 416.25075728 300.59759334 427.14341273 300.58702008 438.03620783 C300.58181599 443.94060639 300.58483367 449.84470767 300.60948563 455.74906349 C300.63184649 461.14956445 300.63134121 466.54955231 300.61228175 471.95006146 C300.60946319 473.90836192 300.61518221 475.86669621 300.63009469 477.82494191 C300.64907599 480.47882326 300.63749764 483.13085136 300.61803246 485.784688 C300.63088168 486.55229746 300.6437309 487.31990693 300.65696949 488.11077729 C300.59357293 492.0206849 300.13502211 493.82590241 297.71137297 496.950957 C293.08835037 500.44467483 289.50841262 500.12554695 283.77507114 500.12863445 C283.04257632 500.13038749 282.31008149 500.13214053 281.55538985 500.13394669 C279.08765351 500.13861857 276.61997578 500.13613813 274.15223694 500.13371277 C272.37043393 500.13558014 270.58863134 500.13788054 268.80682939 500.14057809 C263.90003531 500.14671157 258.99325823 500.14656068 254.08646119 500.14538372 C248.79872188 500.1451801 243.51098809 500.15069467 238.22325134 500.15544128 C227.86012421 500.16375665 217.49700276 500.16649652 207.13387258 500.16705366 C198.71343312 500.16752836 190.29299555 500.16958079 181.87255669 500.17275429 C158.01570437 500.18156292 134.15885657 500.18617328 110.30200262 500.18542381 C109.01519576 500.18538386 107.7283889 500.1853439 106.40258789 500.18530273 C104.47002986 500.18524141 104.47002986 500.18524141 102.49843024 500.18517885 C81.60870765 500.18477222 60.71900307 500.19434553 39.82928569 500.2084411 C18.39618843 500.22278959 -3.03690004 500.22971214 -24.47000223 500.22884732 C-36.50966659 500.22851485 -48.54931205 500.23128412 -60.58897209 500.24202538 C-70.83795502 500.25111027 -81.08691051 500.2533222 -91.33589571 500.24651595 C-96.56782558 500.24324067 -101.79970273 500.24323025 -107.03162766 500.2518692 C-111.81757256 500.2596907 -116.60342256 500.25834763 -121.38936502 500.24958507 C-123.12418204 500.24804044 -124.85900599 500.24990214 -126.59381484 500.25544515 C-128.94573605 500.26246443 -131.29732054 500.25724392 -133.64923 500.24888897 C-134.95747657 500.24910634 -136.26572314 500.24932371 -137.61361355 500.24954766 C-142.05582135 499.92219502 -144.7006962 498.94575121 -148.28173804 496.33914399 C-150.62242386 493.1526676 -150.54915351 490.37813775 -150.49219131 486.57369614 C-150.49680669 485.81944284 -150.50142207 485.06518955 -150.50617731 484.2880801 C-150.51681382 481.74604407 -150.49878141 479.20500977 -150.48101807 476.6630249 C-150.48276148 474.8281589 -150.48626215 472.99329386 -150.49137473 471.15843415 C-150.50034376 466.10504601 -150.48428462 461.05199521 -150.46426249 455.99865007 C-150.44702959 450.55354331 -150.45283123 445.10845643 -150.45587158 439.66333008 C-150.45797158 430.22553734 -150.44539446 420.787855 -150.42292023 411.35009003 C-150.39044719 397.70459176 -150.37999802 384.05914702 -150.37496826 370.4136143 C-150.36620823 348.27603888 -150.33960774 326.13851966 -150.30175781 304.00097656 C-150.26502699 282.49316718 -150.23668916 260.98537352 -150.21972656 239.47753906 C-150.21920046 238.81470434 -150.21867435 238.15186962 -150.21813231 237.468949 C-150.21233496 230.15207331 -150.20676757 222.83519745 -150.20129442 215.51832151 C-150.15981035 160.34550701 -150.08934265 105.17275632 -150 50 C-148.87221209 50.02407126 -148.87221209 50.02407126 -147.72164059 50.04862881 C-129.32122725 50.43327024 -110.92310174 50.68722209 -92.51896572 50.80052853 C-83.61782822 50.85839342 -74.72111077 50.95844433 -65.82202148 51.16235352 C-58.05372167 51.34024036 -50.28938556 51.43435394 -42.51897866 51.43306834 C-38.41247604 51.4351797 -34.31544549 51.4756555 -30.21117973 51.61698723 C-8.95582893 52.36548205 -8.95582893 52.36548205 8.97281665 42.17761546 C14.1209905 37.18517611 18.69879022 31.73192768 23 26 C21.26410947 22.28453308 19.15255238 19.93541767 16.2109375 17.05078125 C15.51600693 16.36365303 15.51600693 16.36365303 14.80703735 15.66264343 C13.33438759 14.2077355 11.85519271 12.75973003 10.375 11.3125 C8.42132002 9.39508102 6.47175161 7.47367094 4.5234375 5.55078125 C3.65638184 4.70169189 2.78932617 3.85260254 1.89599609 2.9777832 C0 1 0 1 0 0 Z " fill="#FDFDFD" transform="translate(985,397)"/>
<path d="M0 0 C1.13485804 -0.01229251 2.26971608 -0.02458501 3.43896376 -0.03725002 C4.68434321 -0.02529631 5.92972266 -0.0133426 7.21284088 -0.00102665 C8.55773023 -0.00598348 9.90261297 -0.01313255 11.24748039 -0.02227388 C14.96486687 -0.04112755 18.68160287 -0.0286541 22.39897273 -0.01132413 C26.44995044 0.0020561 30.50083223 -0.01355929 34.55180004 -0.02550837 C41.68620238 -0.04251352 48.82041403 -0.04079033 55.95482066 -0.02709065 C66.63526442 -0.0066741 77.31555271 -0.01498419 87.99599989 -0.02900386 C106.19583289 -0.05204269 124.39559614 -0.05123501 142.59543547 -0.03759947 C161.04745971 -0.02385904 179.499438 -0.02092871 197.95146498 -0.03128614 C199.1154831 -0.03193201 200.27950123 -0.03257787 201.47879262 -0.0332433 C206.21939885 -0.03590956 210.96000503 -0.03865308 215.70061116 -0.04149468 C259.8910424 -0.06796463 304.08144283 -0.06972462 348.27187857 -0.05575743 C349.58226585 -0.05534345 350.89265313 -0.05492947 352.24274911 -0.05450295 C354.21145669 -0.05388098 354.21145669 -0.05388098 356.21993615 -0.05324644 C364.20728646 -0.05072629 372.19463678 -0.04826375 380.18198714 -0.04590835 C380.84319195 -0.04571255 381.50439676 -0.04551674 382.18563808 -0.04531501 C412.80746585 -0.03631431 443.42929029 -0.03844928 474.05111894 -0.04306063 C477.3903287 -0.04355962 480.72953846 -0.04403711 484.06874822 -0.04451701 C494.13319026 -0.04596992 504.1976323 -0.04745462 514.26207432 -0.049005 C544.95396889 -0.05372798 575.64586349 -0.05672895 606.33775839 -0.05824652 C607.02117695 -0.05828086 607.70459551 -0.0583152 608.40872373 -0.05835058 C652.67805462 -0.06054476 696.94738093 -0.05503806 741.21671042 -0.04399862 C741.92358578 -0.04382303 742.63046113 -0.04364744 743.35875695 -0.04346653 C767.03661624 -0.03758454 790.71447542 -0.03130432 814.39233459 -0.02498337 C885.99822639 -0.00588073 957.60410182 0.00458708 1085.48186199 -0.02556003 C1109.15369639 -0.03187594 1132.82553081 -0.03811842 1156.49736533 -0.04399862 C1157.20404074 -0.04417484 1157.91071615 -0.04435107 1158.63880596 -0.04453263 C1202.8846437 -0.0555568 1247.13047826 -0.0604699 1291.37631735 -0.05824652 C1292.05951085 -0.05821274 1292.74270435 -0.05817895 1293.44660068 -0.05814415 C1324.12136797 -0.05661064 1354.79613493 -0.05341932 1385.47090189 -0.048694 C1395.53094482 -0.04714621 1405.59098776 -0.04567454 1415.65103071 -0.04422876 C1418.98831572 -0.0437488 1422.32560073 -0.04326203 1425.66288574 -0.04275946 C1456.28595542 -0.03817838 1486.90901998 -0.03683983 1517.53208861 -0.04590835 C1518.52326882 -0.04620064 1518.52326882 -0.04620064 1519.53447287 -0.04649884 C1528.18009083 -0.04905792 1536.82570873 -0.05177155 1545.47132664 -0.05450295 C1546.78171391 -0.05491693 1548.09210119 -0.0553309 1549.44219717 -0.05575743 C1551.40417101 -0.05637754 1551.40417101 -0.05637754 1553.40578069 -0.05701019 C1597.4656107 -0.07078381 1641.5254037 -0.06576391 1685.58522841 -0.03935371 C1690.31102249 -0.03659178 1695.03681661 -0.03390828 1699.76261076 -0.03128614 C1700.92244418 -0.03063511 1702.08227759 -0.02998407 1703.27725747 -0.02931331 C1721.68412051 -0.01942969 1740.09093773 -0.02634053 1758.49779665 -0.04013117 C1776.57256745 -0.05331851 1794.6472605 -0.04878652 1812.72202137 -0.02506073 C1823.33475559 -0.0116633 1833.94727728 -0.01208987 1844.5600016 -0.03246872 C1851.59412232 -0.04462201 1858.62807637 -0.03888282 1865.66217675 -0.01813445 C1869.65882865 -0.00685813 1873.65505512 -0.00358517 1877.65168907 -0.02221704 C1881.27341725 -0.03895653 1884.89434791 -0.03296076 1888.51602463 -0.0083435 C1890.43573156 -0.00126808 1892.35548044 -0.01882453 1894.27511198 -0.03725002 C1895.97739904 -0.01881126 1895.97739904 -0.01881126 1897.71407574 0 C1899.17916864 0.00020976 1899.17916864 0.00020976 1900.67385936 0.00042375 C1903.35703787 0.62571917 1903.35703787 0.62571917 1908.35703787 5.62571917 C1908.35703787 14.53571917 1908.35703787 23.44571917 1908.35703787 32.62571917 C1275.08703787 32.62571917 641.81703787 32.62571917 -10.64296213 32.62571917 C-10.64296213 0.00152374 -10.64296213 0.00152374 0 0 Z " fill="#E7E7E7" transform="translate(110.64296212792397,74.37428083270788)"/>
<path d="M0 0 C1.18107834 -0.03880783 2.36215668 -0.07761566 3.57902527 -0.11759949 C4.87704071 -0.14451874 6.17505615 -0.17143799 7.5124054 -0.19917297 C8.89263498 -0.23762164 10.27283817 -0.27702841 11.65301514 -0.31732178 C24.31920355 -0.66664965 36.99253537 -0.8354109 49.66264629 -0.96762371 C59.00688763 -1.06680127 68.34225184 -1.24423324 77.68268842 -1.53015679 C84.27402126 -1.72495157 90.86298309 -1.82449837 97.45708019 -1.85787231 C101.38265193 -1.88031469 105.29753573 -1.94147345 109.21990013 -2.10695457 C123.90543744 -2.69971999 136.18161539 -2.76096478 147.50903088 7.6333403 C152.90151094 12.87504607 157.74657175 18.5691044 162.3339386 24.52226257 C157.77098946 34.55536813 148.07179729 45.14175026 138.3339386 50.52226257 C127.87741588 53.95828482 116.67822758 53.18215383 105.8139081 52.75292921 C101.66952118 52.61331334 97.52459511 52.60232037 93.3782196 52.57637024 C85.56286325 52.50857455 77.75445536 52.32891964 69.94213045 52.10668147 C61.03346961 51.85887895 52.12443705 51.73935668 43.21317601 51.6293819 C24.91618859 51.40076492 6.62562601 51.0150295 -11.6660614 50.52226257 C-11.74031779 44.63239794 -11.79471408 38.74280691 -11.83085632 32.85258484 C-11.84592605 30.84960685 -11.8663855 28.84666177 -11.89237976 26.84379578 C-11.92884267 23.96179576 -11.94580601 21.08023273 -11.95903015 18.19804382 C-11.97451401 17.30515152 -11.98999786 16.41225922 -12.00595093 15.49230957 C-12.00725618 10.65078816 -11.81251349 7.4483095 -8.6660614 3.52226257 C-8.25349689 2.99507724 -7.84093237 2.4678919 -7.4158659 1.92473125 C-4.94535279 -0.05538554 -3.14520609 0.08691275 0 0 Z " fill="#176EC9" transform="translate(846.6660614013672,396.4777374267578)"/>
<path d="M0 0 C0.84936127 -0.00571014 1.69872253 -0.01142029 2.57382202 -0.01730347 C3.50267212 -0.01842133 4.43152222 -0.01953918 5.38851929 -0.02069092 C6.36936493 -0.02565582 7.35021057 -0.03062073 8.36077881 -0.03573608 C11.61270852 -0.05036555 14.86458939 -0.05716224 18.11654663 -0.06268311 C20.37756349 -0.06843541 22.63858034 -0.07419313 24.89959717 -0.07995605 C29.64590685 -0.0904693 34.39219959 -0.09630936 39.13851929 -0.09979248 C45.20787569 -0.10526749 51.27700665 -0.12927307 57.3462925 -0.15776443 C62.02014814 -0.17643149 66.69395004 -0.18159866 71.36783981 -0.18312836 C73.60444746 -0.18614794 75.84105431 -0.19415292 78.07762527 -0.20731354 C81.21528245 -0.22445324 84.35239622 -0.22247392 87.49008179 -0.21600342 C88.86513885 -0.22982559 88.86513885 -0.22982559 90.26797485 -0.243927 C97.44833736 -0.1977658 103.97695758 0.79667562 109.63998413 5.45294189 C114.79544877 11.78679845 117.20362383 16.3708378 117.10873413 24.50762939 C116.40887309 31.05910634 112.81141696 35.98716453 107.82748413 40.14044189 C103.04221041 42.87488402 99.01284729 44.25585666 93.52798462 44.28761292 C92.67580353 44.29476822 91.82362244 44.30192352 90.94561768 44.30929565 C90.01879181 44.31198456 89.09196594 44.31467346 88.13705444 44.31744385 C87.15445648 44.32401505 86.17185852 44.33058624 85.15948486 44.33735657 C81.90819215 44.35706464 78.65694558 44.36874646 75.40560913 44.37872314 C74.29394127 44.38279867 73.18227341 44.3868742 72.03691864 44.39107323 C66.15330695 44.41192301 60.26971851 44.42622966 54.38607788 44.43560791 C48.31546395 44.44667197 42.24521658 44.48107535 36.17473221 44.52077961 C31.50091885 44.54694751 26.82719285 44.55529991 22.15331268 44.55888939 C19.91586582 44.56375459 17.67842284 44.57536663 15.44104767 44.59392738 C12.30556823 44.61832254 9.17103759 44.61735282 6.03549194 44.6104126 C5.116763 44.62322266 4.19803406 44.63603271 3.25146484 44.64923096 C-4.22270262 44.58912484 -9.39087876 42.61300821 -14.98501587 37.64044189 C-20.26838918 31.60230097 -21.49334548 27.67951238 -21.38735962 19.67169189 C-20.84583651 13.29156505 -17.90351835 9.21130449 -13.17251587 5.14044189 C-8.74408194 1.95196947 -5.48249556 0.02210648 0 0 Z " fill="#176EC9" transform="translate(1012.1725158691406,817.8595581054688)"/>
<path d="M0 0 C2.61515968 0.00970781 5.23031946 0.01938919 7.84547925 0.0290677 C52.97459764 0.19626791 98.10365432 0.37726545 143.23266149 0.57217997 C142.90266149 1.56217997 142.57266149 2.55217997 142.23266149 3.57217997 C-5.93733851 3.57217997 -154.10733851 3.57217997 -306.76733851 3.57217997 C-306.76733851 2.58217997 -306.76733851 1.59217997 -306.76733851 0.57217997 C-288.0177043 0.3442112 -269.2676907 0.16572279 -250.51733851 0.00967997 C-249.75534868 0.00329713 -248.99335885 -0.00308571 -248.20827842 -0.00966197 C-165.47284341 -0.69845403 -82.73633326 -0.30714224 0 0 Z " fill="#D9D9D9" transform="translate(1141.767338514328,446.42782002687454)"/>
<path d="M0 0 C3.39858684 1.5938628 4.11802111 4.74529967 5.390625 8.06640625 C5.65875 8.72962891 5.926875 9.39285156 6.203125 10.07617188 C6.86268238 11.71328752 7.50347669 13.35793978 8.140625 15.00390625 C7.150625 15.33390625 6.160625 15.66390625 5.140625 16.00390625 C4.810625 15.01390625 4.480625 14.02390625 4.140625 13.00390625 C1.170625 13.00390625 -1.799375 13.00390625 -4.859375 13.00390625 C-5.189375 13.99390625 -5.519375 14.98390625 -5.859375 16.00390625 C-6.849375 15.67390625 -7.839375 15.34390625 -8.859375 15.00390625 C-7.88311469 12.69013946 -6.90352368 10.37788562 -5.921875 8.06640625 C-5.64408203 7.40705078 -5.36628906 6.74769531 -5.08007812 6.06835938 C-2.49937036 0.00525078 -2.49937036 0.00525078 0 0 Z " fill="#777777" transform="translate(1062.859375,528.99609375)"/>
<path d="M0 0 C1.875 1.125 1.875 1.125 3 3 C3.39365568 6.14924548 3.52854531 8.11909116 1.875 10.875 C-0.88090884 12.52854531 -2.85075452 12.39365568 -6 12 C-7.875 10.875 -7.875 10.875 -9 9 C-9.39365568 5.85075452 -9.52854531 3.88090884 -7.875 1.125 C-5.11909116 -0.52854531 -3.14924548 -0.39365568 0 0 Z " fill="#777777" transform="translate(1103,533)"/>
<path d="M0 0 C1.875 1.125 1.875 1.125 3 3 C3.39365568 6.14924548 3.52854531 8.11909116 1.875 10.875 C-0.88090884 12.52854531 -2.85075452 12.39365568 -6 12 C-7.875 10.875 -7.875 10.875 -9 9 C-9.39365568 5.85075452 -9.52854531 3.88090884 -7.875 1.125 C-5.11909116 -0.52854531 -3.14924548 -0.39365568 0 0 Z " fill="#26C342" transform="translate(163,86)"/>
<path d="M0 0 C1.875 1.125 1.875 1.125 3 3 C3.39365568 6.14924548 3.52854531 8.11909116 1.875 10.875 C-0.88090884 12.52854531 -2.85075452 12.39365568 -6 12 C-7.875 10.875 -7.875 10.875 -9 9 C-9.39365568 5.85075452 -9.52854531 3.88090884 -7.875 1.125 C-5.11909116 -0.52854531 -3.14924548 -0.39365568 0 0 Z " fill="#FAB734" transform="translate(143,86)"/>
<path d="M0 0 C1.875 1.125 1.875 1.125 3 3 C3.39365568 6.14924548 3.52854531 8.11909116 1.875 10.875 C-0.88090884 12.52854531 -2.85075452 12.39365568 -6 12 C-7.875 10.875 -7.875 10.875 -9 9 C-9.39365568 5.85075452 -9.52854531 3.88090884 -7.875 1.125 C-5.11909116 -0.52854531 -3.14924548 -0.39365568 0 0 Z " fill="#FB5C55" transform="translate(123,86)"/>
<path d="M0 0 C0.33 1.98 0.66 3.96 1 6 C-1.31 6.33 -3.62 6.66 -6 7 C-4.02 7 -2.04 7 0 7 C-0.33 8.32 -0.66 9.64 -1 11 C-6.4 11.36 -6.4 11.36 -8.875 9.875 C-10.52854531 7.11909116 -10.39365568 5.14924548 -10 2 C-7.64463991 -2.2950684 -4.23605512 -0.87918125 0 0 Z " fill="#828282" transform="translate(1046,534)"/>
<path d="M0 0 C0.33 1.98 0.66 3.96 1 6 C-1.31 6.33 -3.62 6.66 -6 7 C-4.02 7 -2.04 7 0 7 C-0.33 8.32 -0.66 9.64 -1 11 C-6.4 11.36 -6.4 11.36 -8.875 9.875 C-10.52854531 7.11909116 -10.39365568 5.14924548 -10 2 C-7.64463991 -2.2950684 -4.23605512 -0.87918125 0 0 Z " fill="#828282" transform="translate(1010,534)"/>
<path d="M0 0 C3.375 -0.125 3.375 -0.125 7 0 C9 2 9 2 9.1953125 4.3828125 C9.17210937 5.28773438 9.14890625 6.19265625 9.125 7.125 C9.10695313 8.03507813 9.08890625 8.94515625 9.0703125 9.8828125 C9.04710937 10.58148437 9.02390625 11.28015625 9 12 C2.9453125 12.1953125 2.9453125 12.1953125 1 12 C0.34 11.34 -0.32 10.68 -1 10 C-0.9375 8 -0.9375 8 0 6 C2.5625 4.75 2.5625 4.75 5 4 C3.35 3.67 1.7 3.34 0 3 C0 2.01 0 1.02 0 0 Z " fill="#828282" transform="translate(1014,533)"/>
<path d="M0 0 C0.66 0.33 1.32 0.66 2 1 C1.67 1.99 1.34 2.98 1 4 C-0.134375 3.979375 -1.26875 3.95875 -2.4375 3.9375 C-5.81575674 3.58422523 -5.81575674 3.58422523 -7 5 C-7.16666667 8 -7.16666667 8 -7 11 C-5.81575674 12.41577477 -5.81575674 12.41577477 -2.4375 12.0625 C-0.7359375 12.0315625 -0.7359375 12.0315625 1 12 C1.33 12.99 1.66 13.98 2 15 C-1.12860495 16.56430248 -3.55602925 16.35627284 -7 16 C-9.9236459 13.4511805 -10.84909176 11.80484394 -11.5625 8 C-10.35312778 1.55001481 -6.27499124 -0.8366655 0 0 Z " fill="#777777" transform="translate(987,529)"/>
<path d="M0 0 C3.5625 0.1875 3.5625 0.1875 5.5625 2.1875 C5.7578125 4.5703125 5.7578125 4.5703125 5.6875 7.3125 C5.66945313 8.22257813 5.65140625 9.13265625 5.6328125 10.0703125 C5.60960937 10.76898437 5.58640625 11.46765625 5.5625 12.1875 C4.5725 12.1875 3.5825 12.1875 2.5625 12.1875 C2.2325 9.5475 1.9025 6.9075 1.5625 4.1875 C0.5725 3.8575 -0.4175 3.5275 -1.4375 3.1875 C-1.4375 6.1575 -1.4375 9.1275 -1.4375 12.1875 C-2.4275 12.1875 -3.4175 12.1875 -4.4375 12.1875 C-4.46437279 10.37507948 -4.48383715 8.56254767 -4.5 6.75 C-4.51160156 5.74066406 -4.52320313 4.73132813 -4.53515625 3.69140625 C-4.3839305 -0.18602191 -4.00405157 0.21840281 0 0 Z " fill="#777777" transform="translate(1127.4375,532.8125)"/>
<path d="M0 0 C0.99 0 1.98 0 3 0 C3.33 2.64 3.66 5.28 4 8 C4.99 8.33 5.98 8.66 7 9 C7 6.03 7 3.06 7 0 C7.99 0 8.98 0 10 0 C10.02687279 1.81242052 10.04633715 3.62495233 10.0625 5.4375 C10.07410156 6.44683594 10.08570313 7.45617187 10.09765625 8.49609375 C10 11 10 11 9 12 C5.5625 12.1875 5.5625 12.1875 2 12 C0 10 0 10 -0.1953125 7.6171875 C-0.17210937 6.71226562 -0.14890625 5.80734375 -0.125 4.875 C-0.10695313 3.96492187 -0.08890625 3.05484375 -0.0703125 2.1171875 C-0.04710937 1.41851563 -0.02390625 0.71984375 0 0 Z " fill="#777777" transform="translate(1109,533)"/>
<path d="M0 0 C0.99 0 1.98 0 3 0 C3 1.32 3 2.64 3 4 C4.32 4 5.64 4 7 4 C7 4.99 7 5.98 7 7 C5.68 7 4.36 7 3 7 C3 8.98 3 10.96 3 13 C4.32 13 5.64 13 7 13 C7 13.99 7 14.98 7 16 C4.625 16.125 4.625 16.125 2 16 C0 14 0 14 -0.1953125 10.7421875 C-0.17210937 9.46601562 -0.14890625 8.18984375 -0.125 6.875 C-0.10695313 5.59367188 -0.08890625 4.31234375 -0.0703125 2.9921875 C-0.04710937 2.00476563 -0.02390625 1.01734375 0 0 Z " fill="#777777" transform="translate(1137,529)"/>
<path d="M0 0 C0.99 0 1.98 0 3 0 C3 1.32 3 2.64 3 4 C4.32 4 5.64 4 7 4 C7 4.99 7 5.98 7 7 C5.68 7 4.36 7 3 7 C3 8.98 3 10.96 3 13 C4.32 13 5.64 13 7 13 C7 13.99 7 14.98 7 16 C4.625 16.125 4.625 16.125 2 16 C0 14 0 14 -0.1953125 10.7421875 C-0.17210937 9.46601562 -0.14890625 8.18984375 -0.125 6.875 C-0.10695313 5.59367188 -0.08890625 4.31234375 -0.0703125 2.9921875 C-0.04710937 2.00476563 -0.02390625 1.01734375 0 0 Z " fill="#777777" transform="translate(1027,529)"/>
<path d="M0 0 C0 0.99 0 1.98 0 3 C-1.98 3.33 -3.96 3.66 -6 4 C-6 5.32 -6 6.64 -6 8 C-3.03 8.495 -3.03 8.495 0 9 C0 9.99 0 10.98 0 12 C-6.32597793 12.35807422 -6.32597793 12.35807422 -9 10.9375 C-10.63378851 7.77203476 -9.85267564 5.34979714 -9 2 C-5.5647952 -0.29013653 -4.014669 -0.17842973 0 0 Z " fill="#777777" transform="translate(1093,533)"/>
<path d="M0 0 C0 0.99 0 1.98 0 3 C-1.98 3.33 -3.96 3.66 -6 4 C-6 5.32 -6 6.64 -6 8 C-3.03 8.495 -3.03 8.495 0 9 C0 9.99 0 10.98 0 12 C-6.32597793 12.35807422 -6.32597793 12.35807422 -9 10.9375 C-10.63378851 7.77203476 -9.85267564 5.34979714 -9 2 C-5.5647952 -0.29013653 -4.014669 -0.17842973 0 0 Z " fill="#777777" transform="translate(1082,533)"/>
<path d="M0 0 C3.23475448 1.61737724 4.70572021 2.47629223 7 5 C7.33 3.35 7.66 1.7 8 0 C8.66 0 9.32 0 10 0 C10 3.63 10 7.26 10 11 C6.31197956 9.77065985 5.27643027 8.06140622 3 5 C2.67 6.98 2.34 8.96 2 11 C1.34 11 0.68 11 0 11 C0 7.37 0 3.74 0 0 Z " fill="#FFFFFF" transform="translate(1043,835)"/>
<path d="M0 0 C1.65 0 3.3 0 5 0 C5.66 0.66 6.32 1.32 7 2 C6.625 4.625 6.625 4.625 6 7 C4.68 7.33 3.36 7.66 2 8 C2 8.99 2 9.98 2 11 C1.34 11 0.68 11 0 11 C0 7.37 0 3.74 0 0 Z " fill="#D5E5F5" transform="translate(913,422)"/>
<path d="M0 0 C1.4540625 0.0309375 1.4540625 0.0309375 2.9375 0.0625 C2.9375 1.0525 2.9375 2.0425 2.9375 3.0625 C1.6175 3.0625 0.2975 3.0625 -1.0625 3.0625 C-1.0625 6.0325 -1.0625 9.0025 -1.0625 12.0625 C-2.0525 12.0625 -3.0425 12.0625 -4.0625 12.0625 C-4.08937279 10.25007948 -4.10883715 8.43754767 -4.125 6.625 C-4.13660156 5.61566406 -4.14820313 4.60632813 -4.16015625 3.56640625 C-4.01596662 -0.13061575 -3.76355726 0.07680729 0 0 Z " fill="#777777" transform="translate(996.0625,532.9375)"/>
<path d="M0 0 C0 0.33 0 0.66 0 1 C-1.65 1 -3.3 1 -5 1 C-5 1.66 -5 2.32 -5 3 C-2.525 3.99 -2.525 3.99 0 5 C-0.33 6.65 -0.66 8.3 -1 10 C-2.65 10 -4.3 10 -6 10 C-6.33 9.34 -6.66 8.68 -7 8 C-5.35 8 -3.7 8 -2 8 C-2 7.34 -2 6.68 -2 6 C-4.475 5.01 -4.475 5.01 -7 4 C-7 2.68 -7 1.36 -7 0 C-4.3333581 -1.33332095 -2.83319697 -0.67102033 0 0 Z " fill="#FFFFFF" transform="translate(895,420)"/>
<path d="M0 0 C2.125 0.375 2.125 0.375 4 1 C4.93423645 4.01031744 5.04449911 4.86650268 4 8 C2.35 7.67 0.7 7.34 -1 7 C-1.625 4.625 -1.625 4.625 -2 2 C-1.34 1.34 -0.68 0.68 0 0 Z " fill="#EDF4FA" transform="translate(1057,838)"/>
<path d="M0 0 C2.125 0.375 2.125 0.375 4 1 C4.93423645 4.01031744 5.04449911 4.86650268 4 8 C2.35 7.67 0.7 7.34 -1 7 C-1.625 4.625 -1.625 4.625 -2 2 C-1.34 1.34 -0.68 0.68 0 0 Z " fill="#EDF4FA" transform="translate(906,422)"/>
<path d="M0 0 C0.7425 0.185625 1.485 0.37125 2.25 0.5625 C4.94990963 0.99203108 6.44631077 0.85122974 9 0 C8.62875 0.763125 8.2575 1.52625 7.875 2.3125 C7.58625 3.199375 7.2975 4.08625 7 5 C7.99 6.485 7.99 6.485 9 8 C8.2575 7.814375 7.515 7.62875 6.75 7.4375 C4.05009037 7.00796892 2.55368923 7.14877026 0 8 C0.37125 7.236875 0.7425 6.47375 1.125 5.6875 C1.41375 4.800625 1.7025 3.91375 2 3 C1.34 2.01 0.68 1.02 0 0 Z " fill="#FFFFFF" transform="translate(1063,838)"/>
<path d="M0 0 C1.65 0.33 3.3 0.66 5 1 C4.67 2.65 4.34 4.3 4 6 C2.35 5.67 0.7 5.34 -1 5 C-0.67 3.35 -0.34 1.7 0 0 Z " fill="#FFFFFF" transform="translate(1098,536)"/>
<path d="M0 0 C0.66 0 1.32 0 2 0 C2 0.66 2 1.32 2 2 C2.99 2 3.98 2 5 2 C5 2.66 5 3.32 5 4 C4.01 4 3.02 4 2 4 C2 5.32 2 6.64 2 8 C2.99 8 3.98 8 5 8 C5 8.66 5 9.32 5 10 C3.35 9.67 1.7 9.34 0 9 C0 6.03 0 3.06 0 0 Z " fill="#FFFFFF" transform="translate(1073,836)"/>
<path d="M0 0 C0.66 0 1.32 0 2 0 C2 0.66 2 1.32 2 2 C2.99 2 3.98 2 5 2 C5 2.66 5 3.32 5 4 C4.01 4 3.02 4 2 4 C2 5.32 2 6.64 2 8 C2.99 8 3.98 8 5 8 C5 8.66 5 9.32 5 10 C3.35 9.67 1.7 9.34 0 9 C0 6.03 0 3.06 0 0 Z " fill="#FFFFFF" transform="translate(897,420)"/>
<path d="M0 0 C0 3.63 0 7.26 0 11 C-0.66 11 -1.32 11 -2 11 C-2.12375 9.88625 -2.2475 8.7725 -2.375 7.625 C-2.6465813 3.96896323 -2.6465813 3.96896323 -5 2 C-2 0 -2 0 0 0 Z " fill="#FFFFFF" transform="translate(931,419)"/>
<path d="M0 0 C3 3.75 3 3.75 3 6 C1.35 6 -0.3 6 -2 6 C-1.34 4.02 -0.68 2.04 0 0 Z " fill="#FFFFFF" transform="translate(1062,533)"/>
</svg>
